<svg xmlns="http://www.w3.org/2000/svg" viewBox="0 0 75.67 52.96"><defs><style>.cls-1{fill:#009edd;}.cls-2{fill:#fff;}</style></defs><title>salesforce</title><g id="Layer_2" data-name="Layer 2"><g id="Layer_1-2" data-name="Layer 1"><path class="cls-1" d="M31.49,5.78a13.23,13.23,0,0,1,9.59-4.12A13.39,13.39,0,0,1,52.76,8.58a16.09,16.09,0,0,1,6.59-1.41,16.46,16.46,0,0,1,0,32.91,16.18,16.18,0,0,1-3.21-.32,11.92,11.92,0,0,1-15.62,4.91,13.61,13.61,0,0,1-25.3-.61,12.92,12.92,0,0,1-2.59.27A12.79,12.79,0,0,1,6.32,20.51,14.69,14.69,0,0,1,31.49,5.78"/><path class="cls-2" d="M11,27.46c-.05.13,0,.15,0,.18s.29.17.43.26a4.63,4.63,0,0,0,2.27.53c1.55,0,2.51-.83,2.51-2.16v0c0-1.23-1.09-1.68-2.11-2l-.13,0c-.77-.25-1.43-.47-1.43-1v0c0-.44.39-.76,1-.76a4.49,4.49,0,0,1,2,.51s.15.1.2-.05l.32-.85a.13.13,0,0,0-.08-.17,4.31,4.31,0,0,0-2.22-.6h-.15a2.18,2.18,0,0,0-2.42,2.09v0c0,1.3,1.1,1.72,2.12,2l.17.05c.74.23,1.39.43,1.39,1v0c0,.48-.42.84-1.09.84a3.63,3.63,0,0,1-2-.57l-.26-.16a.12.12,0,0,0-.2.07l-.31.84Z"/><path class="cls-2" d="M33.68,27.46c0,.13,0,.15,0,.18s.29.17.44.26a4.6,4.6,0,0,0,2.26.53c1.55,0,2.51-.83,2.51-2.16v0c0-1.23-1.08-1.68-2.1-2l-.14,0c-.77-.25-1.43-.47-1.43-1v0c0-.44.39-.76,1-.76a4.49,4.49,0,0,1,2,.51s.15.1.21-.05.29-.77.31-.85a.14.14,0,0,0-.07-.17,4.38,4.38,0,0,0-2.23-.6h-.15a2.17,2.17,0,0,0-2.41,2.09v0c0,1.3,1.09,1.72,2.12,2l.16.05c.75.23,1.39.43,1.39,1v0c0,.48-.42.84-1.09.84a3.65,3.65,0,0,1-2-.57l-.26-.16a.13.13,0,0,0-.2.07l-.31.84Z"/><path class="cls-2" d="M49.19,24.86a3.25,3.25,0,0,1-.41,1.76,1.39,1.39,0,0,1-1.26.62,1.37,1.37,0,0,1-1.26-.62,3.23,3.23,0,0,1-.41-1.76,3.19,3.19,0,0,1,.41-1.75,1.39,1.39,0,0,1,1.26-.61,1.41,1.41,0,0,1,1.26.61,3.19,3.19,0,0,1,.41,1.75m1.3-1.39a3.29,3.29,0,0,0-.59-1.13,2.8,2.8,0,0,0-1-.75,3.57,3.57,0,0,0-2.77,0,2.9,2.9,0,0,0-1,.75,3.29,3.29,0,0,0-.59,1.13,5.13,5.13,0,0,0-.19,1.39,5.08,5.08,0,0,0,.19,1.39,3.29,3.29,0,0,0,.59,1.13,2.78,2.78,0,0,0,1,.75,3.69,3.69,0,0,0,2.77,0,2.69,2.69,0,0,0,1-.75,3.29,3.29,0,0,0,.59-1.13,4.72,4.72,0,0,0,.19-1.39,4.81,4.81,0,0,0-.19-1.39"/><path class="cls-2" d="M61.13,27A.13.13,0,0,0,61,27a3,3,0,0,1-.6.17,5.16,5.16,0,0,1-.71.05,2,2,0,0,1-1.48-.55,2.48,2.48,0,0,1-.56-1.77,2.72,2.72,0,0,1,.5-1.71,1.7,1.7,0,0,1,1.44-.63,4.49,4.49,0,0,1,1.37.19s.1.05.15-.09l.31-.88a.11.11,0,0,0-.07-.15,4.37,4.37,0,0,0-.87-.22,5.66,5.66,0,0,0-1-.07,3.47,3.47,0,0,0-1.45.28,3,3,0,0,0-1,.76,3.08,3.08,0,0,0-.63,1.12,4.51,4.51,0,0,0-.21,1.4A3.76,3.76,0,0,0,57,27.44a3.31,3.31,0,0,0,2.56,1,5.33,5.33,0,0,0,1.83-.33.12.12,0,0,0,.06-.15L61.13,27Z"/><path class="cls-2" d="M63.4,24.14a2.46,2.46,0,0,1,.35-1A1.4,1.4,0,0,1,65,22.47a1.36,1.36,0,0,1,1.23.64,2.15,2.15,0,0,1,.29,1Zm4.36-.92a2.85,2.85,0,0,0-.56-1,2.57,2.57,0,0,0-.84-.64,3.2,3.2,0,0,0-1.25-.25,3.41,3.41,0,0,0-1.45.28,3,3,0,0,0-1,.77,3,3,0,0,0-.59,1.14,4.83,4.83,0,0,0-.2,1.4,4.78,4.78,0,0,0,.2,1.4,2.92,2.92,0,0,0,.64,1.11,2.83,2.83,0,0,0,1.1.73,4.24,4.24,0,0,0,1.59.26A4.41,4.41,0,0,0,67.6,28c.05,0,.1-.07,0-.21l-.29-.8a.12.12,0,0,0-.16-.07,4.43,4.43,0,0,1-1.8.32,1.81,1.81,0,0,1-2-2h4.39a.13.13,0,0,0,.13-.12,4.82,4.82,0,0,0-.13-1.89Z"/><path class="cls-2" d="M28.27,24.14a2.46,2.46,0,0,1,.36-1,1.38,1.38,0,0,1,1.25-.64,1.36,1.36,0,0,1,1.23.64,2.15,2.15,0,0,1,.29,1Zm4.36-.92a2.7,2.7,0,0,0-.56-1,2.54,2.54,0,0,0-.83-.64A3.29,3.29,0,0,0,30,21.31a3.4,3.4,0,0,0-1.44.28,2.8,2.8,0,0,0-1,.77,3.11,3.11,0,0,0-.6,1.14,4.84,4.84,0,0,0-.19,1.4,4.78,4.78,0,0,0,.2,1.4,2.9,2.9,0,0,0,.63,1.11,2.8,2.8,0,0,0,1.11.73,4.21,4.21,0,0,0,1.59.26A4.44,4.44,0,0,0,32.48,28c.05,0,.09-.07,0-.21l-.28-.8a.13.13,0,0,0-.17-.07,4.38,4.38,0,0,1-1.8.32,2.06,2.06,0,0,1-1.5-.52,2.1,2.1,0,0,1-.51-1.46h4.39a.12.12,0,0,0,.12-.12,4.61,4.61,0,0,0-.13-1.89Z"/><path class="cls-2" d="M18.79,27a.81.81,0,0,1-.25-.26,1,1,0,0,1-.13-.57,1,1,0,0,1,.39-.85A2.1,2.1,0,0,1,20.07,25a9.39,9.39,0,0,1,1.19.1v2h0a9.19,9.19,0,0,1-1.18.16A2,2,0,0,1,18.79,27m1.75-3.08-.69,0a4.26,4.26,0,0,0-1.08.14,2.73,2.73,0,0,0-.91.43,2.11,2.11,0,0,0-.64.72,2.06,2.06,0,0,0-.23,1,2.2,2.2,0,0,0,.2,1,1.74,1.74,0,0,0,.57.69,2.5,2.5,0,0,0,.89.38,5.23,5.23,0,0,0,1.16.12,7.5,7.5,0,0,0,1.34-.11c.43-.07,1-.18,1.1-.21l.31-.08a.13.13,0,0,0,.1-.14v-4a2.44,2.44,0,0,0-.7-1.93,3,3,0,0,0-2-.61,7.6,7.6,0,0,0-1.17.11,4.37,4.37,0,0,0-1.35.49.14.14,0,0,0,0,.18l.31.83a.1.1,0,0,0,.14.07l.07,0a4.49,4.49,0,0,1,1.91-.45,1.77,1.77,0,0,1,1.09.29c.24.18.36.46.36,1V24c-.38-.06-.72-.09-.72-.09"/><path class="cls-2" d="M55.91,21.67a.13.13,0,0,0-.07-.16,4.87,4.87,0,0,0-.73-.12,2.25,2.25,0,0,0-1.13.18,1.87,1.87,0,0,0-.74.55v-.54a.13.13,0,0,0-.13-.13H52a.13.13,0,0,0-.13.13v6.55a.13.13,0,0,0,.13.13h1.16a.13.13,0,0,0,.13-.13V24.86a4,4,0,0,1,.14-1.15,1.7,1.7,0,0,1,.39-.65,1.51,1.51,0,0,1,.54-.33,2.19,2.19,0,0,1,.59-.08,2.4,2.4,0,0,1,.48.06c.08,0,.13,0,.16-.12s.29-.8.33-.92"/><path class="cls-2" d="M45.09,18.64l-.43-.1a3.42,3.42,0,0,0-.59-.05,2.52,2.52,0,0,0-1.86.67,3.54,3.54,0,0,0-.88,2l-.06.29h-1a.16.16,0,0,0-.15.13l-.16.91c0,.09,0,.14.14.14h1l-1,5.49a6.48,6.48,0,0,1-.27,1.08,2.18,2.18,0,0,1-.3.63.87.87,0,0,1-.4.31,1.72,1.72,0,0,1-.52.07,1.34,1.34,0,0,1-.35,0,1.15,1.15,0,0,1-.24-.07.12.12,0,0,0-.16.07l-.32.89a.13.13,0,0,0,.06.17,2.56,2.56,0,0,0,.41.12,2.46,2.46,0,0,0,.64.06,3.16,3.16,0,0,0,1.07-.17,2,2,0,0,0,.82-.56,2.93,2.93,0,0,0,.56-1,7.57,7.57,0,0,0,.39-1.47l1-5.6h1.44a.14.14,0,0,0,.15-.12l.16-.92c0-.08,0-.14-.14-.14h-1.4a6.55,6.55,0,0,1,.23-1,1.33,1.33,0,0,1,.31-.46.82.82,0,0,1,.36-.23,1.43,1.43,0,0,1,.48-.07,1.88,1.88,0,0,1,.36,0l.22.05c.14,0,.16,0,.19-.07l.34-.92a.12.12,0,0,0-.09-.15"/><path class="cls-2" d="M25.5,28.13a.12.12,0,0,1-.12.13H24.21a.12.12,0,0,1-.12-.13V18.77a.13.13,0,0,1,.12-.14h1.17a.13.13,0,0,1,.12.14v9.36Z"/></g></g></svg>