<svg xmlns="http://www.w3.org/2000/svg" viewBox="0 0 193.53 34.9"><defs><style>.cls-1{fill:#231f20;}.cls-2{fill:#0096a2;}.cls-3{fill:#fff;}</style></defs><title>twosigma</title><g id="Layer_2" data-name="Layer 2"><g id="Layer_1-2" data-name="Layer 1"><polygon class="cls-1" points="49.74 11.39 43.67 11.39 43.67 8.77 58.74 8.77 58.74 11.39 52.67 11.39 52.67 26.19 49.74 26.19 49.74 11.39"/><polygon class="cls-1" points="61.48 8.77 64.64 8.77 68.67 22 72.51 8.77 75.25 8.77 79.03 22 79.09 22 83.06 8.77 86.22 8.77 80.7 26.19 77.54 26.19 73.83 13.42 70.16 26.19 66.99 26.19 61.48 8.77"/><path class="cls-1" d="M96.22,8.42a8.52,8.52,0,0,1,8.87,8.9c0,5.55-3.84,9.19-8.87,9.19s-8.94-3.64-8.94-9.19A8.58,8.58,0,0,1,96.22,8.42Zm0,15.48c3.22,0,5.84-2.42,5.84-6.55,0-3.9-2.55-6.35-5.84-6.35s-5.84,2.42-5.84,6.35C90.38,21.45,92.93,23.9,96.22,23.9Z"/><polygon class="cls-1" points="130.63 8.77 133.57 8.77 133.57 18.16 133.57 26.19 130.63 26.19 130.63 16.45 130.63 8.77"/><path class="cls-1" d="M146.34,8.42a10.52,10.52,0,0,1,6.19,2,16.52,16.52,0,0,1-1.8,2,8,8,0,0,0-4.29-1.29c-3.55,0-5.9,2.55-5.9,6.29,0,4,2.22,6.55,5.9,6.55a7.7,7.7,0,0,0,3.48-.81V18.9h-4.35V16.68h7.13v8a11.23,11.23,0,0,1-6.33,1.91c-5.45,0-8.87-3.71-8.87-9.2A8.47,8.47,0,0,1,146.34,8.42Z"/><polygon class="cls-1" points="156.89 8.77 159.92 8.77 165.63 16.93 171.34 8.77 174.37 8.77 174.37 26.19 171.47 26.19 171.47 13.16 165.63 21.39 159.79 13.16 159.79 26.19 156.89 26.19 156.89 8.77"/><path class="cls-1" d="M183.6,8.77h3.48l6.45,17.42h-3.22L189,22.42h-7.32l-1.35,3.77h-3.23ZM182.5,20h5.64l-2.8-8.16h-.07Z"/><path class="cls-1" d="M115.18,22.42a9.61,9.61,0,0,0,5,1.42c2.29,0,3.42-.94,3.42-2.36,0-3.9-9.81-1.35-9.81-8,0-2.77,2.36-5,6.26-5a12.85,12.85,0,0,1,6.39,1.61l-1.94,2a9.94,9.94,0,0,0-4.35-1c-2,0-3.16,1-3.16,2.35,0,3.9,9.74,1.23,9.74,8,0,2.84-2.16,5.07-6.52,5.07a13.3,13.3,0,0,1-7-2.1Z"/><polygon class="cls-2" points="17.32 0 0 17.48 17.32 34.9 34.74 17.48 17.32 0"/><path class="cls-3" d="M8.19,22.42c-.13-5.62,6.52-4.87,6.52-7.71,0-.94-.68-1.74-2.29-1.74a4.85,4.85,0,0,0-3.16,1.35L8.06,13.1a6.56,6.56,0,0,1,4.45-1.84c2.75,0,4.17,1.55,4.17,3.38,0,4.26-6.46,3.52-6.46,7h6.39v1.67H8.23v-.93Z"/><path class="cls-3" d="M21.64,22c-1.29,0-2.09-.81-2.09-2.42,0-2,1.35-3.84,3-3.84,1.29,0,2.1.81,2.1,2.42C24.58,20.19,23.26,22,21.64,22Zm8.13-7.84H22.64a5.07,5.07,0,0,0-5,5.39,3.63,3.63,0,0,0,3.84,4,5.16,5.16,0,0,0,5.1-5.38,4.06,4.06,0,0,0-.75-2.52h2.49Z"/></g></g></svg>