<?xml version="1.0" standalone="no"?>
<!DOCTYPE svg PUBLIC "-//W3C//DTD SVG 20010904//EN"
 "http://www.w3.org/TR/2001/REC-SVG-20010904/DTD/svg10.dtd">
<svg version="1.0" xmlns="http://www.w3.org/2000/svg"
 width="512.000000pt" height="512.000000pt" viewBox="0 0 512.000000 512.000000"
 preserveAspectRatio="xMidYMid meet">
<metadata>
Created by potrace 1.11, written by Peter Selinger 2001-2013
</metadata>
<g transform="translate(0.000000,512.000000) scale(0.100000,-0.100000)"
fill="#000000" stroke="none">
<path d="M2127 4348 c-5 -3 -9 -21 -8 -40 1 -18 2 -40 2 -48 -2 -39 1 -105 4
-108 2 -2 0 -16 -5 -31 -4 -16 -4 -34 0 -41 4 -7 4 -25 0 -40 -4 -15 -4 -33 0
-40 4 -7 4 -25 0 -40 -4 -15 -4 -33 0 -40 4 -7 5 -24 1 -38 -4 -14 -4 -47 -1
-74 4 -26 3 -48 -2 -48 -5 0 -4 -9 2 -20 6 -12 7 -20 1 -20 -6 0 -6 -11 -1
-29 4 -16 6 -32 3 -35 -5 -5 -5 -45 0 -169 1 -26 -2 -47 -6 -47 -4 0 -3 -9 3
-20 6 -12 7 -20 1 -20 -6 0 -6 -11 -1 -29 4 -16 6 -32 3 -35 -3 -3 -5 -31 -3
-63 2 -67 3 -88 1 -123 -1 -14 -1 -34 -1 -45 0 -11 0 -37 0 -57 l-1 -38 -47 0
c-26 -1 -334 -1 -684 -1 l-638 1 0 -455 0 -455 23 -1 c12 0 321 -1 687 -2 733
-2 673 4 659 -65 -4 -17 -3 -34 1 -37 5 -3 5 -17 1 -32 -4 -14 -4 -48 -1 -75
4 -26 3 -48 -2 -48 -5 0 -4 -9 2 -20 6 -12 7 -20 1 -20 -6 0 -6 -11 -1 -29 4
-16 6 -32 3 -35 -5 -5 -5 -45 0 -169 1 -26 -2 -47 -6 -47 -4 0 -3 -9 3 -20 6
-12 7 -20 1 -20 -6 0 -6 -11 -1 -29 4 -16 6 -32 3 -35 -3 -3 -5 -31 -3 -63 2
-66 3 -86 1 -126 -2 -62 -3 -83 -2 -97 1 -8 1 -26 0 -40 0 -14 0 -32 0 -40 1
-8 1 -26 0 -40 -1 -32 -1 -58 0 -90 1 -14 2 -56 2 -94 0 -39 2 -72 4 -75 2 -4
203 -6 447 -6 l443 0 3 676 2 676 669 0 c368 0 673 3 677 6 5 3 9 206 9 454
l0 448 -495 2 c-272 1 -577 3 -677 3 l-183 0 0 670 c0 529 -3 670 -12 671 -66
5 -872 2 -881 -3z"/>
</g>
</svg>
