<svg xmlns="http://www.w3.org/2000/svg" viewBox="0 0 947.16 286.28"><defs><style>.cls-1{fill:#fff;}</style></defs><title>amazon_1</title><g id="Layer_2" data-name="Layer 2"><g id="Layer_1-2" data-name="Layer 1"><path class="cls-1" d="M0,110.77c1.06-.16,1.13-1.06,1.33-1.84,5.74-22.48,21.67-33.79,43-39,12-2.94,24.27-4.19,36.54-5.15,4.12-.32,6.08-1.58,5.37-6-.37-2.28,0-4.66-.1-7-.38-11.53-5.7-18.22-15.79-19.87C58.7,30,47.8,35.53,44.07,45.3c-.65,1.71-1,3.55-1.63,5.23-1.2,2.94-3.26,4.35-6.66,3.92-8.1-1-16.22-1.81-24.33-2.71C5.59,51.1,3.92,48.8,5.26,43,8.91,27.05,17.91,15,32.72,8.2c21.84-10,44.44-10.87,67-2.5,17,6.29,26.14,18.92,27.32,37,1.38,21,.47,42,.38,62.93-.06,11.64,2.38,21.95,10,31,4.34,5.15,3.75,7.31-1.34,11.67C130,153.54,124,158.79,118,164c-4.72,4.08-7.07,4.05-11.68.06a50.59,50.59,0,0,1-11-12.82c-2.11-3.66-3.59-4.2-6.74-.88-13.92,14.65-31.4,19.25-51,17.36C20,166.05,7.09,155.38,2,138.6c-.5-1.65-.14-3.72-2-4.83Zm86.19-10.43c0-3.42-.16-6.09,0-8.74.23-3-.72-4.06-3.91-3.87-7,.4-14,1-20.61,3.28-15.07,5.15-22.15,18.86-17.81,34.16C47,136,56.67,141,67.31,137.15a24.1,24.1,0,0,0,11.26-8.73C84.94,119.82,86.44,109.93,86.19,100.34Z"/><path class="cls-1" d="M199.84,26.37c8.91-15.24,20.61-24.6,38.65-24.71,19-.12,30.64,10,37.89,26.64,2.28-1.13,2.47-3.51,3.45-5.27,13.86-25,50.86-28.91,69.59-7.37,7.22,8.31,9.35,18.38,9.4,28.84.19,38.15,0,76.31,0,114.47,0,5.1-1.82,6.89-6.94,6.93q-13,.1-26,0c-5.76,0-7.58-1.68-7.58-7.39,0-26.83.07-53.66.08-80.48,0-7,.05-14-.31-21-.52-10.34-5.11-16-13.38-17.19-10.08-1.44-18.88,3.74-22,13.15-2.44,7.39-2.47,15.1-2.49,22.76-.07,27.33,0,54.66,0,82,0,7-1.17,8.14-8.11,8.15-8.17,0-16.33,0-24.5,0-6.1,0-7.66-1.55-7.66-7.71q0-44.74.1-89.49c0-5.84-.25-11.66-2-17.29-2.35-7.59-6.79-11.29-14.22-12-8.16-.78-14.28,2.31-17.83,9.23-3,5.92-3.94,12.36-4,18.9q-.16,44.73-.19,89.48c0,7.73-1.18,8.89-9,8.89-8.16,0-16.33,0-24.5,0-5.13,0-7-1.77-7-6.9q-.06-73.48,0-147c0-5.33,1.93-7.06,7.36-7.1q12-.07,24,0c5.4,0,7.09,1.77,7.17,7.22C199.9,16.88,199.84,21.63,199.84,26.37Z"/><path class="cls-1" d="M511.93,80.69c0,9.66.19,19.33-.06,29a37.9,37.9,0,0,0,8.11,24.6c6.5,8.6,6.33,9-2,16.06-5.45,4.64-10.81,9.4-16.25,14-4.21,3.6-6.66,3.53-10.91-.08a55,55,0,0,1-11.69-13.59c-1.94-3.25-3.26-3.65-6.06-.67-14,14.91-31.59,19.62-51.4,17.66-22.18-2.19-36.65-18.63-37.51-42.51-.94-26.11,12.76-45.52,37.83-53.43,13.91-4.39,28.35-5.81,42.78-7,4.61-.36,6.7-1.68,5.93-6.52-.39-2.44-.11-5-.35-7.47C469,36.46,460,29.45,445.75,31.93c-9.28,1.62-15.75,6.73-18.37,16.15-1.72,6.17-2.79,6.71-9.25,6-7.45-.84-14.91-1.53-22.36-2.33-6-.64-7.55-2.86-6.23-8.66,4.45-19.45,16.7-31.86,35.22-38.14a89.26,89.26,0,0,1,51.71-1.84c23,5.9,34.26,20,35.23,44.11.45,11.15.08,22.33.08,33.49ZM470.68,99.78c0-3-.12-6,0-9,.13-2.48-.92-3.15-3.25-3.06-8,.3-16,1.08-23.5,4a27.13,27.13,0,0,0-14.55,36.86c2.61,5.51,6.91,8.94,13.08,9.53,10.22,1,17.06-4.32,22.18-12.44C469.68,117.79,470.41,108.82,470.68,99.78Z"/><path class="cls-1" d="M865.79,30.21c1.62-3.09,3.21-6.2,4.86-9.28,14.51-27.1,56.08-24.08,69.07-1.22,5.29,9.3,7,19.51,7.07,29.83.38,36.66.27,73.32.37,110,0,4.36-2.09,6.4-6.42,6.39-8.67,0-17.34,0-26,0-6.6,0-7.89-1.34-7.88-7.9q0-44.49,0-89a64,64,0,0,0-1.68-15.85C903,44.49,898.54,40.06,891,39c-7.1-1-14.26,2.79-18.2,9.85-4.77,8.56-5.77,18-5.79,27.57,0,24.84-.08,49.67,0,74.5.06,15.62.58,15.1-15,15-5.83-.05-11.66,0-17.5,0-6.51,0-7.83-1.39-7.83-8q0-71.74,0-143.49c0-1.17,0-2.33,0-3.5,0-3.89,2-6,5.77-6,8.83-.09,17.66-.11,26.49,0,4.06,0,5.94,2.34,5.88,6.44-.1,6.25,0,12.51,0,18.77Z"/><path class="cls-1" d="M805,86.57c-.36,20.92-5,40.64-17.76,58.05-24.72,33.68-81.06,34.34-102.75-6.83-18-34.19-18-69.68-.5-104.13,11-21.76,30.23-32.24,54.75-31.9,24.72.33,42.8,11.93,54.54,33.51C801.93,51.19,804.67,68.51,805,86.57Zm-43.64-1.26c0-2,0-4,0-6-.25-11.33-1-22.61-4.72-33.44C754,38.34,749,33.6,740.75,32.77c-8.74-.88-15.2,2.55-19.42,10.19a41.47,41.47,0,0,0-4.39,13.18C714.53,70,714.75,84,715.54,97.93c.54,9.49,1.58,18.91,5.52,27.71,4.76,10.64,14,14.94,23.94,11,6.31-2.51,9.76-7.77,12-13.89C761.59,110.63,761.13,97.92,761.36,85.31Z"/><path class="cls-1" d="M296,240.55c34,7,68.5,9.64,103.18,9a475.54,475.54,0,0,0,77.82-8.2,480.06,480.06,0,0,0,101.36-30.16,11.6,11.6,0,0,1,8.28-.7c5.21,1.65,6.87,6.75,3.42,11-3.19,4-7.69,6.29-11.8,9-25.91,17.25-54.09,29.44-83.79,38.6A382.65,382.65,0,0,1,381,286.28a356.79,356.79,0,0,1-83.6-9.93C241.89,263,191.75,238.62,147.76,202c-3.95-3.28-7.94-6.53-11.74-10-2.12-1.92-4.26-4.38-2.09-7.33s5.08-2.27,8-.59C163.43,196.62,186,206.9,209,216.28a13.82,13.82,0,0,0,2.92.51c3.73,2.14,7.57,4,12,4.13,6.37,3.59,13.54,4.9,20.39,7.08,8.45,2.68,16.86,5.61,25.72,6.75A112.05,112.05,0,0,0,296,240.55Z"/><path class="cls-1" d="M598.23,112.92c14.22.43,27.47,1.37,40.19,5.8a108.14,108.14,0,0,1,13.27,5.73,10.46,10.46,0,0,1,6.12,10c0,7,.11,14,0,21-.11,5.67-3.51,7.7-8.66,5.26q-49.41-23.3-98.74.1c-4.95,2.35-8.35.5-8.46-4.91-.17-8.49-.09-17,.13-25.48.12-4.79,2.2-8.94,4.94-12.86q26.64-38.06,53.11-76.24c.8-1.14,2.66-2.21,1.78-3.74s-2.75-.61-4.16-.62c-14.33-.05-28.66,0-43,0-5.74,0-7.4-1.64-7.48-7.42-.08-6-.1-12,0-18,.11-5.25,1.79-6.92,6.93-6.93q47,0,94,0c4.56,0,6.81,2,6.78,6.6,0,5.33-.07,10.67,0,16,.06,4.67-2.56,8.16-5,11.7q-24.46,35-49,70C600.2,109.9,599.51,111,598.23,112.92Z"/><path class="cls-1" d="M561.9,178.74l1.15-.22c4.19-1,8.5-1.65,12.41-3.63l2.55-.33c4.43.08,8.73-.9,13-1.78,10.64,0,21.32-.49,31.8,2.06a33.19,33.19,0,0,1,4.34,1.09c8.12,3.19,9.13,4,8.73,12.81-1.29,28.37-10.69,53.44-31.24,73.72a13.42,13.42,0,0,1-2.29,1.91c-1.9,1.17-4,2.17-6,.35s-.92-3.66-.17-5.53c4.93-12.3,9.87-24.62,13.08-37.51,1.45-5.77,3.22-11.51,2.71-17.64-.48-5.71-2.64-8.2-8.13-9.52-13.21-3.19-26.45-1.82-39.71-.61-6,.55-11.91,1.15-17.88,1.62-2,.16-4.21.18-5.1-2s1-3.25,2.31-4.52c2.73-2.74,6.37-4.08,9.47-6.24A26,26,0,0,0,561.9,178.74Z"/></g></g></svg>