<svg xmlns="http://www.w3.org/2000/svg" viewBox="0 0 933.61 176.33"><defs><style>.cls-1{fill:#fff;}</style></defs><title>disney_2</title><g id="Layer_2" data-name="Layer 2"><g id="Layer_1-2" data-name="Layer 1"><path class="cls-1" d="M0,14.33C3.36,5.85,10.78,3.84,18.68,2.3,51.2-4,81.47,3.27,110.36,17.78,125.54,25.4,140.3,33.89,152,46.63c8.62,9.36,16.12,19.46,20.05,31.72,5,15.77-.37,28.74-11.73,39.62-11,10.53-24.64,15.36-39.49,17.09a113,113,0,0,1-36.18-1.37,25.88,25.88,0,0,0-2.92-.23c-.37,4.91-2.39,8.16-7.81,8-2.62-.06-4.68-.82-5.66-3.39-.76-2-1.78-4-2-6-.37-4.31-2.88-6.52-6.4-8.44-11-6-21.08-13.36-29.14-23.17-7.86-9.56-7.09-14.47,3.34-21.1,8.7-5.52,18.49-8,28.38-10.21,1.32-.3,2.63-.63,3.6-.87,1.22-8.58,2.28-16.87,3.68-25.09.34-2,1.85-3.81,2.82-5.71,1.79,1.61,4.67,2.93,5.18,4.88,1.54,5.86,2.2,11.95,3.11,18,.3,1.95.31,3.94.48,6.18,6.08.36,11.9.63,17.71,1.08,10.51.81,20.41,3.55,29,10,4,3,6.11,7,5.07,12.07a11.87,11.87,0,0,1-9.31,9.73c-3,.67-6.22.12-9.35.12l-.22-1.26,8-8.53c-2.52-1.28-4.25-2.68-6.18-3.06-10.5-2.06-21-3.9-31.59-5.76-3-.52-3.3,1.7-3.35,3.75-.11,4.75-.13,9.5,0,14.24.13,6.37.5,12.74.58,19.11,0,2.16.8,3.22,2.89,3.52,16.52,2.38,32.89,2.47,48.74-3.66a66.41,66.41,0,0,0,10-5c15.13-9.1,17.07-25.91,10.32-39.32-7.46-14.83-19.07-26.19-33.11-34.95C97.89,24.41,73.6,14.39,46.92,11.81c-11.47-1.11-23.17.14-34.76.44a8.13,8.13,0,0,0-4.64,2.13,33.2,33.2,0,0,1,4.29,1.68c.75.4,1.22,1.33,1.82,2-.77.48-1.58,1.42-2.31,1.36C7.54,19.13,3.77,18.56,0,18.08ZM66.33,81.44c-7.67,1.13-14.47,1.92-21.18,3.19a83.35,83.35,0,0,0-12.52,3.56C30.5,89,29,90.63,31,93.12c8.59,10.9,19.87,17.79,33.66,22.71C65.22,104.34,65.75,93.37,66.33,81.44Z"/><path class="cls-1" d="M371.25,176.33a7.89,7.89,0,0,0-1.12-.9c-5.95-3.28-8.7-8-8.07-15.07,1.16-12.92,4.69-25.25,8.81-37.44,1.61-4.76,2.43-9,.85-14.29-2.5-8.37-.66-17.11,3.46-24.68,3.71-6.85,8.76-13,13.33-19.33.83-1.15,2.24-1.88,3.9-3.21A14.62,14.62,0,0,1,391.22,72c-2.08,4.53-4.68,8.82-6.76,13.35C382.75,89,381.4,92.92,380,96.78a15.35,15.35,0,0,0-.42,3.48l.89.49L386,94.92C392.44,88,398.82,81,405.5,74.26a30.68,30.68,0,0,1,7.75-5.17c4.21-2.18,7.25-1.36,10.21,2.34C430,79.58,430.65,89.1,426.9,98c-6.62,15.71-18.47,25.86-36,27.84-3.1.35-4.69,1.58-5.44,4.54C382,143.91,378.48,157.43,375,171c-.46,1.8-1,3.58-1.49,5.38Zm24-66.29c11.15.14,23-9.71,24.7-20.52a25,25,0,0,0-.22-8.09c-.33-1.94-1.9-2.65-3.56-.93A122.16,122.16,0,0,0,395.29,110Z"/><path class="cls-1" d="M849.11,45.05c-.09-1.74-.16-3-.23-4.34a5.41,5.41,0,0,1,1.46-.45q25.81.5,51.62,1a9.93,9.93,0,0,1,2.2.42c14.07,3.63,18.06,14.85,9.39,26.48-3,4-6.12,7.92-10,12.87l30,41.34c-5.29,2.09-9.71,1.46-13.54-2.53q-13.87-14.44-27.85-28.8c-1.82-1.89-3.38-4.25-5.58-5.46a10.25,10.25,0,0,0-6.58-.63c-.85.18-1.62,2.82-1.66,4.35-.16,6.49.12,13-.07,19.48-.12,4.07,1.48,6,5.54,5.86.5,0,1,.14,1.49.12,3.76-.19,5.59,1.52,5.33,5.58H849c-.11-4.91.25-5.29,5-5.56,1.24-.07,2.48-.21,3.72-.38,1-.14,1.92-.39,3.85-.79,0-9.41.08-18.88,0-28.35-.12-12-.46-24-.54-36,0-2.59-.88-3.52-3.44-3.54C854.86,45.78,852.14,45.34,849.11,45.05ZM878.39,78c6,.06,12.9-2.34,17-5.79,6-5.06,7-15.52,1.77-20S885.36,46.24,878.39,46Z"/><path class="cls-1" d="M746.53,120.33c-.9-3.9,1-5.49,4.29-5.48,4.43,0,6.64-1.95,8.22-6.21C766.31,89,774,69.49,781.48,49.93c.44-1.13.73-2.31,1-3.36-2.82-2.11-9.55.87-7.43-6.61h37.6c.28,4.57.28,4.57-7.46,6.27a11.3,11.3,0,0,0,.35,2.08C813.1,68.53,820.74,88.7,828.07,109c1.45,4,3.67,5.8,7.76,5.74,3.64-.06,5.61,1.58,5.21,5.68H799.87c-.24-3.68,1.12-5.67,5-5.66a41.19,41.19,0,0,0,6.13-.93c-3.44-9.86-6.75-19.35-10.16-29.1-7.42.36-14.64.65-21.85,1.14a3.23,3.23,0,0,0-2.27,1.92c-2.26,8.53-4.35,17.11-6.59,26.12,2.46.39,4.53.37,6.28,1.11,1.36.58,2.32,2.1,3.46,3.2-1.09.71-2.17,2-3.26,2C766.68,120.4,756.71,120.33,746.53,120.33Zm42.86-68.56c-3.34,9.06-6.27,17-9.5,25.77h18.32C795.36,69.19,792.56,61,789.39,51.77Z"/><path class="cls-1" d="M742.39,123.42c-5.21,2.27-9.59,2.08-13.46-2.2-9.72-10.73-19.56-21.35-29.33-32-1-1.09-1.93-2.24-3.37-3.92l-17.61,28.36c3.78,1.73,9.54,0,8.59,6.71H654.46c.42-3.14,1.51-4.82,4.56-5.74a15.71,15.71,0,0,0,7.22-4.29c8.11-9.49,15.91-19.25,23.67-29a3.79,3.79,0,0,0-.15-3.53C682.5,68.07,675.19,58.41,667.61,49c-1.34-1.68-3.88-2.7-6.06-3.31-3-.83-4.27-2.31-3.78-5.48H696c.07,6.5-5,4.9-8.86,6.19l14.57,21.22c5-7.39,9.53-14.09,14.52-21.45-2.35-.45-3.77-.36-4.67-1-1.14-.8-1.86-2.19-2.77-3.32,1-.66,1.94-1.89,2.92-1.91,8.86-.15,17.72-.09,26.73-.09.74,3.38-.27,5.45-3.75,5.87a12.71,12.71,0,0,0-8.44,5c-5.6,6.71-11.26,13.38-17,19.94-2.05,2.33-2.27,4.07-.3,6.71,10.36,13.93,20.51,28,30.72,42.06C740.58,120.71,741.45,122.05,742.39,123.42Z"/><path class="cls-1" d="M554.84,87.82c-1.39-4-.16-5.84,3.42-7.12C568.67,77,573,69,571,58.33c-1.47-7.76-9.55-13.42-17.28-11.94a3.26,3.26,0,0,0-1.87,2.18,24.53,24.53,0,0,0-.4,5.22q0,26.06,0,52.1c0,2.6.36,5.19.56,8,3.47.31,6.67.7,9.88.88,3,.17,4.61,1.55,4.41,5.25H522.39c-.86-3.75,1-4.89,3.88-5.21,2.46-.27,4.92-.57,7.69-.89.23-2.85.65-5.56.64-8.26-.1-18.5-.35-37-.37-55.48,0-3.23-1.08-4.55-4.24-4.47-1.23,0-2.47-.44-3.71-.5-3.64-.18-4.8-2.11-4.07-5.49.2-.15.4-.42.59-.41,16.19.64,32.42,1,48.58,2.15,7.46.55,14.28,4,16.66,11.93,2.51,8.38-.21,15.85-6.27,21.92C574.42,82.73,565,85.71,554.84,87.82Z"/><path class="cls-1" d="M210.77,82c3.36.7,6.69,1.61,10.09,2.06,6.81.9,13.66,1.46,20.47,2.33A22.78,22.78,0,0,1,247.82,88c5.14,2.29,9.79,5.14,10.37,11.61.68,7.56.06,14.27-7.4,18.91-9.92,6.18-29.17,7.94-41-1.64a24.66,24.66,0,0,1-5.23-5.79c-3.67-5.74-.91-12.91,5.82-14.25a50.71,50.71,0,0,1,28,2c1.45.54,2.47,2.21,3.69,3.35-1.35,1.15-2.62,3.16-4.05,3.27a64.79,64.79,0,0,1-13.21-.23c-3.55-.45-6.93-2.08-10.46-2.78-2.56-.51-5.79-.73-6.36,2.76s2.42,4.52,5.05,4.86a57.34,57.34,0,0,0,32.16-4.68c1.55-.73,3.6-3,3.41-4.21a6.58,6.58,0,0,0-3.83-4.43,95.73,95.73,0,0,0-15.23-3.58c-7.16-1.06-14.41-1.45-21.6-2.36-7.78-1-11-7.38-6.73-14.07a19.79,19.79,0,0,1,7.54-7C224,62.34,240,61.91,256.17,66.13c1.46.38,2.63,1.88,3.93,2.87-1.37,1.47-2.53,3.9-4.15,4.26-5.58,1.24-11.32,1.76-17,2.56-8.28,1.16-16.55,2.3-24.82,3.53a17.41,17.41,0,0,0-3.36,1.22Z"/><path class="cls-1" d="M301.73,101.83c-.45-4.24-.57-8.55-1.4-12.71-2-10-4.44-20-6.53-30-.28-1.37.41-2.94.65-4.42,1.42.6,3.26.81,4.21,1.84,8.36,9.07,13.61,19.78,14.68,32.06a95.38,95.38,0,0,1-.83,20c-.56,4.4-3.35,7.93-7.53,10.16-3.06,1.63-5.92,1.65-8.13-1a135.1,135.1,0,0,1-10.41-13.59c-3.42-5.31-6.18-11-9.22-16.59l-1,.09c-.31,2.09-.76,4.18-.92,6.28-.57,7.34-1,14.7-1.59,22-.26,3.21-.37,6.86-4.61,7.52-2.59.41-6.4-3.33-6.49-7.19a136.46,136.46,0,0,1,.88-21.59c.94-6.86,3.13-13.56,4.81-20.32a10.26,10.26,0,0,1,.89-2c2.81-5.55,5.1-6.1,8.88-1.16,6.05,7.92,11.53,16.28,17.28,24.43,1.59,2.25,3.3,4.42,4.95,6.63Z"/><path class="cls-1" d="M339.74,86.5c4.22.21,8.42.34,12.6.66,2.38.19,4.84.49,5.35,3.61.58,3.49-.79,5.62-4.41,6-4.71.47-9.46.72-14.2.77-2.74,0-4.49.87-5.25,3.63s-1.64,5.18-2.79,8.75c5.36-.79,9.95-1.52,14.56-2.11a86.15,86.15,0,0,1,8.92-.8c2.43-.06,4.77,1,4.91,3.6.1,1.81-.57,4.43-1.86,5.41-8.34,6.3-17.12,11.63-28.3,10.91-3.3-.22-5.8-1.3-7.7-3.83-3.79-5.07-5.23-10.44-3.17-16.85,1.45-4.53,1.66-9.46,2.66-14.16a5.44,5.44,0,0,1,2.23-3.38c3.71-2,5-5.47,5.95-9.09.23-.84-.95-2.44-1.9-3.12-1.69-1.22-3.87-1.77-5.5-3-1-.81-2.21-2.56-2-3.62s2.14-2,3.44-2.16q11.46-1.74,23-3c3.46-.41,7-.52,10.46-.59,4.73-.08,8,2.49,10.33,6.33,2,3.23,1.23,5.33-2.47,6-4.52.84-9.15,1.13-13.73,1.62-1,.11-2,.07-3,.1C340.59,78.32,340.59,78.32,339.74,86.5Z"/><path class="cls-1" d="M600.93,40.36c14.1-1.31,28.12-.28,42.08-.65.3,3.69-1,5.19-4.52,5.68-7.53,1-7.63,1.26-7.66,9-.06,18.74,0,37.48,0,56.23,0,1,.11,2,.2,3.32,2.26.29,4.47.89,6.63.77,3.91-.21,5.51,1.51,5.37,5.38H600.57c1.26-8,8.13-3.89,12.08-7.11,0-.33.2-1.52.21-2.71.19-19.49.4-39,.52-58.47,0-5.46-.11-5.49-5.61-6.11C602.06,45.08,602,45,600.93,40.36Z"/><path class="cls-1" d="M200.31,9.91c5,.08,9.6.58,12.92,4.87.66.85,2.15,1.16,3.31,1.54,7.45,2.38,10,7.61,6.8,14.87-4,9.12-11.53,14.91-19.9,19.67-6.55,3.73-13.57,5-20.94,2.82-2.23-.65-3.64-.33-5,1.79-.72,1.14-2.82,2.47-3.79,2.16-1.31-.42-2.51-2.2-3.09-3.66-1.34-3.39-2.11-7-3.43-10.41-2.29-6-1.95-11.64,1.85-16.72C176.87,16.41,187,9.94,200.31,9.91Zm-14.7,32.87.54,1.29c4.31-.46,8.75-.43,12.91-1.5,7.14-1.84,13.72-5,16.83-12.39.64-1.52.82-4.29-.07-5.14a7,7,0,0,0-5.64-1.55C199.18,26.34,192,34.13,185.61,42.78Zm-11.45-4.56,15-16.09C181.12,23.17,174.21,30.27,174.16,38.22Z"/><path class="cls-1" d="M180,99.48c.76-9.18,1.39-18.38,2.34-27.54.28-2.73.57-6.53,4.17-6.63s4.45,3.67,4.87,6.53c.92,6.15,1.64,12.36,2,18.56.53,9.34.49,18.71,1.05,28,.24,3.86-1.36,5.53-4.79,6.08-4.41.71-7.41-.74-8.11-4.51a81,81,0,0,1-.93-11.14c-.14-3.11,0-6.23,0-9.35Z"/><path class="cls-1" d="M484.28,83.65c.1,3.45-3.08,6.42-6.88,6.45a6.08,6.08,0,0,1-6.32-6,6.61,6.61,0,0,1,6.3-7A7,7,0,0,1,484.28,83.65Z"/></g></g></svg>