<svg xmlns="http://www.w3.org/2000/svg" viewBox="0 0 849.01 241.88"><defs><style>.cls-1{fill:#fff;}</style></defs><title>github</title><g id="Layer_2" data-name="Layer 2"><g id="Layer_1-2" data-name="Layer 1"><path class="cls-1" d="M147.51,178.85c5.08-1,10.17-1.85,15.15-3.12,22.1-5.65,35.29-19.65,39.06-42.27,2.84-17,1.63-33.19-9.89-47.28-.89-1.09-1-3.42-.54-4.94,2.35-8.65,1.49-17.08-.88-25.58-1-3.51-2.95-5-6-3.9C176,54.84,167.62,58,159.63,61.85c-3.39,1.64-6.12,2.3-9.77,1.45a112.48,112.48,0,0,0-51.45,0c-3.92.92-6.77,0-10.23-1.71a250.18,250.18,0,0,0-23.3-9.76c-3.89-1.45-6.35.29-7.43,4.66-2.07,8.41-2.56,16.68-.57,25.19a8,8,0,0,1-1.65,6c-17.3,20.41-11.06,64.05,9.49,78.45,9.12,6.39,19.2,9.72,29.93,11.66,2,.35,3.93.67,5.37.91-2,5.06-4,10.09-6.08,15a5.55,5.55,0,0,1-2.53,2.62c-12.54,5.64-25.66,1.71-33.09-10.06-3.48-5.51-7.62-10.13-13.79-12.5-3.72-1.42-7.56-2.31-13,2.48,1.91,1,4.24,1.62,5.64,3.11,4.47,4.79,10.22,9.25,12.54,15,7.34,18.22,23.45,20.93,38.08,19.09,1.61-.2,3.21-.5,5.42-.86,0,8.38.31,16.33-.12,24.24-.24,4.4-4.35,6-9.74,4.18A116.62,116.62,0,0,1,46.85,221C-7.86,176.77-16.1,97.57,29.77,44.25,63,5.6,106.22-8.25,155.45,4.75c50.26,13.26,81.19,47.3,90.41,98.58,10.67,59.34-22.79,116.25-78.44,136.84a30.63,30.63,0,0,1-3.76,1.34c-5.59,1.34-8.71-1-8.75-6.77-.07-8.83,0-17.66,0-26.49C154.89,192.39,154.76,191.86,147.51,178.85Z"/><path class="cls-1" d="M367,166V136.89c-5.5,0-10.78-.11-16.05,0-3,.09-4.15-1.06-4.09-4.09q.23-9.74,0-19.49c-.08-3.16,1.42-4,4.23-4,14.33,0,28.66.07,43,0,3.19,0,4.44,1.23,4.43,4.43-.07,22.49-.11,45,0,67.48,0,3.8-2.27,5.18-5,6.56-16.69,8.36-34.46,10.14-52.57,7.5-30.07-4.38-46.09-20.64-51-51-3.24-20-2.65-39.86,3.16-59.34,7.39-24.77,25.49-38.9,51.26-40.11,14.34-.67,28.65-.4,42.42,4.58,6.19,2.24,6.39,2.67,4.87,9C390.37,63.63,389,68.78,388,74c-.72,3.72-2.27,4-5.89,3.44C371.79,76,361.3,74,351,74.56c-16.7,1-25.5,9.48-29.11,25.91-3.4,15.53-3.43,31.12,1.62,46.36,4.45,13.43,13.71,19.94,27.78,19.92C356.42,166.75,361.53,166.25,367,166Z"/><path class="cls-1" d="M607.87,131.74H566.8v5.48q0,25,0,50c0,6.18-.16,6.34-6.53,6.36-6.17,0-12.34-.26-18.49.09-4.86.27-6.32-1.55-6.3-6.31.16-32.82.08-65.64.08-98.46,0-11.16.12-22.33-.06-33.48-.06-4,1.17-5.7,5.45-5.51,7,.31,14,.22,21,0,3.72-.1,5,1.35,4.92,5-.13,15-.06,30,0,45,0,1,.14,2,.25,3.35h40.81V97.76c0-14.16.14-28.33-.08-42.48-.07-4.25,1.44-5.52,5.49-5.37,6.82.24,13.66.22,20.49,0,3.8-.11,5.29,1,5.28,5.09q-.18,66.72,0,133.44c0,4-1.54,5.26-5.31,5.17-6.83-.17-13.66-.2-20.49,0-4,.12-5.5-1.25-5.45-5.45.21-16.83.08-33.66.08-50.48Z"/><path class="cls-1" d="M779,186c.38,7.08-3.31,8-8.36,7.59a81.59,81.59,0,0,0-10.49,0c-3.71.16-5.2-1.53-4.92-5.1.06-.83,0-1.67,0-2.5q0-64.47,0-128.94c0-7.07,0-7.07,7.26-7.08,6,0,12,.33,18-.1,5.06-.35,6.19,1.68,6.09,6.32-.27,12.32-.09,24.65-.09,37v4.16c8.23-1.61,16-4.17,24-4.49,20-.81,32.11,8.84,36.28,28.35a105,105,0,0,1-1.78,50.92c-4.44,15.79-15.22,23.42-31.6,23.85C801.13,196.28,789.88,193.79,779,186Zm39.44-43.4c-.65-3.89-1-9.43-2.57-14.63-2.2-7.5-8-10.94-15.77-9.93a82.93,82.93,0,0,0-9.66,2.37c-3.35.86-4.66,2.76-4.54,6.47.3,9.82.1,19.66.1,29.49,0,11.43,1.09,12.67,12.54,14.15a31.14,31.14,0,0,0,3.49.23c9.13.12,13.55-3.52,14.9-12.62C817.59,153.56,817.82,148.89,818.41,142.63Z"/><path class="cls-1" d="M719.8,188.66c-9.44,2.48-18.74,5.44-28.26,7.19-4.92.9-10.33.17-15.35-.75-15.32-2.79-23.59-11.68-24-27.33-.62-22.8-.3-45.63-.15-68.45,0-1.23,2.09-3.46,3.28-3.5,8-.32,16-.09,24-.21,3.8,0,3.7,2.33,3.7,5q0,27.24,0,54.48a50.27,50.27,0,0,0,.17,5.49c.75,7.08,4,10.05,11,10.21a28,28,0,0,0,4.49-.22C709.51,169,711,167.29,711,156.5c0-18.49.11-37-.08-55.47-.05-4.11,1.15-5.63,5.35-5.47,7,.28,14,.19,21,0,3.35-.07,4.76,1,4.75,4.55q-.15,44.47,0,89c0,3.23-1.23,4.58-4.41,4.49s-6.67-.16-10,0C723.12,193.84,719.26,193.52,719.8,188.66Z"/><path class="cls-1" d="M470,121.55c-4.3,0-8.09,0-11.88,0-2.89,0-4.26-1.11-4.16-4.17.15-4.5.22-9,0-13.49-.16-3,1.21-4.1,3.87-4.65,3.9-.81,7.74-1.89,12.08-3V67.72c9.91,0,19.33-.09,28.73.19.76,0,2,2.66,2.05,4.12.2,7.63.09,15.27.09,23.61,6,0,11.63.2,17.22-.07,3.78-.18,5,1.18,4.85,4.87-.25,5.49-.19,11,0,16.49.11,3.51-1.38,4.76-4.76,4.67-5.48-.14-11,0-16.92,0-.14,1.66-.34,3.08-.35,4.5,0,11-.05,22,0,33,0,7.53,3.24,10.93,10.74,11.55.5,0,1,0,1.5,0,10.08.25,10.08.25,10.08,10.24v1.5c0,11.87,0,12-11.85,13.18a64.65,64.65,0,0,1-14.45-.18c-17.65-2.37-26.34-12.61-26.74-31.47-.26-12.16-.06-24.33-.06-36.49Z"/><path class="cls-1" d="M444.45,144.75c0,14.16-.12,28.31.07,42.46.05,4.45-1.3,6.33-6,6.09-6.81-.34-13.65-.17-20.47-.06-3.37.06-4.85-1.29-4.84-4.7q.06-44.46,0-88.92c0-3,1.25-4.08,4.23-4,7.32.14,14.66.26,22,0,4.13-.17,5.14,1.51,5.11,5.24C444.37,115.44,444.45,130.1,444.45,144.75Z"/><path class="cls-1" d="M446.13,70.51c0,9.92-7.53,17.48-17.28,17.35a17.17,17.17,0,0,1-16.92-17.33,17.1,17.1,0,1,1,34.2,0Z"/></g></g></svg>