<svg xmlns="http://www.w3.org/2000/svg" viewBox="0 0 1982.37 652.5"><defs><style>.cls-1{fill:#fff;}</style></defs><title>google</title><g id="Layer_2" data-name="Layer 2"><g id="Layer_1-2" data-name="Layer 1"><path class="cls-1" d="M374,231.64q55.76,0,111.5-.06c3.47,0,5.13.5,5.73,4.6a266.07,266.07,0,0,1,.28,73.71c-4.36,33.38-13.67,65.33-32.46,93.54-34.46,51.71-82.24,84.6-143.33,97-48.76,9.91-97.38,8.61-144.13-9.29C80.73,456.39,22.64,391.85,4.47,295.62-9.39,222.24,9.34,155.33,56.07,97.1c42-52.31,96.68-84.38,163.09-94C298-8.33,368,11.73,427.16,66.32c2.72,2.52,3.41,4,.37,6.94-14.08,13.73-28,27.59-41.72,41.71-3.24,3.34-4.91,2.68-7.92,0C356.84,96.12,333,82,305.39,75.45,239.76,59.83,181,73.24,131.5,119.93c-30.59,28.85-48.31,65-53.88,106.69-7.2,53.91,5.64,102.67,40.2,144.84,30.6,37.34,70.47,58.89,118.53,64.18,38.76,4.26,76.12-1,110.69-20.18,40.8-22.64,66-56.57,73.66-103,.62-3.74,3-8.61,1-11s-7.22-.76-11-.76c-49.33,0-98.66-.07-148,.13-4.67,0-5.79-1.31-5.74-5.83.25-19.49.21-39,0-58.49,0-3.91,1-5,5-5C299.3,231.71,336.63,231.64,374,231.64Z"/><path class="cls-1" d="M1539.79,348.12c0,48,.35,96-.12,144-.31,31.17-6.46,61.24-21.71,88.83-18.54,33.54-46.77,54.8-83.63,64.81-29.14,7.91-58.55,9.32-87.88,1.86-48.64-12.37-82.68-42.54-104.29-87.4-1.49-3.1-1.05-4.36,2.28-5.71q27.29-11.06,54.35-22.67c3.28-1.41,4.43-.61,5.9,2.37,12.92,26.27,32.25,45.81,61.64,51.6,31.5,6.21,60.88,1.06,83.8-24,12.73-13.9,18.1-31.15,20.61-49.46,1.8-13.11.94-26.28,1.12-39.43,0-1.22.62-2.94-1.15-3.41-1.5-.41-2.33,1-3.23,1.93-24.15,25.52-54.38,35.34-88.78,34.47-67.58-1.69-130.88-54.28-146.93-124.52C1213,299.13,1256.61,217.55,1336,188.78c39.77-14.43,78.89-11.92,115.29,11.71a75.88,75.88,0,0,1,16.55,14.37c.86,1,1.76,2.27,3.31,1.5,1.31-.64.76-2.06.77-3.14.05-6.33.17-12.67,0-19-.1-3.13,1.07-3.95,4.05-3.93,20,.1,40,.19,60,0,4.64-.05,4,2.57,4,5.4q0,76.25,0,152.48Zm-240.45-10.73c-.07,31.46,7.42,54.18,24,73.72,37.73,44.63,106.71,40.58,137.4-9.05,22-35.61,22.42-73.52,3.79-110.58-24.81-49.36-84.63-62.2-128.11-28.09A95.07,95.07,0,0,0,1299.34,337.39Z"/><path class="cls-1" d="M685,506.31c-92.28-.21-163.63-71.67-163.32-163.57.3-92.21,71.15-162.43,163.74-162.3,92.78.12,163.6,70.89,163.34,163.21C848.52,435.39,776.92,506.51,685,506.31Zm92.16-162.73a102.29,102.29,0,0,0-4.52-32.06C761.88,278,740.17,255,705.44,247c-33.82-7.77-63.35,1.8-87,27.41-33.36,36.16-33.67,99.4-1.11,136.28,29.49,33.41,76.11,41.35,113.62,18.41C762.7,409.73,776.23,379.87,777.18,343.58Z"/><path class="cls-1" d="M1038.42,180.44c92.75.13,163.45,70.79,163.32,163.25-.13,91.56-72,162.87-163.8,162.63-92.3-.24-163.57-71.65-163.28-163.6C875,250.55,945.83,180.31,1038.42,180.44ZM946.25,343.23A113.41,113.41,0,0,0,948,363.66a108.45,108.45,0,0,0,5.85,20.09c25.36,63.62,106.11,78.68,151.32,27.64,25.62-28.93,30.69-63.45,20.31-99.78C1108,250.44,1038.15,224.9,987,260.67,958.6,280.57,946.82,309.29,946.25,343.23Z"/><path class="cls-1" d="M1848.23,506.24c-76.35-.22-137.53-43-157.76-111.45-19.12-64.75-7.76-124.53,41.45-173.24,33.31-33,75.07-45.25,121.48-40.14,48.42,5.33,82.57,32.47,107.64,72.75,8.86,14.22,14.51,29.88,20.86,45.25,1.31,3.15-.29,3.55-2.45,4.44q-37.11,15.31-74.19,30.73-68,28.13-136,56.14c-3.58,1.47-3.87,2.78-2,6.1,19.9,35.68,51.92,49,90.67,44.14,27.14-3.41,47.5-18.09,63.2-39.72,2.81-3.87,4.59-3.65,8.11-1.25q23.3,15.92,46.94,31.31c2.94,1.92,3.79,3,1.36,6.27C1944.12,482,1900,505.44,1848.23,506.24Zm-94.72-177.39c0,.66-.13,1.33-.15,2-.21,7.09-1.62,8.09,6.19,4.83q64.46-26.88,129-53.57c12-5,12.37-5.32,4-15.23-16.9-20.12-39.54-26.44-64.36-22.54C1785.5,251,1756.22,285.06,1753.51,328.85Z"/><path class="cls-1" d="M1582.38,257.66q0-116.72-.1-233.44c0-4.56,1.16-5.77,5.73-5.7,19.82.26,39.65.22,59.48,0,3.82,0,4.65,1.07,4.65,4.75q-.14,234.18,0,468.37c0,3.66-.85,4.84-4.69,4.81q-30-.3-60,0c-4.31,0-5.17-1.37-5.16-5.38Q1582.47,374.38,1582.38,257.66Z"/></g></g></svg>