<svg xmlns="http://www.w3.org/2000/svg" viewBox="0 0 539.48 539.48"><defs><style>.cls-1{fill:#fce1e5;}.cls-2{fill:#fefefe;}.cls-3{fill:#f8d3d7;}.cls-4{fill:#e32e46;}.cls-5{fill:#fdf8f8;}.cls-6{fill:#fdf9fa;}.cls-7{fill:#fdf9f9;}</style></defs><title>bank-vector</title><g id="Layer_2" data-name="Layer 2"><g id="Layer_1-2" data-name="Layer 1"><path class="cls-1" d="M234.55,539.48c0-1.13,0-2.26,0-3.39,6.68-4.32,13.1-7.36,16.74,3.39Z"/><path class="cls-2" d="M0,237.91V0H539.48V539.48H301.57c1.84-1.07,3.59-2.83,5.55-3.1,70-9.81,126.89-42.66,170.55-97.87C525.6,377.88,544.25,309.12,533,232.26c-10.2-69.91-42.63-127-98-170.48C360,2.88,275.91-11.69,185.18,16.44,124,35.41,76,73,41.74,127.37,20.45,161.16,5.09,197.23,3.39,237.92Z"/><path class="cls-3" d="M3.39,237.92c1.7-40.69,17.06-76.76,38.35-110.55C76,73,124,35.41,185.18,16.44,275.91-11.69,360,2.88,435.05,61.78c55.35,43.43,87.78,100.57,98,170.48,11.22,76.86-7.43,145.62-55.36,206.25C434,493.72,377.08,526.57,307.12,536.38c-2,.27-3.71,2-5.55,3.1H251.31c-3.64-10.75-10.06-7.71-16.74-3.39-9.29-1.15-18.84-1.29-27.83-3.59-97.22-24.95-162-85.3-194.48-180.1C7,337,4,320.77,0,304.92V254.66C10.75,251,7.7,244.6,3.39,237.92Zm266.28,276c134.79-.75,241.58-109,240.86-244.09C509.81,135,401.59,28.23,266.45,29,131.67,29.68,24.84,137.93,25.59,273,26.35,407.83,134.58,514.64,269.67,513.89Z"/><path class="cls-2" d="M0,304.92C4,320.77,7,337,12.26,352.4c32.47,94.8,97.26,155.15,194.48,180.1,9,2.3,18.54,2.44,27.83,3.59,0,1.13,0,2.26,0,3.39H0Z"/><path class="cls-1" d="M3.39,237.92C7.7,244.6,10.75,251,0,254.66V237.91Z"/><path class="cls-4" d="M269.67,513.89C134.58,514.64,26.35,407.83,25.59,273,24.84,137.93,131.67,29.68,266.45,29,401.59,28.23,509.81,135,510.53,269.8,511.25,404.92,404.46,513.14,269.67,513.89ZM266.6,134.36C291.58,150.51,314,164,335.27,179c24.54,17.37,47.94,36.35,72.14,54.21,9.78,7.22,19,5.91,24.82-2.56,6.26-9.06,4-17.55-4.26-23.41q-68-48.3-136.64-95.82c-15.95-11-33.1-9.62-48.63,1.12q-67.26,46.53-133.82,94.05C100,212.9,97,221.84,104.4,231.18c7.27,9.15,16.14,8.53,25,1.74,12.38-9.5,24.45-19.42,37.16-28.45C199.15,181.31,232.05,158.53,266.6,134.36Zm-.26,287.87h92c12.81,0,25.63.14,38.45-.05,14.22-.22,22.24-6.61,22-17.1S410.65,389,396,388.67c-1.12,0-2.23,0-3.35,0H143.55a85.78,85.78,0,0,0-10,.16c-9.55,1.11-15.77,6.5-15.94,16.15-.18,10.52,6.33,16.18,16.67,17.14,3.87.36,7.8.1,11.7.1ZM201.07,296.59c0-18.36.23-36.73-.08-55.08-.21-12.83-7.08-21-17.06-20.13-11.36,1-16.41,8.13-16.41,19.2V352.41c0,11,5,18.3,16.32,19.3,10,.88,16.93-7.26,17.15-20C201.3,333.32,201.07,315,201.07,296.59Zm83.77,1.62c0-18.36.16-36.72,0-55.08-.16-14.14-6.67-22.17-17.16-21.88-10,.28-16.22,7.77-16.29,21.05q-.3,54.24,0,108.49c.07,13.28,6.27,20.78,16.3,21,10.5.28,17-7.73,17.15-21.88C285,332.71,284.84,315.46,284.84,298.21Zm83.77,0c0-18.91.23-37.83-.08-56.75-.21-12.82-7.09-21-17.07-20.12-11.35,1-16.4,8.14-16.4,19.21V352.42c0,11,5,18.29,16.33,19.29,10,.88,16.92-7.26,17.14-20C368.84,333.87,368.61,316.06,368.61,298.25Z"/><path class="cls-5" d="M266.6,134.36c-34.55,24.17-67.45,46.95-100.07,70.11-12.71,9-24.78,18.95-37.16,28.45-8.83,6.79-17.7,7.41-25-1.74-7.42-9.34-4.36-18.28,4.48-24.56q66.66-47.37,133.82-94.05c15.53-10.74,32.68-12.11,48.63-1.12Q360,158.81,428,207.27c8.25,5.86,10.52,14.35,4.26,23.41-5.86,8.47-15,9.78-24.82,2.56-24.2-17.86-47.6-36.84-72.14-54.21C314,164,291.58,150.51,266.6,134.36Z"/><path class="cls-6" d="M266.34,422.23H146c-3.9,0-7.83.26-11.7-.1-10.34-1-16.85-6.62-16.67-17.14.17-9.65,6.39-15,15.94-16.15a85.78,85.78,0,0,1,10-.16H392.67c1.12,0,2.23,0,3.35,0,14.63.3,22.46,6,22.72,16.41s-7.77,16.88-22,17.1c-12.82.19-25.64.05-38.45.05Z"/><path class="cls-7" d="M201.07,296.59c0,18.36.23,36.73-.08,55.08-.22,12.78-7.16,20.92-17.15,20-11.36-1-16.32-8.25-16.32-19.3V240.58c0-11.07,5-18.25,16.41-19.2,10-.83,16.85,7.3,17.06,20.13C201.3,259.86,201.07,278.23,201.07,296.59Z"/><path class="cls-7" d="M284.84,298.21c0,17.25.16,34.5,0,51.74-.17,14.15-6.65,22.16-17.15,21.88-10-.26-16.23-7.76-16.3-21q-.3-54.24,0-108.49c.07-13.28,6.25-20.77,16.29-21.05,10.49-.29,17,7.74,17.16,21.88C285,261.49,284.84,279.85,284.84,298.21Z"/><path class="cls-7" d="M368.61,298.25c0,17.81.23,35.62-.08,53.41-.22,12.79-7.16,20.93-17.14,20-11.37-1-16.33-8.25-16.33-19.29V240.59c0-11.07,5.05-18.26,16.4-19.21,10-.84,16.86,7.3,17.07,20.12C368.84,260.42,368.61,279.34,368.61,298.25Z"/></g></g></svg>