<svg xmlns="http://www.w3.org/2000/svg" viewBox="0 0 536.19 649.58"><defs><style>.cls-1{fill:#fce1e5;}.cls-2{fill:#f8d3d7;}.cls-3{fill:#e32e46;}.cls-4{fill:#fdf8f8;}.cls-5{fill:#fdf9fa;}.cls-6{fill:#fdf9f9;}.cls-7{fill:#fa4b57;}.cls-8{fill:#ed4b60;}.cls-9{fill:#f94b59;}.cls-10{fill:#fb4b57;}.cls-11{fill:#f04c5f;}.cls-12{fill:#f54c5b;}.cls-13{fill:#fa4b58;}.cls-14{fill:#f34b5c;}</style></defs><title>hcbank</title><g id="Layer_2" data-name="Layer 2"><g id="Layer_1-2" data-name="Layer 1"><path class="cls-1" d="M234.55,536.87c0-1.12,0-2.25,0-3.38,6.68-4.32,13.1-7.36,16.74,3.38Z"/><path class="cls-2" d="M3.39,235.32c1.7-40.69,17.06-76.76,38.35-110.55C76,70.42,124,32.81,185.18,13.84,275.91-14.29,360,.28,435.05,59.18c55.35,43.43,87.78,100.57,98,170.48,11.22,76.86-7.43,145.62-55.36,206.25C434,491.12,377.08,524,307.12,533.78c-2,.27-3.71,2-5.55,3.09H251.31c-3.64-10.74-10.06-7.7-16.74-3.38-9.29-1.15-18.84-1.29-27.83-3.59C109.52,505,44.73,444.6,12.26,349.8,7,334.38,4,318.17,0,302.32V252.06C10.75,248.42,7.7,242,3.39,235.32Zm266.28,276c134.79-.75,241.58-109,240.86-244.09C509.81,132.41,401.59,25.63,266.45,26.35c-134.78.73-241.61,109-240.86,244.07C26.35,405.23,134.58,512,269.67,511.29Z"/><path class="cls-1" d="M3.39,235.32C7.7,242,10.75,248.42,0,252.06V235.3Z"/><path class="cls-3" d="M269.67,511.29C134.58,512,26.35,405.23,25.59,270.42,24.84,135.33,131.67,27.08,266.45,26.35c135.14-.72,243.36,106.06,244.08,240.85C511.25,402.32,404.46,510.54,269.67,511.29ZM266.6,131.76c25,16.15,47.39,29.61,68.67,44.67,24.54,17.37,47.94,36.35,72.14,54.21,9.78,7.22,19,5.91,24.82-2.56,6.26-9.06,4-17.55-4.26-23.41q-68-48.31-136.64-95.82c-15.95-11-33.1-9.63-48.63,1.12Q175.44,156.5,108.88,204C100,210.3,97,219.24,104.4,228.58c7.27,9.15,16.14,8.53,25,1.74,12.38-9.5,24.45-19.42,37.16-28.45C199.15,178.7,232.05,155.93,266.6,131.76Zm-.26,287.87h92c12.81,0,25.63.14,38.45-.05,14.22-.22,22.24-6.61,22-17.1s-8.09-16.11-22.72-16.41c-1.12,0-2.23,0-3.35,0H143.55a85.78,85.78,0,0,0-10,.16c-9.55,1.11-15.77,6.5-15.94,16.15-.18,10.51,6.33,16.18,16.67,17.14,3.87.36,7.8.1,11.7.1ZM201.07,294c0-18.36.23-36.73-.08-55.08-.21-12.83-7.08-21-17.06-20.13-11.36.94-16.41,8.13-16.41,19.2V349.81c0,11,5,18.3,16.32,19.3,10,.88,16.93-7.26,17.15-20C201.3,330.71,201.07,312.35,201.07,294Zm83.77,1.62c0-18.36.16-36.72,0-55.08-.16-14.14-6.67-22.17-17.16-21.88-10,.28-16.22,7.77-16.29,21q-.3,54.24,0,108.49c.07,13.28,6.27,20.78,16.3,21,10.5.28,17-7.73,17.15-21.88C285,330.11,284.84,312.86,284.84,295.61Zm83.77,0c0-18.91.23-37.84-.08-56.75-.21-12.82-7.09-21-17.07-20.12-11.35.95-16.4,8.14-16.4,19.21V349.82c0,11,5,18.29,16.33,19.29,10,.88,16.92-7.26,17.14-20.05C368.84,331.26,368.61,313.46,368.61,295.65Z"/><path class="cls-4" d="M266.6,131.76c-34.55,24.17-67.45,46.94-100.07,70.11-12.71,9-24.78,18.95-37.16,28.45-8.83,6.79-17.7,7.41-25-1.74C97,219.24,100,210.3,108.88,204Q175.54,156.65,242.7,110c15.53-10.75,32.68-12.11,48.63-1.12Q360,156.2,428,204.67c8.25,5.86,10.52,14.35,4.26,23.41-5.86,8.47-15,9.78-24.82,2.56-24.2-17.86-47.6-36.84-72.14-54.21C314,161.37,291.58,147.91,266.6,131.76Z"/><path class="cls-5" d="M266.34,419.63H146c-3.9,0-7.83.26-11.7-.1-10.34-1-16.85-6.63-16.67-17.14.17-9.65,6.39-15,15.94-16.15a85.78,85.78,0,0,1,10-.16H392.67c1.12,0,2.23,0,3.35,0,14.63.3,22.46,6,22.72,16.41s-7.77,16.88-22,17.1c-12.82.19-25.64.05-38.45.05Z"/><path class="cls-6" d="M201.07,294c0,18.36.23,36.72-.08,55.08-.22,12.78-7.16,20.92-17.15,20-11.36-1-16.32-8.26-16.32-19.3V238c0-11.07,5-18.26,16.41-19.2,10-.83,16.85,7.3,17.06,20.13C201.3,257.26,201.07,275.63,201.07,294Z"/><path class="cls-6" d="M284.84,295.61c0,17.25.16,34.5,0,51.74-.17,14.15-6.65,22.16-17.15,21.88-10-.26-16.23-7.76-16.3-21q-.3-54.24,0-108.49c.07-13.28,6.25-20.77,16.29-21,10.49-.29,17,7.74,17.16,21.88C285,258.89,284.84,277.25,284.84,295.61Z"/><path class="cls-6" d="M368.61,295.65c0,17.81.23,35.61-.08,53.41-.22,12.79-7.16,20.93-17.14,20.05-11.37-1-16.33-8.25-16.33-19.29V238c0-11.07,5.05-18.26,16.4-19.21,10-.84,16.86,7.3,17.07,20.12C368.84,257.81,368.61,276.74,368.61,295.65Z"/><path class="cls-7" d="M44.21,646.72H25.51V569.63c4.15-6.81,12.16-1.11,17.85-5.93,1.1,12.45.06,24.67.63,37.2H70.68c.32-4.91.07-10.31.11-15.68s0-11,0-16.17c5.48-4.45,12.49-1.56,18.27-6.09v83.72H70.87V616H44.21Z"/><path class="cls-8" d="M460.92,644V568c5.43,1.39,10.2-1.46,16.11-2.21v30.81c2-3.35,2.89-5,3.21-5.48H497c10.86,4.22,13.18,13.88,13.51,24.48.19,6.26.31,12.22-3.85,18.11-4.81,6.79-9.57,11.81-18.3,13.57-5,1-9,1.39-13.94-.1C470.11,645.88,465.05,647.5,460.92,644Zm18.24-35.23c2,4.38-2.29,7.9-1.91,12.36s.08,8.75.08,13.1h10.21c6.59-10.13,5.42-20.43,1.76-30.67C483.84,602.14,482.11,606.2,479.16,608.77Z"/><path class="cls-9" d="M242,591h17.55L242.7,619.64c6,8.9,11.65,17.45,17.94,26.87h-17c-6.2-5.23-8.83-13.73-14.86-21.6v21.68h-19V567.74c6.48,2.31,11.65-2.81,18.47-1.44v47C234.34,605.36,237.77,598.37,242,591Z"/><path class="cls-10" d="M149.62,593.72c0,8.69,0,17.29,0,25.89,0,8.29-.93,16.75,5,23.58-4.87,3.32-9.27,4.35-14.41,3.52-2.15-1.16-3.08-3.65-4.12-6-1,.11-1.91-.09-2.86.73-2.26,1.93-3.58,5.58-7,5.37-2.95-.19-4.45,3.29-7.44,2.21-3.9-1.41-7.85-2.71-11.71-4.24a4.55,4.55,0,0,1-2.17-2.16c-3-6.4-7.56-12.37-7.07-19.81.88-13.09,3.53-25.4,18.15-30.44.58-.21,1-1,1.56-1.53C127.88,591.56,138.5,589.19,149.62,593.72ZM131,603.35h-7.23c-9.24,7.68-8.08,18.53-5,28a5.15,5.15,0,0,0,4.74,3.26c2.55.11,4.75-1.44,4.84-2.85.23-3.69,3-6.46,2.79-10.3C130.69,615.66,131,609.85,131,603.35Z"/><path class="cls-11" d="M446.22,591.26c0,10.33.2,20.3-.07,30.26-.21,7.74.49,15.18,4.67,21.81-4.7,3.12-9.22,4.62-14.32,3.17-2.21-1.32-2.32-3.94-3.69-5.75-1,0-2.07-.47-2.81.59-3.48,5.08-9.78,4.78-14.55,7.43-1.52.85-4.33.37-6.78-.67s-4-3.71-7-3.27l-5-9.64v-44h18v39.43c2.08,2.92,4.22,4.88,7.18,3.77,2.13-.8,2.89-3,3.89-5.28,1.71-3.93,1.76-7.72,1.78-11.69,0-8.58,0-17.17,0-26.12Z"/><path class="cls-12" d="M346.22,572.83l6.65,6.65-9.7,9.66c-4.27-1.35-6.61-6.54-11.67-6.54-10.8.91-11.95,10-13.6,17.51-1.37,6.25-.29,13-.27,19.6,0,2.65,4.05,4.19,1.69,7.15l7.81,7.6c6.83-.09,13.91.78,21.62-3.06-1,5.09,2.74,8.06,2,12.57l-3.29,2.79c-3.92.91-8.6-.75-13.13,1.94a7.6,7.6,0,0,1-8.59-1,3.28,3.28,0,0,0-2.8-.77c-12.95.35-19.86-9.9-23.77-20.4-4.35-11.67-2.89-25.2,1.86-37.68,3.91-10.28,15.55-18.54,26.64-18.64C333.65,570.15,339.8,569.14,346.22,572.83Z"/><path class="cls-13" d="M202.35,598.55l-5.91,6.79c-4.86.78-8.38-4.27-13-1.53-6.51,5.66-4.48,13.42-4.77,20.62,2.1,3.33,3.28,7.3,7.87,10,3.4-.52,8.06,1.51,12.22-1.64,1.28,3.64,3.9,7,2.19,12-7.19,3.42-14.32,5.21-23.69,2.62S164,639,160,630c0-3.13,0-7.91,0-12.69.06-12.69,6.92-22.76,19.61-26.65,5.69-1.75,10.63-1.88,16.18.91Z"/><path class="cls-14" d="M377.41,629.77c3,6.25,7.08,3.91,10,5,1.2,4.09,6.12,8.26-.79,12.1H368.4c-2.32-2.39-4.7-4.86-6.95-7.2V567.8c5.62,1.68,10.38-1.4,16-1.93Z"/></g></g></svg>