<svg xmlns="http://www.w3.org/2000/svg" viewBox="0 0 1983.36 422.95">
    <defs>
        <style>
            .cls-1{fill:#ffffff;}.cls-2{fill:#ffffff;}.cls-3{fill:#ffffff;}.cls-4{fill:#ffffff;}.cls-5{fill:#ffffff;}
        </style>
    </defs>
    <title>
        microsoft
    </title>
    <g id="Layer_2" data-name="Layer 2">
        <g id="Layer_1-2" data-name="Layer 1">
            <path d="M 424.1 0 c -0.1 2 -0.2 4 -0.2 6 q 0 94.7 0.1 189.5 c 0 4.2 -0.7 5.6 -5.4 5.6 q -95.5 -0.3 -191 0 c -4.7 0 -5.4 -1.4 -5.4 -5.6 q 0.2 -94.7 0.1 -189.5 c 0 -2 -0.2 -4 -0.2 -6 Z" class="cls-1"/>
            <path d="M 201.1 0 c 0.1 1.7 0.2 3.3 0.2 5 q 0 95.2 0.1 190.4 c 0 4.7 -1.3 5.7 -5.8 5.7 q -95.2 -0.2 -190.4 0 C 1.2 201 0 200.1 0 195.9 Q 0.3 98 0.1 0 Z" class="cls-2"/>
            <path d="M 323.1 221.9 c 31.8 0 63.6 0.1 95.5 -0.1 c 3.9 0 5.4 0.6 5.4 5 q -0.2 95.5 0 190.9 c 0 3.8 -0.7 5.1 -4.9 5.1 q -96 -0.2 -191.9 0 c -4.2 0 -4.9 -1.4 -4.9 -5.1 q 0.2 -95.5 0 -190.9 c 0 -4.4 1.5 -5.1 5.4 -5.1 C 259.5 222 291.3 221.9 323.1 221.9 Z" class="cls-3"/>
            <path d="M 100.1 422.8 c -31.5 0 -63 -0.1 -94.5 0.1 C 0.9 423 0 421.5 0 417.1 q 0.2 -95 0 -190 c 0 -4.6 1.4 -5.3 5.5 -5.3 q 95.2 0.2 190.5 0 c 4.5 0 5.4 1.2 5.4 5.5 q -0.2 95 0 190 c 0 4.8 -1.4 5.7 -5.8 5.7 C 163.8 422.7 132 422.8 100.1 422.8 Z" class="cls-4"/>
            <path d="M 783.2 134.1 C 759 200.8 730 266.7 703.7 333.6 c -1.3 3.3 -2.9 4.6 -6.5 4.4 c -6.5 -0.3 -13 -0.3 -19.5 0 c -3.6 0.2 -5.2 -1 -6.6 -4.4 Q 649.2 279.8 627 226.1 c -9.3 -22.6 -18.6 -45.2 -28 -67.8 c -3 -7.2 -5 -14.7 -7.1 -22.1 c -1.6 -0.1 -1.7 0.9 -1.6 1.7 c 2 14.9 1.4 29.9 1.4 44.8 c 0.2 50 0 100 0.2 150 c 0 4.9 -1.3 6.2 -6.1 6 c -9.8 -0.4 -19.7 -0.3 -29.5 0 c -4.5 0.1 -5.9 -1 -5.9 -5.7 c 0.2 -51.5 0.1 -103 0.1 -154.5 c 0 -29.5 0.1 -59 -0.1 -88.5 c 0 -3.9 0.9 -5.1 5 -5 c 17.7 0.2 35.3 0.1 53 0.1 c 2.7 0 4.5 0.3 5.7 3.3 q 33.7 85.1 67.6 170.2 c 2.3 5.7 3.9 11.6 5.9 17.6 c 2.2 -0.5 2 -2.5 2.5 -3.9 C 712.3 209.9 739.5 149.5 763.9 88 c 1 -2.5 2.2 -3.6 5 -3.6 q 26 0.2 52 0 c 3.1 0 4.3 0.6 4.3 4.1 q -0.2 122.5 0 245 c 0 3.2 -0.8 4.3 -4.1 4.3 c -11.8 -0.2 -23.7 -0.1 -35.5 0 c -3.2 0 -4.3 -0.9 -4.3 -4.2 c 0.1 -52.7 0 -105.3 0.2 -158 C 781.5 161.2 782.6 146.9 783.2 134.1 Z" class="cls-5"/>
            <path d="M 1983.3 300.8 c 0 11.4 0 21.7 0 32 c 0 2.1 -0.6 3.4 -2.7 4.1 c -18.2 6 -36.6 7.7 -54.8 0.6 s -25.7 -22.4 -27.7 -40.6 c -2.1 -19.4 -0.6 -38.9 -0.9 -58.4 c -0.2 -14 -0.3 -28 0.1 -42 c 0.1 -4.8 -1.5 -5.7 -5.9 -5.6 c -17.5 0.2 -35 0.4 -52.5 -0.1 c -5.4 -0.1 -6.1 1.7 -6.1 6.4 c 0.2 44.8 0 89.6 0.2 134.5 c 0 4.8 -1.2 6.2 -6 6 c -10.7 -0.4 -21.3 -0.3 -32 0 c -4.2 0.1 -5.2 -1.2 -5.2 -5.3 c 0.1 -45.3 0 -90.7 0.2 -136 c 0 -4.6 -1.2 -6 -5.8 -5.8 c -6.8 0.4 -13.7 0 -20.5 0.2 c -2.6 0.1 -3.9 -0.5 -3.9 -3.5 q 0.3 -14 0 -28 c -0.1 -3.1 1.3 -3.5 3.9 -3.4 c 7.3 0.1 14.7 -0.1 22 0.1 c 3.3 0.1 4.2 -0.9 4.2 -4.2 c 0.1 -11 -1 -22 0.8 -32.9 c 5.1 -30.6 27.4 -50.9 58.3 -52.8 C 1858.3 65.4 1867.5 66 1876.5 68 c 3.2 0.7 4.7 1.9 4.6 5.6 c -0.3 10.6 -0.1 21.2 -0.1 32.3 c -5.5 -1.7 -10.5 -3.7 -15.8 -4.3 c -18.3 -2.3 -30.1 6.6 -31.8 25.1 c -0.8 8.8 -0.2 17.6 -0.4 26.5 c 0 2.3 1 2.8 3 2.8 c 19.3 0 38.7 -0.1 58 0 c 3.3 0 3.3 -1.7 3.3 -4 c 0 -11 0.1 -22 -0.1 -33 c 0 -3 0.8 -4.4 3.8 -5.2 c 11.7 -3.3 23.3 -6.7 34.9 -10.4 c 3.9 -1.3 4.5 0.1 4.4 3.6 c -0.1 14.7 0.1 29.3 -0.2 44 c -0.1 4.3 1.3 5.2 5.3 5.1 c 11.2 -0.3 22.3 0.1 33.5 -0.2 c 3.6 -0.1 4.5 1.1 4.4 4.5 c -0.2 8.8 -0.2 17.7 0 26.5 c 0.1 3.3 -0.9 4.3 -4.2 4.2 c -11.7 -0.2 -23.3 0.1 -35 -0.2 c -3.5 -0.1 -4.4 1.1 -4.4 4.5 c 0.1 27.5 0.1 55 0.1 82.5 C 1939.8 280.9 1940 283.9 1940.3 286.9 c 2.4 15.9 12.3 21.8 28.9 19.6 C 1974 305.9 1978.5 304 1983.3 300.8 Z" class="cls-5"/>
            <path d="M 1313.5 342.3 c -26.4 0 -50 -7 -68.5 -26.8 c -13.5 -14.4 -20.3 -32 -22.3 -51.3 c -2 -20.1 -0.9 -40 6.9 -58.9 c 12.1 -29 34.3 -45.5 64.8 -51.2 C 1310.8 150.9 1327.6 151.2 1343.9 154.8 c 28.5 6.4 48 23.5 57.5 50.8 c 10 28.7 9.7 57.8 -2.5 85.8 c -12.5 28.6 -35.4 44.5 -66.1 49.5 C 1326.4 341.9 1319.9 342.4 1313.5 342.3 Z m 50.8 -99.3 c 0.2 -5.7 -1 -13.8 -3.2 -21.7 c -5.8 -20.9 -21.5 -33.5 -42.6 -34.3 c -23.1 -0.9 -39.9 9.9 -47.5 30.6 c -5.9 16.2 -6.3 32.9 -2.8 49.6 c 4.8 23.6 19.4 37.1 43.4 39.1 s 41.2 -7.5 48.4 -30.9 C 1363 265.8 1364.2 255.8 1364.3 243.1 Z" class="cls-5"/>
            <path d="M 1661 342.3 c -23.2 0.2 -44.6 -5.2 -62.5 -20.6 c -15.9 -13.6 -24.6 -31.3 -27.8 -51.6 c -3.3 -20.7 -2.4 -41.3 4.9 -61.1 c 12.5 -33.9 37.9 -51.4 73.1 -55.9 C 1662.8 151.1 1677.3 151.7 1691.3 154.9 c 29 6.6 48.6 24.3 57.9 52.3 c 9.1 27.2 8.9 54.9 -2 81.6 c -12.1 29.9 -35.2 46.8 -66.8 52.1 C 1674 341.9 1667.5 342.4 1661 342.3 Z m -47.7 -95.1 c 0 2.8 -0.1 5.7 0 8.5 c 0.2 2.6 0.5 5.3 1 7.9 c 3.5 21.3 16.6 40.9 42.9 42.8 c 26.5 2 43.8 -8.6 50.7 -33.4 C 1712.5 256.7 1712.6 239.3 1708.2 222.8 c -5.4 -20.3 -18 -33 -39.6 -35.3 c -21.7 -2.3 -41.9 6.4 -50.7 29.9 C 1614.4 226.9 1612.8 237 1613.2 247.2 Z" class="cls-5"/>
            <path d="M 1430.6 290.3 c 8 5.3 15.5 9.6 23.6 12.4 c 12.9 4.5 26.1 6.8 39.7 3.4 c 6.9 -1.7 12.2 -5.3 13.5 -12.9 s -0.9 -13.7 -7.3 -18.3 c -10 -7.1 -21.8 -10.7 -32.6 -16 c -12.4 -6.1 -24.2 -12.6 -31.4 -25.2 c -13.1 -22.9 -6.5 -52.1 15.8 -68.4 c 10.8 -7.9 23.1 -11.8 36.2 -13 C 1504.5 150.7 1521.1 152.7 1536.7 158.1 c 2.2 0.8 4.2 1.4 4.2 4.6 c -0.2 11.8 -0.1 23.7 -0.1 35.3 c -1.3 1 -2 0 -2.8 -0.5 c -12.8 -8.4 -27.2 -11.3 -42.3 -11.4 C 1490.9 186.2 1486.1 187.3 1481.8 189.6 C 1476.2 192.5 1472.6 198.1 1472.2 204.4 C 1471.9 210.7 1474.9 216.7 1480.2 220.1 c 8.1 5.4 17.1 8.8 26.1 12.5 c 10.1 4.1 19.3 9.7 28.3 15.7 c 11.9 8 16.8 19.5 17.4 33.1 c 1.3 26.8 -14.4 48.3 -41 56.3 c -26.3 7.9 -52 4.6 -77.3 -4.9 c -1.5 -0.6 -3.2 -1.1 -3.2 -3.3 C 1430.6 316.8 1430.6 304 1430.6 290.3 Z" class="cls-5"/>
            <path d="M 1081.2 291.2 c 0 12.9 -0.1 24.6 0.1 36.3 c 0 2.7 -1.3 3.7 -3.4 4.8 c -17.8 8.9 -36.7 11.4 -56.3 10.3 c -16.3 -1 -31.5 -5.6 -45 -14.7 c -22.9 -15.3 -34.5 -37.7 -37.2 -64.4 c -2.6 -25.2 1.2 -49.6 15.6 -71.3 c 15 -22.5 36.6 -34.9 63 -39 C 1037.7 150 1057.8 152 1076.5 159 c 3.4 1.3 4.9 2.8 4.8 6.7 c -0.3 11.9 -0.1 23.9 -0.1 36.5 c -5.6 -3.2 -10.3 -6.6 -15.7 -8.7 c -21.9 -8.7 -42.9 -8.7 -62.2 6.5 c -8.8 6.9 -14.2 16.3 -17 27 C 982.9 239.8 982.7 253.2 985.6 266.1 c 7.4 32.5 35 45.5 64.6 39.4 C 1061.3 303.3 1071.2 298.4 1081.2 291.2 Z" class="cls-5"/>
            <path d="M 1155.9 185.4 c 3.5 -4.8 6 -9.9 9.3 -14.5 c 10.8 -14.6 31.3 -21.7 48.6 -16.5 c 2.1 0.6 4.6 0.9 4.6 4.3 c -0.1 12.9 0 25.9 0 39.6 c -6.3 -3.9 -12.7 -5.5 -19.3 -6.3 c -18.4 -2.2 -33.7 8.7 -39.8 28.3 C 1157.1 227.3 1156 234.4 1156 241.6 c 0 30.1 -0.2 60.3 0 90.4 c 0 4.7 -1.3 5.9 -5.9 5.8 c -10.8 -0.3 -21.7 -0.2 -32.5 0 c -3.3 0 -4.7 -0.5 -4.7 -4.3 q 0.2 -86.7 0 -173.4 c 0 -2.7 0.2 -4.2 3.7 -4.2 q 17.7 0.3 35.5 0 c 3.3 -0.1 3.8 1.3 3.8 4.1 C 1155.8 168.5 1155.9 177 1155.9 185.4 Z" class="cls-5"/>
            <path d="M 866.4 246.5 c 0 -28.3 0.1 -56.6 -0.1 -85 c 0 -4.8 1.5 -5.8 5.9 -5.6 c 11 0.3 22 0.2 33 0 c 3.3 -0.1 4.1 0.9 4.1 4.2 q -0.1 86.7 0 173.4 c 0 3.3 -0.9 4.3 -4.2 4.2 c -11.3 -0.2 -22.7 -0.2 -34 0 c -3.8 0.1 -4.8 -1.1 -4.8 -4.8 C 866.4 304.1 866.4 275.3 866.4 246.5 Z" class="cls-5"/>
            <path d="M 887.7 128.5 c -14 -0.1 -25.2 -10.8 -25.3 -24.3 c -0.1 -13.6 11.7 -25 25.9 -25 S 914.1 91 913.8 104.5 S 902.2 128.6 887.7 128.5 Z" class="cls-5"/>
        </g>
    </g>
</svg>
