<svg xmlns="http://www.w3.org/2000/svg" viewBox="0 0 1279.66 268.04"><defs><style>.cls-1{fill:#fefefe;}</style></defs><title>stanford</title><g id="Layer_2" data-name="Layer 2"><g id="Layer_1-2" data-name="Layer 1"><path class="cls-1" d="M0,208l9.77.52c.74,3.55,1.46,7.1,2.24,10.64,2.12,9.58,7.38,16.32,16.7,20.25,16.83,7.09,33.83,8.22,51.2,2.7,15.75-5,24.48-17.43,23.71-34-.68-14.64-6.57-26.48-19.07-34.94C66.63,161,48.81,148.67,31.25,136,3,115.64.56,83.62,10.26,59.86,18.51,39.64,34.88,28.6,55.43,25.41c16.14-2.5,32.83-1.91,49.27-1.88,9.45,0,18.9,1.62,28.35,2.61,2,.21,4.39-.17,4.36,3.33-.14,15.62-.06,31.24-.06,46.82-8.23,1.5-8.23,1.5-9.79-5.78-3.85-17.93-10.07-23.15-31.88-26.44A86.86,86.86,0,0,0,64.9,45.31C52.67,47.83,45,55.09,42,67c-3.18,12.83-1.22,25.07,9.35,33.73,11.18,9.15,23.4,17,35.22,25.39,10.47,7.4,21.44,14.15,31.45,22.12,28.67,22.81,31.36,70.43,5.89,96.85-9.9,10.28-22.65,14.9-36.09,18.06C59.46,269.79,31.58,266,4,258.62c-1.2-.32-2.54-2.81-2.59-4.34-.35-10-.32-20-.53-30A54.74,54.74,0,0,0,0,218Z"/><path class="cls-1" d="M1220.25,93.91c-.73-21.29-1.26-43.06-2.49-64.79-.16-2.91-3.46-6.13-6.08-8.23-2-1.63-5.27-1.83-8-2.47-6.44-1.49-6.45-1.44-5.38-7.67l60.47-9.55c0,1.16,0,2.6,0,4q-.75,101-1.46,202c0,7.33.39,14.65.55,22,.26,12.06,4.09,17,15.83,20.33,1.92.54,3.86,1,6,1.53v7.41l-58.56,8.62q-.36-5.76-.86-13.54c-2,1.06-3.35,1.81-4.74,2.58-23.45,12.94-47.82,15.78-73.09,6.1-20.75-7.95-33.87-23.41-40.28-44.19-8.54-27.69-6.83-55.17,6.13-81.16,14-28,38.33-41.37,68.73-43.62C1190.83,92.21,1204.85,93.59,1220.25,93.91Zm-.54,86.64h-.12v-43c0-16.34-.42-16.92-16.42-21.82-.48-.15-1-.33-1.43-.46-27.65-7.8-51.32,4.2-59.25,30.65a108.55,108.55,0,0,0-2.3,55.82c4.63,20.4,16.31,34.77,37.46,39.82,12.69,3,25.11,1.46,37.35-2.7,3.48-1.18,4.86-3,4.81-6.82C1219.58,214.87,1219.71,197.71,1219.71,180.55Z"/><path class="cls-1" d="M539.52,257.52v6.76H455.39v-6.54c3.67-1.25,7.47-2.37,11.13-3.83,6.48-2.58,10.1-7.41,10.52-14.45.61-10.3,1.63-20.6,1.65-30.91q.07-38.72-.67-77.44c-.24-12.39-3.06-15.11-15.36-17.45-7.43-1.41-7.43-1.41-6.09-10,19.69-.65,39.36-2.46,58.27-10.75.63,4.76,1.21,9.13,1.86,14.06,1.86-1,3.26-1.72,4.64-2.49,19.66-10.89,40.38-15.32,62.54-9.81,22.7,5.66,37.12,22.75,37.89,46.12.88,26.46.73,53,1.16,79.43.09,6,.59,12,1.16,17.94,1.08,11.35,4.09,15.19,15.38,17.72,5.4,1.22,6.89,3.57,5.28,8.69H560.12c-1.68-6.75-1.61-6.88,4.37-9,16.49-5.81,16.9-5.88,18.78-24.33a395.09,395.09,0,0,0-.2-84.28c-2.22-19.79-13.88-30.43-33.77-30-9.81.21-19.58,3.12-29.29,5.16-1.25.27-2.9,2.71-2.91,4.14-.11,34.65,0,69.31,0,104,0,1,.1,2,.19,3,1.54,17.17,3,18.91,19.44,23.49Z"/><path class="cls-1" d="M776.19,182.72c.29-19.75,4.38-38.41,15.14-55.19,12-18.7,29.12-29.71,51-33.6,15.82-2.81,31.51-2.62,47.05,1.53,31.16,8.35,51.49,33.84,54.64,67.64a129.39,129.39,0,0,1-3.49,45.57c-9.27,35-37.32,57.24-74.11,59.14-15.29.79-30.35-.25-44.62-6.31-25.83-11-39.17-31.48-43.63-58.41C777,196.38,776.81,189.52,776.19,182.72Zm128-3.57c-.27-3.37-.51-9-1.2-14.64-1.69-13.86-5.11-27.17-13.89-38.46-8.63-11.11-20.22-15.23-34-13.55-16,2-25.83,12.08-31,26.32a126.85,126.85,0,0,0-6.62,30c-1.94,18.93.13,37.6,8.12,55.17,5,11.05,12.79,19.49,24.9,22.86,17.54,4.88,34.19-2.52,43.36-19.13C901.9,213.33,903.72,197.54,904.22,179.15Z"/><path class="cls-1" d="M442.29,246.23c-6.6,5.55-12.46,12-19.66,16.19-12.82,7.41-31.92,6.87-43.24-10.61-1.17.8-2.36,1.58-3.51,2.39-16.73,11.8-35,15.83-55,10.64-23.5-6.13-33.18-23.62-32.22-46.51.81-19.34,10-33.74,28.68-40.55S355,164.66,374,158.47c3.6-1.18,4.86-2.77,4.46-6.3-.28-2.48-.21-5-.4-7.49-1.64-22-19.53-34.69-41.05-29.14-11.19,2.89-19.59,9.55-26.05,19.44l-8.67-4.78c2.15-8.16,6.55-14.84,12.32-20.66,20.06-20.23,59.16-24.35,83-8.62,11.71,7.72,17.48,19.39,18.13,32.91.92,18.95.63,38,.67,56.94,0,11.66-.45,23.33-.39,35a29.13,29.13,0,0,0,1.79,9.72c2.11,5.73,6.56,7.65,12.41,6C437.24,239.42,437.24,239.42,442.29,246.23Zm-64.13-68.82c-13.65,5.91-26.17,11.07-38.46,16.75-6.05,2.79-9.33,8.35-11.29,14.59-5.39,17.06,3.41,31.91,20.34,33.81,9.9,1.11,19-2.37,27.84-6.39.83-.38,1.5-2.1,1.5-3.2C378.19,215.18,378.16,197.38,378.16,177.41Z"/><path class="cls-1" d="M804.19,15.7c-7.24,9.78-13.38,18.06-19.92,26.88-3.48-4.28-6.67-8.25-9.9-12.19-4.7-5.72-10.45-9.54-17.92-10.92-13.14-2.42-25.26,5.11-27.41,18.31-1.52,9.32-2,18.85-2.33,28.31-.38,9.78-.08,19.59-.08,29.89h37.75v22.44H727.09c-.12,2.3-.27,3.91-.27,5.53,0,32.49-.18,65,.07,97.48.06,8.12,1.49,16.22,2.24,24.33.28,3,1.68,4.86,4.69,5.59,7.71,1.85,15.39,3.8,23.44,5.8v7.1h-92.1c-1.08-4.14-.64-6.85,4.82-8.22,12.54-3.13,16.85-8,17.18-20.37.88-33,1.27-65.94,1.82-98.91.1-5.8,0-11.6,0-18.06H667.15c-1.88-9-1.53-9.66,5.78-13.35,5.19-2.62,12.16-4.24,14.88-8.51s.85-11.2,1.29-17c.78-10.1.85-20.39,2.87-30.25,6.2-30.27,26.19-47.2,57-49.26,12.72-.85,25.46-.57,37.3,4.71C792.4,7.8,797.88,11.9,804.19,15.7Z"/><path class="cls-1" d="M270.93,241.1c2.15,5.5.28,9.36-3.24,12.61-6.51,6-14.39,9.54-22.85,11.78a73.74,73.74,0,0,1-37.06.1c-17.75-4.36-27.64-16.39-29.44-33.71-1.85-17.83-1.52-35.91-1.76-53.89-.25-19.48-.05-39-.05-59.15H155.68c-1.37-4.61-.92-7.09,3.58-9.13,21-9.47,34.67-26.43,45.81-45.85,3-5.27,3-5.28,9.88-4.23V96.82h57.61v21.74H215.65a23.75,23.75,0,0,0-.53,3.4c.25,31.15.45,62.3.89,93.45a59.8,59.8,0,0,0,2.06,13.79c2.74,10.69,10.39,16.8,21.44,17.91S260.52,244.83,270.93,241.1Z"/><path class="cls-1" d="M961.4,104.32l59-9.26c.21,3.44.48,7.79.78,12.68,22.44-14.92,45.06-19,69.35-3.93l-21.21,32.43a24,24,0,0,1-2-1.79c-10.62-12.23-26.1-16.17-41.21-10.69-2.92,1.06-4.17,2.47-4.15,5.74.15,32.49.12,65,.22,97.49,0,3.65.4,7.32.72,11,.85,9.52,4.81,14,14.28,15.95,4.7,1,9.49,1.47,14.48,2.22v8.12H959.39v-7.87c4-1.24,8.31-2.41,12.48-3.86,5.79-2,9.65-5.73,10.25-12.2.5-5.47,1.68-10.92,1.67-16.38q-.09-47.24-.65-94.47c-.1-9.17-2.72-12.29-11.6-15-1.11-.34-2.25-.58-3.39-.83C960.47,112,960.47,112,961.4,104.32Z"/></g></g></svg>