<svg xmlns="http://www.w3.org/2000/svg" xmlns:xlink="http://www.w3.org/1999/xlink" viewBox="0 0 77.4 54.12"><defs><style>.cls-1{fill:none;}.cls-2{clip-path:url(#clip-path);}.cls-3{fill:#c41a22;}.cls-4{fill:#fff;}</style><clipPath id="clip-path" transform="translate(0 0)"><rect class="cls-1" x="0.01" width="77.39" height="54.12"/></clipPath></defs><title>bostonuniversity</title><g id="Layer_2" data-name="Layer 2"><g id="Layer_1-2" data-name="Layer 1"><g class="cls-2"><polygon class="cls-3" points="0 54.12 77.4 54.12 77.4 0 0 0 0 54.12 0 54.12"/></g><path class="cls-4" d="M72.9,49.6H4.5V4.5H72.9V49.6ZM3.18,3.18V50.93h71V3.18" transform="translate(0 0)"/><path class="cls-4" d="M31.08,32.13C31.07,35,29.71,38,24.85,38c-3.1,0-4.13-1-4.15-3.74V26.42h3.93c4.3,0,6.44,2.89,6.45,5.71Zm-6.41-6.57h-4v-9c.93,0,2.4-.11,3.19-.11,4.53,0,6,2.33,6,4.9,0,2.85-1.72,4.21-5.26,4.22Zm4.62.24a4.93,4.93,0,0,0,4.13-4.57,4.79,4.79,0,0,0-2.3-4.18c-1.36-1-4.22-1.46-7.49-1.46-.71,0-3.53,0-5.57.11-1.08,0-3.64.18-4.67.22h-.08v.86h1.38c2.56,0,2.75,1,2.78,3.15V35.32c0,2.32-.53,2.94-3.56,3H13v.86H26.63c6,0,8.08-4.16,8.09-7.12s-2-5.16-5.43-6.22" transform="translate(0 0)"/><path class="cls-4" d="M56,15.8v.94h.1c3.09.19,3.52.67,3.56,4.26v8.7c0,6.29-4.21,8-8.41,8-5.52,0-8.38-3-8.4-8V19.36c0-2.12.79-2.58,2.84-2.61h.45V15.8H36.27v.95h.12c2.54.07,3.06.32,3.1,2.68V30.35c0,5.4,3.73,9.52,10.91,9.53,8.17,0,11.17-5,11.18-9.72V20.07c0-2.36.81-3.26,3.28-3.32H65V15.8h-.12" transform="translate(0 0)"/></g></g></svg>