<svg xmlns="http://www.w3.org/2000/svg" xmlns:xlink="http://www.w3.org/1999/xlink" viewBox="0 0 196.17 59.3"><defs><style>.cls-1{fill:none;}.cls-2{fill:#016938;}.cls-3{clip-path:url(#clip-path);}</style><clipPath id="clip-path" transform="translate(0 0)"><rect class="cls-1" width="196.17" height="59.3"/></clipPath></defs><title>calpolyslo</title><g id="Layer_2" data-name="Layer 2"><g id="Layer_1-2" data-name="Layer 1"><path class="cls-2" d="M23.88,52.12a2,2,0,0,0-1.69-.77c-1,0-2,.41-2,1.42,0,.77.47,1.12,1.95,1.55S25,55.17,25,56.83s-1.59,2.47-3.27,2.47a3.52,3.52,0,0,1-2.87-1.17l1-.71a2.32,2.32,0,0,0,2,.95c1,0,2-.5,2-1.47s-.77-1.22-2.42-1.72C20,54.78,19,54.26,19,52.85c0-1.63,1.54-2.44,3.17-2.44a3.37,3.37,0,0,1,2.6,1l-.91.72Z" transform="translate(0 0)"/><path class="cls-2" d="M32.87,50.63h1l4,8.45H36.58L35.63,57H31l-1,2.07H28.77l4.1-8.45Zm.5,1.29h0l-1.93,4.15h3.8l-1.84-4.15Z" transform="translate(0 0)"/><polygon class="cls-2" points="42.78 50.63 44.17 50.63 49.56 57.65 49.59 57.65 49.59 50.63 50.69 50.63 50.69 59.08 49.3 59.08 43.91 52.06 43.88 52.06 43.88 59.08 42.78 59.08 42.78 50.63 42.78 50.63 42.78 50.63"/><polygon class="cls-2" points="64.36 50.63 65.46 50.63 65.46 58.15 69.72 58.15 69.72 59.08 64.36 59.08 64.36 50.63 64.36 50.63"/><path class="cls-2" d="M81.61,55.86a3.51,3.51,0,0,1-7,0V50.63h1.1v5.09c0,1.36.55,2.65,2.4,2.65s2.41-1.29,2.41-2.65V50.63h1.1v5.23Z" transform="translate(0 0)"/><polygon class="cls-2" points="87.51 50.63 88.62 50.63 88.62 59.08 87.51 59.08 87.51 50.63 87.51 50.63"/><path class="cls-2" d="M99.31,52.12a2,2,0,0,0-1.69-.77c-1,0-2,.41-2,1.42,0,.77.48,1.12,2,1.55s2.79.85,2.79,2.51-1.59,2.47-3.27,2.47a3.52,3.52,0,0,1-2.87-1.17l1-.71a2.32,2.32,0,0,0,2,.95c1,0,2-.5,2-1.47s-.77-1.22-2.43-1.72c-1.31-.4-2.31-.92-2.31-2.33,0-1.63,1.54-2.44,3.17-2.44a3.4,3.4,0,0,1,2.6,1l-.91.72Z" transform="translate(0 0)"/><path class="cls-2" d="M112.23,54.86c0-2.56,2-4.45,4.86-4.45S122,52.3,122,54.86s-2,4.44-4.86,4.44-4.86-1.89-4.86-4.44m8.53,0a3.68,3.68,0,1,0-3.67,3.51,3.49,3.49,0,0,0,3.67-3.51" transform="translate(0 0)"/><path class="cls-2" d="M127.35,50.63h2.84c1.54,0,3.09.52,3.09,2.08a2,2,0,0,1-1.64,1.91v0a2.16,2.16,0,0,1,2.11,2.08c0,1.86-1.91,2.36-3.63,2.36h-2.77V50.63Zm1.1,3.58H130c1,0,2.11-.2,2.11-1.37s-1-1.28-2-1.28h-1.65v2.65Zm0,3.94h1.87c1.08,0,2.25-.39,2.25-1.47s-1.11-1.54-2.22-1.54h-1.9v3Z" transform="translate(0 0)"/><polygon class="cls-2" points="139.07 50.63 140.18 50.63 140.18 59.08 139.07 59.08 139.07 50.63 139.07 50.63"/><path class="cls-2" d="M150.9,52.12a2,2,0,0,0-1.7-.77c-1,0-2,.41-2,1.42,0,.77.47,1.12,2,1.55s2.78.85,2.78,2.51-1.59,2.47-3.27,2.47a3.5,3.5,0,0,1-2.86-1.17l.94-.71a2.35,2.35,0,0,0,2,.95c.94,0,2-.5,2-1.47s-.78-1.22-2.43-1.72c-1.31-.4-2.31-.92-2.31-2.33,0-1.63,1.53-2.44,3.16-2.44a3.37,3.37,0,0,1,2.6,1l-.9.72Z" transform="translate(0 0)"/><path class="cls-2" d="M157.76,50.63h2.76c1.71,0,3.25.55,3.25,2.32s-1.73,2.34-3,2.34h-1.87v3.79h-1.1V50.63Zm1.1,3.72h1.87c1.1,0,1.86-.45,1.86-1.39s-.76-1.4-1.86-1.4h-1.87v2.79Z" transform="translate(0 0)"/><path class="cls-2" d="M168,54.86c0-2.56,2-4.45,4.86-4.45s4.87,1.89,4.87,4.45-2,4.44-4.87,4.44S168,57.41,168,54.86m8.54,0a3.68,3.68,0,1,0-3.68,3.51,3.5,3.5,0,0,0,3.68-3.51" transform="translate(0 0)"/><path class="cls-2" d="M6.3,4.09A19,19,0,0,1,18.74,0a26.56,26.56,0,0,1,7.9,1.64,4.19,4.19,0,0,0,1.44.28c0,1.11.31,4.15.52,7.1a1.24,1.24,0,0,1-1.46,0C26.63,5.72,25,1.83,18,1.83,10.7,1.83,5.4,7.77,5.4,16.13c0,8.54,6.14,15.22,13.06,15.22,6.16,0,8.5-3.47,9.68-6.28a1.25,1.25,0,0,1,1.41.24A19.29,19.29,0,0,1,27.07,32c-.77.16-1.32.3-1.86.43a34.78,34.78,0,0,1-7.12.71c-4.69,0-8-.66-11.6-3.07C2.32,27.3,0,22.09,0,16.85A15.72,15.72,0,0,1,6.3,4.09" transform="translate(0 0)"/><path class="cls-2" d="M63.17,13.7c0-3.94-.22-4.17-2.66-4.57L59.43,9c-.39-.29-.34-1.26.12-1.43,2.21.12,4,.18,5.77.18s3.57-.06,5.44-.17c.45.17.51,1.14.11,1.43l-.73.17c-2.38.57-2.66.62-2.67,4.56V26c0,1.77.11,3.37.62,3.94s1,.92,3.89.92c3.46,0,5.55-.17,7.2-4.74a1,1,0,0,1,1.47.23A21.56,21.56,0,0,1,79,32.67c-1.76-.06-3.4-.12-5-.12s-3-.06-4.47-.06H65.32c-1.82,0-3.57.06-5.78.17-.45-.17-.51-1.14-.11-1.43l1.07-.17c2.44-.4,2.66-.63,2.66-4.57V13.7Z" transform="translate(0 0)"/><path class="cls-2" d="M57.13,31.25l-.91-.17c-2-.4-2.54-1.14-3.22-3L47.91,14.4C47.1,12.25,46.45,9.84,46,8.52a3,3,0,0,0-.31-.68.46.46,0,0,0-.44-.25h0a23.21,23.21,0,0,1-2.56.12c-1.24-.07-2.37-.19-3.52-.18a.76.76,0,0,0-.45.8.84.84,0,0,0,.34.79,4.85,4.85,0,0,1,2.46,1.11A25.43,25.43,0,0,1,40.25,14l-5,13.23c-1.13,2.74-1.75,3.37-3.51,3.77l-1.3.28a.92.92,0,0,0,.11,1.43c1-.06,2.38-.17,4-.17s3.05.06,4.47.17c.57-.11.62-1.14.17-1.42L37.65,31c-1.08-.23-1.25-.46-.62-2.29L38.33,25c.46-1.32.63-1.37,1.93-1.37h5.38c1.3,0,1.47.06,1.92,1.37l1.36,3.71c.68,1.78.73,2.12-.73,2.35l-1.14.17a.84.84,0,0,0,.11,1.43c1.42-.12,3.06-.17,5.1-.17s3.23.05,4.7.17c.57-.11.68-1.14.17-1.43m-12.4-9.43H41.06c-1.25,0-1.83-.21-1.2-1.75L41.74,15c.53-1.31.8-1.88.87-2h0c.07-.14.14-.22.19-.23s.32.23.43.53A15.63,15.63,0,0,1,44,15.2l1.81,4.85c.62,1.66.44,1.77-1,1.77" transform="translate(0 0)"/><path class="cls-2" d="M153.07,13.7c0-3.94.08-4.17-2.36-4.57L149.64,9c-.4-.29-.34-1.26.11-1.43,2.21.12,3.66.18,5.47.18s3.57-.06,5.44-.17c.45.17.51,1.14.11,1.43l-.74.17c-2.37.57-2.66.62-2.66,4.56V26c0,1.77.11,3.37.62,3.94s1.6.92,4.54.92c3.45,0,5.55-.17,7.19-4.74a1,1,0,0,1,1.47.23,21,21,0,0,1-1.7,6.34c-1.75-.06-3.39-.12-5-.12s-3-.06-4.47-.06h-4.82c-1.82,0-3.1.06-5.31.17-.45-.17-.51-1.14-.11-1.43l1.08-.17c2.43-.4,2.18-.63,2.18-4.57V13.7Z" transform="translate(0 0)"/><g class="cls-3"><path class="cls-2" d="M146.21,20c0,7.71-5.78,13.3-13.77,13.3-8.78,0-14-5.78-14-13,0-7.6,5.78-13.42,14-13.42,9.12,0,13.76,6.12,13.76,13.09m-22.94-.58c0,5.88,2.89,12.22,9.46,12.22,4.3,0,8.67-3,8.67-10.79,0-6.11-3.11-12.28-9.34-12.28-4.08,0-8.79,2.8-8.79,10.85" transform="translate(0 0)"/><path class="cls-2" d="M180.75,24.94c0-1.77-.17-2.23-1.58-4.85L175,12.38c-1.19-2.29-1.76-2.8-3.23-3.09L170.34,9a1,1,0,0,1,.17-1.43c1.87.11,3.17.17,5.21.17,1.7,0,3-.06,4.81-.17A.86.86,0,0,1,180.59,9l-.79.17c-1.25.29-1.42.63-.51,2.4l2.09,4.05c.85,1.72,1.69,3.26,2.55,4.75.9-1.55,1.75-2.92,2.72-4.74l2.26-4.17c.85-1.6,1-2.12-.39-2.29L187.33,9a.84.84,0,0,1,.11-1.43c1.7.12,3,.18,4.3.18s2.44-.06,4-.17A.93.93,0,0,1,195.88,9l-1.36.28c-1.76.34-2,.68-3.79,3.54l-3.52,5.71c-2,3.25-2.15,3.83-2.15,5.48v3.08c0,3.37.23,3.72,2.67,4l1.41.18c.4.28.34,1.25-.11,1.42-2.5-.11-4.36-.17-6.12-.17s-3.57.06-6.12.17c-.45-.18-.5-1.14-.11-1.43l1.42-.17c2.43-.29,2.66-.63,2.66-4V24.94Z" transform="translate(0 0)"/></g><path class="cls-2" d="M99.91,25.12c0,4.78.19,5.92,4.19,6l1.41.15a1.17,1.17,0,0,1-.1,1.35c-2.71-.09-5.69-.14-7.59-.14s-4.64.05-6.73.14A1.16,1.16,0,0,1,91,31.26l1.12-.14c2.91-.34,3.51-.5,3.4-6V7.61c0-4.07-.09-4.93-2.23-5.13l-1.7-.19a.8.8,0,0,1,.09-1.2,84.08,84.08,0,0,1,9.89-.38c4,0,7.75.71,10.06,2,3.7,2,5.19,5.08,5.19,8.19,0,4.65-3.79,7.42-6.64,8.27a21.92,21.92,0,0,1-7.86.47c-.36-.05-.06-.93.24-.93,6.28.05,9.2-2.58,9.38-7.72.22-6.1-3.67-8.56-8.65-8.56-2.52,0-3.38.26-3.38,1.79V25.12Z" transform="translate(0 0)"/><polygon class="cls-2" points="2.31 42.98 194.13 42.98 194.13 42.13 2.31 42.13 2.31 42.98 2.31 42.98"/></g></g></svg>