<svg xmlns="http://www.w3.org/2000/svg" viewBox="0 0 212.41 68.17"><defs><style>.cls-1{fill:#232e65;}.cls-2{fill:#fff;}.cls-3{fill:#a51e22;}.cls-4,.cls-5,.cls-6{fill:none;stroke-miterlimit:3.86;}.cls-4{stroke:#a51e22;}.cls-4,.cls-5{stroke-width:0.08px;}.cls-5,.cls-6{stroke:#232e65;}.cls-6{stroke-width:0.17px;}</style></defs><title>upenn</title><g id="Layer_2" data-name="Layer 2"><g id="Layer_1-2" data-name="Layer 1"><path class="cls-1" d="M79.35,26.32a16.81,16.81,0,0,0,6.58.93c7.88,0,12.88-4.26,12.88-11.49,0-5.65-3.15-13.25-12.88-13.25H79.35V26.32Zm0,17.24c0,6.58,1.57,8.44,6,8.44v1.57H66.28V52c3.71,0,6-1.21,6-8.25V10.48C72.3,4,70.73,2,66.28,2V.47H85.65c14.64,0,20.57,7.78,20.57,15.1,0,8.81-6.67,13.72-18.72,13.72a60.42,60.42,0,0,1-8.15-.56" transform="translate(-0.39 -0.4)"/><path class="cls-1" d="M125.31,32c.28-7.23-4.63-10.2-8.8-10.2-5.47,0-8.71,4.08-9.08,10.2Zm-17.88,1.57C107.24,48.29,116.05,52,120.5,52s6.85-1.58,11.58-6.86v2.41c-4,5.09-7.78,7-13.53,7-10.29,0-17.7-7.13-17.7-17.05s7.23-17.7,16.49-17.7C125,19.84,132,26,131.53,33.55" transform="translate(-0.39 -0.4)"/><path class="cls-1" d="M167.11,46.44c0,4.26.93,5.56,5.56,5.56v1.57H155.16V52c4.44,0,5.65-1,5.65-4.08V30.77c0-5.28-3.8-7.5-7.32-7.5-3.25,0-6.12,2-9.36,6.39v16c0,5,.65,6.31,5.56,6.31v1.57H132.36V52c4.35,0,5.47-.38,5.47-6.31V27.25c0-4-1-4.82-5.47-4.82V20.86l10.19-1h1.58v6.58C148,22,151.82,19.84,156,19.84c5.47,0,11.12,3.89,11.12,11.77" transform="translate(-0.39 -0.4)"/><path class="cls-1" d="M207.24,46.44c0,4.26.93,5.56,5.56,5.56v1.57H195.28V52c4.45,0,5.66-1,5.66-4.08V30.77c0-5.28-3.8-7.5-7.32-7.5-3.25,0-6.12,2-9.37,6.39v16c0,5,.65,6.31,5.57,6.31v1.57H172.48V52c4.36,0,5.47-.38,5.47-6.31V27.25c0-4-1-4.82-5.47-4.82V20.86l10.2-1h1.57v6.58c3.9-4.45,7.7-6.58,11.87-6.58,5.47,0,11.12,3.89,11.12,11.77" transform="translate(-0.39 -0.4)"/><path class="cls-1" d="M68.16,63c0,1.47.4,2.59,2,2.59s2.2-1,2.2-2.65V60a3.06,3.06,0,0,0-.07-.57c-.05-.38-.41-.52-.9-.58V58.6h2.48v.27c-.5.06-.85.2-.9.58a4.23,4.23,0,0,0-.07.57v3c0,2.26-1.44,3.11-2.79,3.11-2.24,0-2.94-1.14-2.94-3V59.92c0-1,0-.93-.9-1.05V58.6h2.83v.27c-.95.12-.91.07-.91,1.05" transform="translate(-0.39 -0.4)"/><path class="cls-1" d="M79.79,66c-1.29-1.52-2.62-3.12-4-4.68v3.59a4.28,4.28,0,0,0,0,.43c0,.3.32.41.85.45V66h-2v-.21c.39,0,.65-.15.69-.45a2.55,2.55,0,0,0,0-.43V61a1.13,1.13,0,0,0-.94-.55v-.21H76l3.67,4.43h0V61.38a2.67,2.67,0,0,0,0-.44c0-.29-.32-.41-.85-.45v-.21h2v.21c-.39,0-.66.16-.7.45a2.67,2.67,0,0,0-.05.44V66" transform="translate(-0.39 -0.4)"/><path class="cls-1" d="M84,64.94c0,.76,0,.72.69.81V66H82.47v-.21c.73-.09.7,0,.7-.81V61.3c0-.76,0-.72-.7-.81v-.21h2.18v.21c-.73.09-.69,0-.69.81" transform="translate(-0.39 -0.4)"/><path class="cls-1" d="M88.11,60.49c-.45,0-.77.13-.5.91.31,1,.78,2.35,1.21,3.59.51-1.24,1-2.49,1.51-3.73.21-.51,0-.77-.56-.77v-.21h1.75v.21a.68.68,0,0,0-.67.49l-2,5h-.41c-.5-1.4-1-3-1.55-4.35-.3-.86-.55-1.12-.94-1.12v-.21h2.21" transform="translate(-0.39 -0.4)"/><path class="cls-1" d="M92.77,65.75c.73-.09.7,0,.7-.81V61.3c0-.76,0-.72-.7-.81v-.21H96.4v1.31h-.21c-.08-.6-.24-1.05-.83-1.05h-1.1v2.32h.68c.51,0,.73-.2.75-.71h.21v1.73h-.21c0-.47-.21-.76-.75-.76h-.68V65c0,.69.32.75,1,.75,1.17,0,1.11-.33,1.49-1.2H97L96.76,66h-4" transform="translate(-0.39 -0.4)"/><path class="cls-1" d="M99.73,63.19h.68c.7,0,1-.54,1-1.46s-.49-1.19-1.08-1.19h-.63v2.65Zm-1.48-2.91h2.36a1.46,1.46,0,0,1,1.64,1.38,1.74,1.74,0,0,1-1.14,1.66l.8,1.2a5.58,5.58,0,0,0,1.14,1.34V66h-.83c-.48,0-.74-.88-1.72-2.52h-.77V65c0,.75,0,.71.7.8V66H98.25v-.21c.73-.09.7,0,.7-.8V61.3c0-.76,0-.72-.7-.81" transform="translate(-0.39 -0.4)"/><path class="cls-1" d="M107.07,61.49a1,1,0,0,0-1-1,.8.8,0,0,0-.9.84c0,.57.57.91,1.38,1.52s1.14,1.05,1.14,1.73c0,1-1,1.5-2,1.5a3.81,3.81,0,0,1-1.38-.26.13.13,0,0,1-.06-.12V64.52h.21a1.25,1.25,0,0,0,1.31,1.25,1,1,0,0,0,1-1c0-.52-.28-.95-1.5-1.76a1.66,1.66,0,0,1-1-1.49c0-.73.81-1.3,1.75-1.3a3.9,3.9,0,0,1,1.13.15s.06,0,.06.09v1.06" transform="translate(-0.39 -0.4)"/><path class="cls-1" d="M110.61,64.94c0,.76,0,.72.7.81V66h-2.18v-.21c.73-.09.7,0,.7-.81V61.3c0-.76,0-.72-.7-.81v-.21h2.18v.21c-.73.09-.7,0-.7.81" transform="translate(-0.39 -0.4)"/><path class="cls-1" d="M115.32,64.94c0,.76,0,.72.7.81V66h-2.19v-.21c.73-.09.7,0,.7-.81v-4.4h-.73c-.7,0-.87.45-1.13,1h-.21l.22-1.24h4.49l.22,1.24h-.21c-.26-.53-.43-1-1.13-1h-.73" transform="translate(-0.39 -0.4)"/><path class="cls-1" d="M119.75,65.75c.73-.09.7,0,.7-.81V63.7l-1.26-2.48c-.26-.53-.49-.73-.86-.73v-.21h2.07v.21c-.62,0-.56.31-.36.73l1,2,1.12-2c.28-.49,0-.73-.46-.73v-.21h1.67v.21c-.23,0-.45.11-.67.5l-1.35,2.45a1.46,1.46,0,0,0-.1.6v.9c0,.76,0,.72.7.81V66h-2.18" transform="translate(-0.39 -0.4)"/><path class="cls-1" d="M130.72,62c0-1.1-.66-1.14-.83-1.14-1.13,0-1.88,2-1.88,3.41,0,.54.1,1.53.87,1.53,1.2,0,1.84-2,1.84-3.8ZM127,64c0-1.38,1.19-3.44,3-3.44,1.4,0,1.7.94,1.7,1.89,0,1.16-.93,3.62-2.93,3.62C127.41,66.09,127,65,127,64" transform="translate(-0.39 -0.4)"/><path class="cls-1" d="M137,60.93l-.25.22h-1.38a63.75,63.75,0,0,1-2,7.43h-.47l1.5-7.43h-1l.09-.45h1a3,3,0,0,1,2.85-2.47,1.86,1.86,0,0,1,.9.19l-.13.7-.26.12a1.1,1.1,0,0,0-.92-.61c-.63,0-1.11.43-1.36,1.57l-.11.5H137" transform="translate(-0.39 -0.4)"/><path class="cls-1" d="M143.39,64.65c0,1,0,.92.91,1V66h-2.83v-.27c.94-.12.9-.07.9-1V59.92c0-1,0-.93-.9-1.05V58.6h2.75c1.75,0,2.61.69,2.61,2,0,1.51-1.37,2.33-3,2.23v-.21a1.72,1.72,0,0,0,1.93-1.92c0-1.18-.57-1.72-1.75-1.72h-.64" transform="translate(-0.39 -0.4)"/><path class="cls-1" d="M148.28,65.75c.73-.09.7,0,.7-.81V61.3c0-.76,0-.72-.7-.81v-.21h3.63v1.31h-.22c-.08-.6-.24-1.05-.82-1.05h-1.11v2.32h.68c.52,0,.74-.2.75-.71h.21v1.73h-.21c0-.47-.2-.76-.75-.76h-.68V65c0,.69.32.75,1.05.75,1.18,0,1.12-.33,1.49-1.2h.21L152.27,66h-4" transform="translate(-0.39 -0.4)"/><path class="cls-1" d="M159,66c-1.29-1.52-2.62-3.12-3.95-4.68v3.59a4.28,4.28,0,0,0,.05.43c0,.3.32.41.85.45V66h-2v-.21c.39,0,.65-.15.69-.45a2.55,2.55,0,0,0,0-.43V61a1.12,1.12,0,0,0-.94-.55v-.21h1.48l3.67,4.43h0V61.38a2.67,2.67,0,0,0,0-.44c0-.29-.31-.41-.85-.45v-.21h2v.21c-.38,0-.66.16-.7.45a2.67,2.67,0,0,0-.05.44V66" transform="translate(-0.39 -0.4)"/><path class="cls-1" d="M166.22,66c-1.29-1.52-2.62-3.12-3.95-4.68v3.59a4.28,4.28,0,0,0,0,.43c0,.3.32.41.85.45V66h-2v-.21c.38,0,.65-.15.69-.45a2.55,2.55,0,0,0,.05-.43V61a1.15,1.15,0,0,0-.94-.55v-.21h1.48l3.67,4.43h0V61.38a2.67,2.67,0,0,0,0-.44c0-.29-.32-.41-.85-.45v-.21h2v.21c-.39,0-.66.16-.7.45a2.67,2.67,0,0,0-.05.44V66" transform="translate(-0.39 -0.4)"/><path class="cls-1" d="M171.5,61.49a1,1,0,0,0-1-1,.8.8,0,0,0-.89.84c0,.57.57.91,1.38,1.52s1.13,1.05,1.13,1.73c0,1-1,1.5-2,1.5a3.86,3.86,0,0,1-1.39-.26.12.12,0,0,1-.05-.12V64.52h.21a1.25,1.25,0,0,0,1.3,1.25,1,1,0,0,0,1-1c0-.52-.28-.95-1.5-1.76a1.65,1.65,0,0,1-1-1.49c0-.73.81-1.3,1.74-1.3a4,4,0,0,1,1.14.15c.05,0,.06,0,.06.09v1.06" transform="translate(-0.39 -0.4)"/><path class="cls-1" d="M174.77,65.75c.73-.09.7,0,.7-.81V63.7l-1.25-2.48c-.27-.53-.49-.73-.87-.73v-.21h2.07v.21c-.61,0-.56.31-.35.73l1,2,1.12-2c.27-.49,0-.73-.47-.73v-.21h1.68v.21c-.23,0-.45.11-.67.5l-1.35,2.45a1.31,1.31,0,0,0-.1.6v.9c0,.76,0,.72.69.81V66h-2.18" transform="translate(-0.39 -0.4)"/><path class="cls-1" d="M179.7,65.75c.74-.09.7,0,.7-.81V61.3c0-.76,0-.72-.7-.81v-.21h2.19v.21c-.73.09-.7,0-.7.81v3.77c0,.57.32.63,1,.63,1.18,0,1.13-.33,1.5-1.2h.2L183.69,66h-4" transform="translate(-0.39 -0.4)"/><path class="cls-1" d="M186.76,60.49c-.44,0-.77.13-.5.91.32,1,.79,2.35,1.21,3.59.52-1.24,1-2.49,1.52-3.73.2-.51,0-.77-.56-.77v-.21h1.75v.21a.67.67,0,0,0-.67.49q-1,2.49-2.06,5H187c-.5-1.4-1-3-1.54-4.35-.3-.86-.55-1.12-.94-1.12v-.21h2.2" transform="translate(-0.39 -0.4)"/><path class="cls-1" d="M193.49,63.77l-.86-2.64h0l-1,2.64Zm-2,.31-.37,1.08a.41.41,0,0,0,.41.59V66h-1.48v-.21a.68.68,0,0,0,.59-.41c.35-.71,1.29-3.36,2-5.16h.45c.55,1.64,1.38,4.13,1.66,4.85.17.46.3.72.65.72V66h-1.89v-.21c.52,0,.56-.27.43-.63l-.35-1" transform="translate(-0.39 -0.4)"/><path class="cls-1" d="M201.65,66l-4-4.68v3.59a2.55,2.55,0,0,0,.05.43c0,.3.32.41.85.45V66h-2v-.21c.39,0,.66-.15.7-.45a2.55,2.55,0,0,0,.05-.43V61a1.15,1.15,0,0,0-.94-.55v-.21h1.47c1.21,1.47,2.47,3,3.68,4.43h0V61.38c0-.17,0-.31,0-.44,0-.29-.32-.41-.85-.45v-.21h2v.21c-.38,0-.66.16-.7.45,0,.13,0,.27,0,.44V66" transform="translate(-0.39 -0.4)"/><path class="cls-1" d="M205.49,64.94c0,.76,0,.72.69.81V66H204v-.21c.73-.09.7,0,.7-.81V61.3c0-.76,0-.72-.7-.81v-.21h2.18v.21c-.73.09-.69,0-.69.81" transform="translate(-0.39 -0.4)"/><path class="cls-1" d="M210.84,63.77,210,61.13h0l-1,2.64Zm-2,.31-.38,1.08a.41.41,0,0,0,.41.59V66h-1.48v-.21a.68.68,0,0,0,.59-.41c.35-.71,1.3-3.36,2-5.16h.45c.56,1.64,1.38,4.13,1.66,4.85.18.46.31.72.66.72V66h-1.89v-.21c.51,0,.55-.27.42-.63l-.34-1" transform="translate(-0.39 -0.4)"/><path class="cls-2" d="M.5.48H58.69v29.1c-.39,23.71-27,36.18-30.31,36.06S.42,53.33.49,29.45c0-.43,0-29,0-29" transform="translate(-0.39 -0.4)"/><path class="cls-3" d="M.49,18.16C.58,18.25.49.49.49.49H58.65V18.16" transform="translate(-0.39 -0.4)"/><path class="cls-4" d="M.49,18.16C.58,18.25.49.49.49.49H58.65V18.16Z" transform="translate(-0.39 -0.4)"/><path class="cls-1" d="M3.75,44a33.12,33.12,0,0,0,8.88,11.71L29.57,38.63l16.3,16.72a42.53,42.53,0,0,0,9-11.2L29.55,19.81,3.87,44.09" transform="translate(-0.39 -0.4)"/><path class="cls-5" d="M3.75,44a33.12,33.12,0,0,0,8.88,11.71L29.57,38.63l16.3,16.72a42.53,42.53,0,0,0,9-11.2L29.55,19.81,3.87,44.09,3.75,44ZM.49,18.28H58.65" transform="translate(-0.39 -0.4)"/><path class="cls-2" d="M44.08,4.88h1.58c1.16-.27,1.58-.94,2.77-.94.86,0,1.26.57,1.89.57s1.35-.61,2.24-.61,1.37.55,2,.81a5.24,5.24,0,0,0,2,.21c0,.54,0,.85,0,1.3s.61.27.61,1-.79.62-.79.94l0,2.89c0,.36.77.4.77.95,0,.82-.81.53-.76,1.18,0,.47,0,1.47,0,1.47-1.56,0-11.62.1-12.11.08a9.1,9.1,0,0,1,.23-1.53c0-.41-.9-.67-.9-1.37,0-.48.56-.45.61-.91V8.05c0-.38-.88-.57-.85-1.11s.79-.56.79-1c0-.19,0-.89,0-1.07" transform="translate(-0.39 -0.4)"/><path class="cls-5" d="M44.08,4.88h1.58c1.16-.27,1.58-.94,2.77-.94.86,0,1.26.57,1.89.57s1.35-.61,2.24-.61,1.37.55,2,.81a5.24,5.24,0,0,0,2,.21c0,.54,0,.85,0,1.3s.61.27.61,1-.79.62-.79.94l0,2.89c0,.36.77.4.77.95,0,.82-.81.53-.76,1.18,0,.47,0,1.47,0,1.47-1.56,0-11.62.1-12.11.08a9.1,9.1,0,0,1,.23-1.53c0-.41-.9-.67-.9-1.37,0-.48.56-.45.61-.91V8.05c0-.38-.88-.57-.85-1.11s.79-.56.79-1c0-.19,0-.89,0-1.07Zm1.29,0s0,6.44,0,8c0,0,9.38,0,9.79,0,0-1.71,0-8,0-8m-4.88-.35V12.9" transform="translate(-0.39 -0.4)"/><path class="cls-1" d="M50.42,11.87a12.07,12.07,0,0,1,1.91.52,20.21,20.21,0,0,0,2.71.24c.24,0-4.62.08-4.62.08,0-.94,0-.84,0-.84" transform="translate(-0.39 -0.4)"/><path class="cls-5" d="M50.42,11.87a12.07,12.07,0,0,1,1.91.52,20.21,20.21,0,0,0,2.71.24c.24,0-4.62.08-4.62.08,0-.94,0-.84,0-.84Z" transform="translate(-0.39 -0.4)"/><path class="cls-1" d="M49.72,13.11c0-.21.25-.38.55-.38s.54.17.54.38-.24.38-.54.38-.55-.17-.55-.38" transform="translate(-0.39 -0.4)"/><path class="cls-5" d="M49.72,13.11c0-.21.25-.38.55-.38s.54.17.54.38-.24.38-.54.38-.55-.17-.55-.38Z" transform="translate(-0.39 -0.4)"/><path class="cls-1" d="M50,11.87a12.07,12.07,0,0,0-1.91.52,20.21,20.21,0,0,1-2.71.24c-.24,0,4.62.08,4.62.08,0-.94,0-.84,0-.84" transform="translate(-0.39 -0.4)"/><path class="cls-5" d="M50,11.87a12.07,12.07,0,0,0-1.91.52,20.21,20.21,0,0,1-2.71.24c-.24,0,4.62.08,4.62.08,0-.94,0-.84,0-.84Z" transform="translate(-0.39 -0.4)"/><path class="cls-2" d="M17.77,15.51a1.32,1.32,0,0,0,1.38,1,6.73,6.73,0,0,0,3.58-1.63A2.32,2.32,0,0,0,24,13l-.12.38s1.1-1.1,3.81-.23c.76.24,4,2.05,4.68,2.35a8.77,8.77,0,0,0,6,1.18s5-.69,3.9-5.86c-.8-3.69-.56-3.95-.25-5.13-.12-.06-3.07-.72-3,3.37-1.28.13-2.91,1.1-1.85,3.63A2.41,2.41,0,0,1,39,11.34c.5,0,1,.72,1.06,1.25.08,1.29-1.22,1.86-2.83,1.59-.82-.13-1.57-1-2.7-1.86.2-.09.38-.75.38-1,0-.65-.56-1-.94-1.17a2.76,2.76,0,0,0,.23-.76c0-.52-.73-.48-1-.68.12-.16.12-.07.12-.31,0-.75.12-1.17-1.42-1.13.13-.75,0-1.23-.55-1.44L30.2,5.66c-.71-.14,0-.37-.65-1s-1.55,0-1.55,0a.91.91,0,0,0-1-.94,2.34,2.34,0,0,0-1,.16l-.47.37c-.59,0-.74-.53-1.42-.53s-.95.53-1.21.88C22.46,4.38,22.4,4,21.79,4c-.37,0-.48.39-.63.57-.41.44-.38.9-1,1.13l-.23-.41a.24.24,0,0,1,0-.08c-.93.45-3,5.2-3,6.18s.81.52.81,1.51c0,.59-.87,1-.87,1.52s.74.94,1.38.94" transform="translate(-0.39 -0.4)"/><path class="cls-5" d="M17.77,15.51a1.32,1.32,0,0,0,1.38,1,6.73,6.73,0,0,0,3.58-1.63A2.32,2.32,0,0,0,24,13l-.12.38s1.1-1.1,3.81-.23c.76.24,4,2.05,4.68,2.35a8.77,8.77,0,0,0,6,1.18s5-.69,3.9-5.86c-.8-3.69-.56-3.95-.25-5.13-.12-.06-3.07-.72-3,3.37-1.28.13-2.91,1.1-1.85,3.63A2.41,2.41,0,0,1,39,11.34c.5,0,1,.72,1.06,1.25.08,1.29-1.22,1.86-2.83,1.59-.82-.13-1.57-1-2.7-1.86.2-.09.38-.75.38-1,0-.65-.56-1-.94-1.17a2.76,2.76,0,0,0,.23-.76c0-.52-.73-.48-1-.68.12-.16.12-.07.12-.31,0-.75.12-1.17-1.42-1.13.13-.75,0-1.23-.55-1.44L30.2,5.66c-.71-.14,0-.37-.65-1s-1.55,0-1.55,0a.91.91,0,0,0-1-.94,2.34,2.34,0,0,0-1,.16l-.47.37c-.59,0-.74-.53-1.42-.53s-.95.53-1.21.88C22.46,4.38,22.4,4,21.79,4c-.37,0-.48.39-.63.57-.41.44-.38.9-1,1.13l-.23-.41a.24.24,0,0,1,0-.08c-.93.45-3,5.2-3,6.18s.81.52.81,1.51c0,.59-.87,1-.87,1.52s.74.94,1.38.94l-.44.16Z" transform="translate(-0.39 -0.4)"/><path class="cls-1" d="M20,11.51s1,.4,1,.61-.66.6-1.1,1h-.55c.19-.64,0-.41,0-1a.66.66,0,0,1,.63-.61" transform="translate(-0.39 -0.4)"/><path class="cls-5" d="M20,11.51s1,.4,1,.61-.66.6-1.1,1h-.55c.19-.64,0-.41,0-1a.66.66,0,0,1,.63-.61Zm3.73-1.74c.53-.26.29-.91,1.14-.91s1.05.53,1.73.53c.47,0,.79-.46,1.42-.46a1.48,1.48,0,0,1,1.18,1.67A1.35,1.35,0,0,1,31,12.08c1.57-.53,1.41.77,1.57,1.4s1.18.11,1,1.4" transform="translate(-0.39 -0.4)"/><path class="cls-2" d="M2.69,4.93H4.27C5.44,4.67,5.86,4,7.05,4c.85,0,1.26.57,1.89.57S10.28,4,11.18,4s1.36.54,2,.8a5.25,5.25,0,0,0,2,.22c0,.53,0,.84,0,1.29s.61.27.61,1-.79.62-.79.94l0,2.89c0,.36.77.4.77,1,0,.82-.81.54-.76,1.18,0,.47,0,1.47,0,1.47H3c0-1.07,0-.93,0-1.44s-.91-.68-.91-1.38c0-.48.56-.45.61-.91V8.1c0-.38-.87-.56-.84-1.1s.78-.57.78-1c0-.19,0-.89,0-1.07" transform="translate(-0.39 -0.4)"/><path class="cls-5" d="M2.69,4.93H4.27C5.44,4.67,5.86,4,7.05,4c.85,0,1.26.57,1.89.57S10.28,4,11.18,4s1.36.54,2,.8a5.25,5.25,0,0,0,2,.22c0,.53,0,.84,0,1.29s.61.27.61,1-.79.62-.79.94l0,2.89c0,.36.77.4.77,1,0,.82-.81.54-.76,1.18,0,.47,0,1.47,0,1.47H3c0-1.07,0-.93,0-1.44s-.91-.68-.91-1.38c0-.48.56-.45.61-.91V8.1c0-.38-.87-.56-.84-1.1s.78-.57.78-1c0-.19,0-.89,0-1.07ZM4,5s0,6.44,0,8c0,0,9.38,0,9.79,0,0-1.72,0-8,0-8M8.89,4.58V13" transform="translate(-0.39 -0.4)"/><path class="cls-1" d="M9,11.92a11.52,11.52,0,0,1,1.91.52,20.49,20.49,0,0,0,2.72.24c.23.05-4.63.08-4.63.08a3.67,3.67,0,0,0,0-.84" transform="translate(-0.39 -0.4)"/><path class="cls-5" d="M9,11.92a11.52,11.52,0,0,1,1.91.52,20.49,20.49,0,0,0,2.72.24c.23.05-4.63.08-4.63.08a3.67,3.67,0,0,0,0-.84Z" transform="translate(-0.39 -0.4)"/><path class="cls-1" d="M8.34,13.16c0-.21.24-.38.54-.38s.55.17.55.38-.25.38-.55.38-.54-.17-.54-.38" transform="translate(-0.39 -0.4)"/><path class="cls-5" d="M8.34,13.16c0-.21.24-.38.54-.38s.55.17.55.38-.25.38-.55.38-.54-.17-.54-.38Z" transform="translate(-0.39 -0.4)"/><path class="cls-1" d="M8.61,11.92a11.72,11.72,0,0,0-1.9.52A20.49,20.49,0,0,1,4,12.68c-.23.05,4.62.08,4.62.08a3.67,3.67,0,0,1,0-.84" transform="translate(-0.39 -0.4)"/><path class="cls-5" d="M8.61,11.92a11.72,11.72,0,0,0-1.9.52A20.49,20.49,0,0,1,4,12.68c-.23.05,4.62.08,4.62.08a3.67,3.67,0,0,1,0-.84Z" transform="translate(-0.39 -0.4)"/><path class="cls-2" d="M10.49,42.1a5,5,0,0,1,5.08-4.89,4.89,4.89,0,1,1,0,9.78,5,5,0,0,1-5.08-4.89" transform="translate(-0.39 -0.4)"/><path class="cls-5" d="M10.49,42.1a5,5,0,0,1,5.08-4.89,4.89,4.89,0,1,1,0,9.78,5,5,0,0,1-5.08-4.89Z" transform="translate(-0.39 -0.4)"/><path class="cls-2" d="M24.45,30.36a5.08,5.08,0,1,1,5.08,4.88,5,5,0,0,1-5.08-4.88" transform="translate(-0.39 -0.4)"/><path class="cls-5" d="M24.45,30.36a5.08,5.08,0,1,1,5.08,4.88,5,5,0,0,1-5.08-4.88Z" transform="translate(-0.39 -0.4)"/><path class="cls-2" d="M37.62,42.1A5.08,5.08,0,1,1,42.7,47a5,5,0,0,1-5.08-4.89" transform="translate(-0.39 -0.4)"/><path class="cls-5" d="M37.62,42.1A5.08,5.08,0,1,1,42.7,47a5,5,0,0,1-5.08-4.89Zm-3-30C33.32,10.7,32.18,9,32,8.93c-.64-.26-2.16-3.29-6.25-3.52-1-.06-4.95.32-5.09,1.33m3.41,6.49a1.66,1.66,0,0,0,0-.32c0-.16-1-.07-1.19-.14s.42-.27.32-.27c.59-.23,2.1-.9,1.57-1.41s-.81-1-1.1-1.32a1.89,1.89,0,0,0-1.53-.65c-.6,0-1.57,1-2,1.33.3-.29,1.15-1,1.15-1.63,0-1.36-1.09-2.55-1.37-3.67M18.17,15.3a4.72,4.72,0,0,0,2.2-.34,4.53,4.53,0,0,0,1.81-1.48" transform="translate(-0.39 -0.4)"/><path class="cls-6" d="M.48.49h58.2V29.58c-.4,23.72-27,36.18-30.32,36.07S.4,53.33.47,29.46c0-.43,0-29,0-29Z" transform="translate(-0.39 -0.4)"/></g></g></svg>