<svg xmlns="http://www.w3.org/2000/svg" viewBox="0 0 162.29 48.91"><defs><style>.cls-1{fill:#f49819;}.cls-1,.cls-2{fill-rule:evenodd;}</style></defs><title>amazon</title><g id="Layer_2" data-name="Layer 2"><g id="Layer_1-2" data-name="Layer 1"><path class="cls-1" d="M100.69,38.25c-9.43,7-23.11,10.66-34.88,10.66a63.13,63.13,0,0,1-42.6-16.25c-.88-.8-.09-1.89,1-1.27A85.72,85.72,0,0,0,66.8,42.7a84.82,84.82,0,0,0,32.51-6.65c1.6-.68,2.94,1.05,1.38,2.2Z"/><path class="cls-1" d="M104.61,33.77c-1.21-1.55-8-.73-11-.37-.92.11-1.07-.69-.24-1.28,5.4-3.79,14.25-2.69,15.27-1.42s-.27,10.14-5.33,14.38c-.77.65-1.51.3-1.17-.56,1.14-2.84,3.69-9.21,2.48-10.75Z"/><path class="cls-2" d="M93.81,5.34V1.66a.92.92,0,0,1,.94-.94h16.51a.93.93,0,0,1,.95.93V4.81A5.2,5.2,0,0,1,111,7.13l-8.55,12.21a18.27,18.27,0,0,1,9.42,2,1.69,1.69,0,0,1,.88,1.43v3.93c0,.55-.6,1.17-1.22.85a19,19,0,0,0-17.44,0c-.58.3-1.18-.31-1.18-.86V23a4.45,4.45,0,0,1,.61-2.53l9.91-14.22H94.77a.92.92,0,0,1-1-.93Z"/><path class="cls-2" d="M33.58,28.35h-5a1,1,0,0,1-.9-.85V1.72a1,1,0,0,1,1-.93h4.67a1,1,0,0,1,.92.87V5h.09C35.54,1.77,37.84.25,40.93.25S46,1.77,47.45,5A7.42,7.42,0,0,1,60.2,3.07c1.6,2.17,1.27,5.32,1.27,8.08V27.42a1,1,0,0,1-1,.93h-5a.94.94,0,0,1-.9-.93V13.76a33.64,33.64,0,0,0-.14-4.83,2.62,2.62,0,0,0-3-2.22,3.33,3.33,0,0,0-3,2.11A15.76,15.76,0,0,0,48,13.76V27.42a.94.94,0,0,1-1,.93H42a.94.94,0,0,1-.91-.93V13.76c0-2.88.47-7.11-3.09-7.11s-3.47,4.12-3.47,7.11V27.42a.94.94,0,0,1-1,.93Z"/><path class="cls-2" d="M126.47,5.51c-3.71,0-3.94,5.05-3.94,8.19s0,9.88,3.89,9.88,4.08-5.43,4.08-8.74A23.68,23.68,0,0,0,129.75,8a3.15,3.15,0,0,0-3.28-2.5Zm0-5.26c7.46,0,11.49,6.4,11.49,14.54,0,7.86-4.45,14.1-11.49,14.1-7.31,0-11.3-6.4-11.3-14.37s4-14.27,11.3-14.27Z"/><path class="cls-2" d="M147.58,28.35h-5a.94.94,0,0,1-.9-.93V1.63a1,1,0,0,1,1-.84h4.66a.94.94,0,0,1,.89.72v4h.1c1.4-3.53,3.37-5.21,6.84-5.21a6.58,6.58,0,0,1,5.86,3c1.31,2.06,1.31,5.53,1.31,8V27.54a.94.94,0,0,1-1,.81h-5a1,1,0,0,1-.9-.81v-14c0-2.82.33-6.94-3.14-6.94a3.29,3.29,0,0,0-2.91,2.06,11.48,11.48,0,0,0-.79,4.88V27.42a1,1,0,0,1-1,.93Z"/><path class="cls-2" d="M85.71,28.29a1,1,0,0,1-1.18.11,12.09,12.09,0,0,1-2.88-3.34c-2.76,2.8-4.71,3.65-8.28,3.65-4.23,0-7.52-2.61-7.52-7.83a8.54,8.54,0,0,1,5.35-8.21c2.73-1.2,6.54-1.42,9.45-1.74v-.65A6.5,6.5,0,0,0,80,6.63a3.37,3.37,0,0,0-2.82-1.3,3.83,3.83,0,0,0-4,3,1.06,1.06,0,0,1-.87.93l-4.87-.53a.88.88,0,0,1-.75-1C67.81,1.78,73.14,0,77.92,0c2.45,0,5.64.65,7.57,2.5,2.44,2.28,2.21,5.33,2.21,8.65V19c0,2.36,1,3.39,1.89,4.66a.94.94,0,0,1,0,1.33c-1,.86-2.85,2.44-3.85,3.34ZM80.65,16c0,2,0,3.59-.94,5.33a4.09,4.09,0,0,1-3.48,2.28c-1.92,0-3-1.47-3-3.64C73.18,15.73,77,15,80.65,15V16Z"/><path class="cls-2" d="M19.87,28.29a1.06,1.06,0,0,1-1.19.11,12.09,12.09,0,0,1-2.88-3.34c-2.76,2.8-4.71,3.65-8.28,3.65C3.29,28.71,0,26.1,0,20.88a8.53,8.53,0,0,1,5.36-8.21c2.72-1.2,6.53-1.42,9.44-1.74v-.65c0-1.2.1-2.61-.61-3.65a3.37,3.37,0,0,0-2.82-1.3,3.83,3.83,0,0,0-4,3,1.05,1.05,0,0,1-.87.93L1.59,8.74a.88.88,0,0,1-.75-1C2,1.78,7.3,0,12.08,0c2.44,0,5.63.65,7.56,2.5,2.44,2.28,2.21,5.33,2.21,8.65V19c0,2.36,1,3.39,1.9,4.66a.94.94,0,0,1,0,1.33c-1,.86-2.85,2.44-3.85,3.34ZM14.8,16c0,2,0,3.59-.94,5.33a4.09,4.09,0,0,1-3.48,2.28c-1.92,0-3.05-1.47-3.05-3.64,0-4.28,3.84-5.06,7.47-5.06V16Z"/></g></g></svg>