<svg xmlns="http://www.w3.org/2000/svg" xmlns:xlink="http://www.w3.org/1999/xlink" viewBox="0 0 189.86 23.57"><defs><style>.cls-1{fill:url(#linear-gradient);}.cls-2{fill:#2681ff;}.cls-3{fill:#0052c9;}</style><linearGradient id="linear-gradient" x1="10.04" y1="166.44" x2="4.02" y2="156" gradientTransform="matrix(1, 0, 0, -1, 0, 178.95)" gradientUnits="userSpaceOnUse"><stop offset="0" stop-color="#0052c9"/><stop offset="0.92" stop-color="#2681ff"/></linearGradient></defs><title>atlassian</title><g id="Layer_2" data-name="Layer 2"><g id="Layer_1-2" data-name="Layer 1"><g id="Blue"><path class="cls-1" d="M6.9,10.76A.66.66,0,0,0,6,10.63a.6.6,0,0,0-.2.25L.07,22.29a.69.69,0,0,0,.31.92.78.78,0,0,0,.3.07h8a.65.65,0,0,0,.61-.38C11,19.35,9.91,14,6.9,10.76Z"/><path class="cls-2" d="M11.09.37a15,15,0,0,0-.89,14.87l3.85,7.66a.68.68,0,0,0,.61.38H22.6a.69.69,0,0,0,.68-.69.64.64,0,0,0-.08-.3L12.25.37a.64.64,0,0,0-1.16,0Z"/><path class="cls-3" d="M104.3,9.53c0,2.81,1.31,5.07,6.43,6.06,3.06.64,3.7,1.13,3.7,2.15s-.64,1.63-2.81,1.63a15.75,15.75,0,0,1-7.43-2V22a15.28,15.28,0,0,0,7.38,1.6c5.37,0,7.49-2.39,7.49-5.94m0,0c0-3.35-1.77-4.92-6.79-6-2.76-.61-3.43-1.23-3.43-2.11,0-1.11,1-1.57,2.81-1.57a16,16,0,0,1,6.47,1.6V5.16a14.56,14.56,0,0,0-6.33-1.31c-5,0-7.52,2.15-7.52,5.68"/><polygon class="cls-3" points="173.17 4.14 173.17 23.28 177.25 23.28 177.25 8.68 178.97 12.56 184.74 23.28 189.86 23.28 189.86 4.14 185.78 4.14 185.78 16.49 184.24 12.91 179.6 4.14 173.17 4.14"/><rect class="cls-3" x="142.77" y="4.14" width="4.46" height="19.14"/><path class="cls-3" d="M137.62,17.63c0-3.35-1.77-4.92-6.78-6-2.77-.61-3.44-1.23-3.44-2.11,0-1.11,1-1.57,2.81-1.57a16,16,0,0,1,6.47,1.6V5.16a14.56,14.56,0,0,0-6.33-1.31c-4.95,0-7.52,2.15-7.52,5.68,0,2.81,1.31,5.07,6.44,6.06,3.06.64,3.7,1.13,3.7,2.15s-.64,1.63-2.81,1.63a15.71,15.71,0,0,1-7.43-2V22a15.28,15.28,0,0,0,7.38,1.6c5.36,0,7.49-2.39,7.49-5.94"/><polygon class="cls-3" points="69.67 4.14 69.67 23.28 78.83 23.28 80.28 19.14 74.16 19.14 74.16 4.14 69.67 4.14"/><polygon class="cls-3" points="51.57 4.14 51.57 8.28 56.52 8.28 56.52 23.28 61.01 23.28 61.01 8.28 66.31 8.28 66.31 4.14 51.57 4.14"/><path class="cls-3" d="M45.06,4.14H39.18L32.5,23.28h5.12l.93-3.23a12.64,12.64,0,0,0,7.16,0l.94,3.23h5.1ZM42.12,16.61a8.57,8.57,0,0,1-2.46-.36L42.12,7.9l2.46,8.35A8.47,8.47,0,0,1,42.12,16.61Z"/><path class="cls-3" d="M94.63,4.14H88.75L82.07,23.28h5.1l1-3.23a12.57,12.57,0,0,0,7.14,0l.94,3.23h5.1ZM91.69,16.61a8.57,8.57,0,0,1-2.46-.36L91.69,7.9l2.46,8.35a8.57,8.57,0,0,1-2.46.36Z"/><path class="cls-3" d="M163.29,4.14h-5.88l-6.68,19.14h5.1l.95-3.23a12.57,12.57,0,0,0,7.14,0l.94,3.23H170Zm-2.94,12.47a8.57,8.57,0,0,1-2.46-.36l2.46-8.35,2.46,8.35a8.57,8.57,0,0,1-2.46.36Z"/></g></g></g></svg>