<svg xmlns="http://www.w3.org/2000/svg" viewBox="0 0 177.55 34.67"><defs><style>.cls-1{fill:#4767aa;}</style></defs><title>facebook</title><g id="Layer_2" data-name="Layer 2"><g id="Layer_1-2" data-name="Layer 1"><path class="cls-1" d="M98.67,26a3.64,3.64,0,0,1-4.14,3.19,5,5,0,0,1-1.41-.31,4.79,4.79,0,0,1-2.32-3.58h0c-.11-1.56-.23-4.83.53-6.37A3.61,3.61,0,0,1,94.59,17c2.13-.07,3.74,1,4.06,3.14a20.56,20.56,0,0,1,0,5.81ZM97.61,11.52a7.45,7.45,0,0,0-6.93,2.87v-.73h0V0L83.62.86V34.17h7.06v-2a13,13,0,0,0,3,1.89c4.11,1.48,9.54.27,11.44-5.23a18.35,18.35,0,0,0,.27-10.73c-1-4-3.66-6.16-7.75-6.6Z"/><path class="cls-1" d="M123,25.59c0,.15,0,.3-.08.44a4,4,0,0,1-7.87-.42,27.36,27.36,0,0,1,0-4.79,4,4,0,0,1,7.91-.84,21,21,0,0,1,.07,5.61Zm-.3-13.66a14.21,14.21,0,0,0-7.38,0,8.9,8.9,0,0,0-6.92,7,24,24,0,0,0-.41,6.22,9.52,9.52,0,0,0,7.72,9.14l.2,0h0l.52.09.18,0h0a7.24,7.24,0,0,0,.76.09,14.58,14.58,0,0,0,3,.05h.16a9.67,9.67,0,0,0,9.27-7.72,16.82,16.82,0,0,0,0-7.47,9.3,9.3,0,0,0-7.12-7.46Z"/><path class="cls-1" d="M16.57,11.82h-5V8.46c.37-3.17,5.61-2.56,5.61-2.56V.45h0C17,.4,6.71-2,4.68,5.76h0v.05a40.22,40.22,0,0,0-.3,6H0v6H4.64V34H11.4V17.78h5.17l.59-6Z"/><path class="cls-1" d="M32.12,25.92a3.58,3.58,0,0,1-3.87,3.23A3.75,3.75,0,0,1,24.44,26a19.1,19.1,0,0,1,.15-6.31A3.54,3.54,0,0,1,28.45,17a3.5,3.5,0,0,1,3.66,3.21,27.24,27.24,0,0,1,0,5.71Zm.58-11.25-.24-.25h0l0,0-.17-.17h0c-1.59-1.61-2.19-2-3.44-2.38a8.62,8.62,0,0,0-10.94,5.92,19.13,19.13,0,0,0-.39,9c1.15,6.5,6,8.67,11.14,7.6a6.68,6.68,0,0,0,3.85-2.68,2,2,0,0,0,.22-.36v2.86h6.59V11.84H32.7v2.83Z"/><path class="cls-1" d="M59.43,32.59c-.3-1.12-.65-2.22-1-3.29l-.31-1.19s-8.27,4-9.56-3.57a16.21,16.21,0,0,1,.09-3.75,4.06,4.06,0,0,1,4-3.78,9,9,0,0,1,2.31.1c1,.17,2,.48,3.14.75.39-1.19.79-2.37,1.16-3.56.06-.18.11-.34.15-.49h0l.18-.71a.88.88,0,0,0-.31-.29h0a3.51,3.51,0,0,0-1-.47l-.6-.21-.3-.09h0a17.38,17.38,0,0,0-6.67-.43c-4.77.51-8,3.32-8.91,8A18.17,18.17,0,0,0,41.86,27a9,9,0,0,0,6.66,7.11,16.33,16.33,0,0,0,7.19.35,21.91,21.91,0,0,0,3.51-1.06l.4-.14-.19-.63Z"/><path class="cls-1" d="M74.84,20.8H67.2c0-1.52.23-2.93,1.58-3.79a4.21,4.21,0,0,1,4.49-.13c1.49.82,1.61,2.31,1.57,3.92Zm6.35,3.05A37.33,37.33,0,0,0,81,19.23a8.26,8.26,0,0,0-7.24-7.5,19,19,0,0,0-4.82-.08c-4.35.42-7.66,3.13-8.34,7.22a26.09,26.09,0,0,0-.13,7.59c.5,3.74,2.32,6.13,5.48,7.27h0c1.44.43,8.48,2.27,14.69-.85L80.39,32h0c-.29-1.22-.63-2.43-1-3.63l0-.12-.36.12h0c-.27.07-.53.15-.8.24l-.15.05a26.85,26.85,0,0,1-3.7.77,18.92,18.92,0,0,1-3.61,0c-2-.32-3.48-1.38-3.41-3.88h13l.87,0v-.24l0-1.44Z"/><polygon class="cls-1" points="177.56 12.08 170.06 12.08 163.55 22.25 163.55 1.02 163.55 0.88 163.55 0.02 156.48 0.88 156.48 34.19 163.55 34.19 163.55 24 170.06 34.21 177.56 34.21 170.49 23.12 177.56 12.08 177.56 12.08"/><path class="cls-1" d="M147.05,25.59A3.39,3.39,0,0,1,147,26a3.72,3.72,0,0,1-4,3.12,3.76,3.76,0,0,1-3.87-3.54,27.37,27.37,0,0,1,0-4.79A4,4,0,0,1,147,20a21,21,0,0,1,.07,5.61Zm-.29-13.66a14.14,14.14,0,0,0-7.39,0,8.9,8.9,0,0,0-6.92,7,23.63,23.63,0,0,0-.4,6.23,9.52,9.52,0,0,0,7.71,9.14l.2,0h0l.53.1h.18a7.07,7.07,0,0,0,.76.1,14.58,14.58,0,0,0,3,.05h.16a9.68,9.68,0,0,0,9.27-7.73,16.82,16.82,0,0,0,0-7.47,9.28,9.28,0,0,0-7.11-7.45Z"/></g></g></svg>