<svg xmlns="http://www.w3.org/2000/svg" viewBox="0 0 182.73 60.15"><defs><style>.cls-1{fill:#e44335;}.cls-2{fill:#f5b605;}.cls-3{fill:#4280ee;}.cls-4{fill:#34a253;}</style></defs><title>google</title><g id="Layer_2" data-name="Layer 2"><g id="Layer_1-2" data-name="Layer 1"><path class="cls-1" d="M78.2,31.65a15.08,15.08,0,0,1-30.16,0,15.08,15.08,0,0,1,30.16,0Zm-6.6,0c0-5.4-3.93-9.1-8.48-9.1s-8.48,3.7-8.48,9.1,3.92,9.11,8.48,9.11S71.6,37,71.6,31.65Z"/><path class="cls-2" d="M110.72,31.65a15.08,15.08,0,0,1-30.15,0,15.08,15.08,0,0,1,30.15,0Zm-6.6,0c0-5.4-3.92-9.1-8.47-9.1s-8.48,3.7-8.48,9.1,3.92,9.11,8.48,9.11S104.12,37,104.12,31.65Z"/><path class="cls-3" d="M141.9,17.53v27c0,11.1-6.55,15.63-14.29,15.63a14.3,14.3,0,0,1-13.32-8.86L120,48.9a8.29,8.29,0,0,0,7.57,5.33c5,0,8-3,8-8.81V43.26h-.23a10.23,10.23,0,0,1-7.92,3.42c-7.51,0-14.4-6.55-14.4-15s6.89-15.09,14.4-15.09A10.46,10.46,0,0,1,135.4,20h.23V17.54h6.27Zm-5.8,14.18c0-5.29-3.53-9.16-8-9.16s-8.37,3.87-8.37,9.16,3.82,9,8.37,9S136.1,37,136.1,31.71Z"/><path class="cls-4" d="M152.23,1.71V45.76h-6.44v-44Z"/><path class="cls-1" d="M177.32,36.6,182.44,40a15,15,0,0,1-12.52,6.66,14.71,14.71,0,0,1-14.92-15c0-8.94,6.43-15,14.18-15s11.62,6.2,12.86,9.56l.69,1.71-20.1,8.32a7.66,7.66,0,0,0,7.29,4.55,8.58,8.58,0,0,0,7.4-4.16Zm-15.77-5.41L175,25.62c-.74-1.88-3-3.19-5.58-3.19A8.24,8.24,0,0,0,161.55,31.19Z"/><path class="cls-3" d="M23.67,27.74V21.37H45.16a21.07,21.07,0,0,1,.32,3.85c0,4.78-1.31,10.7-5.52,14.91s-9.34,6.55-16.28,6.55C10.82,46.68,0,36.2,0,23.34S10.82,0,23.68,0a22.24,22.24,0,0,1,16,6.43l-4.5,4.5a16.26,16.26,0,0,0-11.5-4.55,16.74,16.74,0,0,0-16.74,17,16.74,16.74,0,0,0,16.74,17,15.65,15.65,0,0,0,11.79-4.67,13.24,13.24,0,0,0,3.45-7.89Z"/></g></g></svg>