<svg xmlns="http://www.w3.org/2000/svg" viewBox="0 0 182.72 39.02"><defs><style>.cls-1{fill:#ee5022;}.cls-2{fill:#80b601;}.cls-3{fill:#777;}.cls-4{fill:#02a0eb;}.cls-5{fill:#ffb502;}</style></defs><title>microsoft</title><g id="Layer_2" data-name="Layer 2"><g id="Layer_1-2" data-name="Layer 1"><path class="cls-1" d="M0,0H18.56V18.56H0V0Z"/><path class="cls-2" d="M20.46,0H39V18.56H20.46V0Z"/><path class="cls-3" d="M167.38,7.07a7.31,7.31,0,0,1,5.85-.68c0,1.14,0,2.29,0,3.44a3.78,3.78,0,0,0-3-.27,2.34,2.34,0,0,0-1.34,1.87,25,25,0,0,0-.07,3h5.87c0-1.28,0-2.55,0-3.82,1.33-.38,2.65-.8,4-1.2,0,1.67,0,3.35,0,5h4V17.7c-1.33-.06-2.66,0-4,0,0,1.87,0,3.74,0,5.62,0,1,0,2.08.07,3.12a2,2,0,0,0,.87,1.6,3,3,0,0,0,3.05-.29V31a7.81,7.81,0,0,1-3.67.56,4.43,4.43,0,0,1-3.17-1.45,6,6,0,0,1-1.13-3.83c0-2.87,0-5.75,0-8.63h-5.88V31.21h-4q0-6.76,0-13.53c-.93,0-1.87,0-2.8,0q0-1.61,0-3.21c.93,0,1.85,0,2.78,0a17,17,0,0,1,.28-4.28,5.5,5.5,0,0,1,2.26-3.09Z"/><path class="cls-3" d="M81.43,7.31a2.46,2.46,0,0,1,2.23.78,2.3,2.3,0,0,1,.27,2.61,2.48,2.48,0,0,1-2.67,1.12A2.27,2.27,0,0,1,79.4,9.58a2.32,2.32,0,0,1,2-2.27Z"/><path class="cls-3" d="M50.67,7.8h5.84Q59.23,14.73,62,21.64c.47,1.16.9,2.32,1.39,3.47,2.34-5.77,4.71-11.52,7-17.29,1.87,0,3.74,0,5.62,0q0,11.7,0,23.4H72c0-5.76,0-11.52,0-17.28,0-.26,0-.52,0-.78a3.59,3.59,0,0,0-.21.38c-2.32,5.89-4.69,11.77-7,17.67-1,0-1.93,0-2.89,0q-3.59-8.85-7.14-17.7c-.06-.12-.13-.24-.2-.36,0,2.52,0,5.05,0,7.57V31.21H50.67V7.8Z"/><path class="cls-3" d="M92.48,14.42a11,11,0,0,1,6,0,4.53,4.53,0,0,1,1.14.48c0,1.27,0,2.55,0,3.83A6.36,6.36,0,0,0,95,17.35a4.67,4.67,0,0,0-3.34,1.85,6.49,6.49,0,0,0-1.06,4.64A4.74,4.74,0,0,0,96,28.3a7.72,7.72,0,0,0,3.6-1.48c0,1.21,0,2.42,0,3.64a9.84,9.84,0,0,1-5.49,1.13,8.14,8.14,0,0,1-5.23-2.18,8.38,8.38,0,0,1-2.43-5.62A10.1,10.1,0,0,1,88,17.57a8,8,0,0,1,4.45-3.15Z"/><path class="cls-3" d="M136.33,14.16a10.76,10.76,0,0,1,5.56.58v3.69a7.13,7.13,0,0,0-4.22-1.24,2.13,2.13,0,0,0-1.91,1.06,1.71,1.71,0,0,0,.58,2.05c1.14.76,2.49,1.09,3.67,1.77a5.24,5.24,0,0,1,2.3,2.19,4.88,4.88,0,0,1-1,5.64,7.64,7.64,0,0,1-5.59,1.7,12,12,0,0,1-4.08-.93c0-1.3,0-2.59,0-3.89a8.73,8.73,0,0,0,3.64,1.58A4.68,4.68,0,0,0,138,28.1a1.6,1.6,0,0,0,.48-2.28,4.81,4.81,0,0,0-1.75-1.15,16.69,16.69,0,0,1-3.47-1.77,4.17,4.17,0,0,1-1.5-2.28,5.09,5.09,0,0,1,.56-4,6,6,0,0,1,4-2.46Z"/><path class="cls-3" d="M108.57,14.69a4.52,4.52,0,0,1,3.72-.31v4a4.19,4.19,0,0,0-2.71-.64,3.34,3.34,0,0,0-2.52,2,7.53,7.53,0,0,0-.57,3.42v8h-3.95c0-5.58,0-11.18,0-16.77h4c0,1,0,1.92,0,2.88a5.16,5.16,0,0,1,2.08-2.63Z"/><path class="cls-3" d="M79.76,14.44c1.33,0,2.67,0,4,0,0,5.59,0,11.18,0,16.76h-4c0-5.59,0-11.18,0-16.77Z"/><path class="cls-3" d="M128.93,18.35a7.06,7.06,0,0,0-3.5-3.54,10.75,10.75,0,0,0-5.75-.68A8.07,8.07,0,0,0,114.4,17a9,9,0,0,0-1.85,5.13A9.67,9.67,0,0,0,114,28.35a7.6,7.6,0,0,0,4.64,3,11.45,11.45,0,0,0,4.7,0A7.8,7.8,0,0,0,128,28.53a8.89,8.89,0,0,0,1.76-4.88A10.91,10.91,0,0,0,128.93,18.35Zm-3.87,7.7a3.65,3.65,0,0,1-2,1.94,5.45,5.45,0,0,1-3.27.15,4,4,0,0,1-2.51-2.08,7.65,7.65,0,0,1-.61-4.2,5.33,5.33,0,0,1,1.55-3.5,4.19,4.19,0,0,1,2.64-1,4.32,4.32,0,0,1,3.36,1.14A5.43,5.43,0,0,1,125.62,22,8.79,8.79,0,0,1,125.06,26.05Z"/><path class="cls-3" d="M161.08,18.84a7.09,7.09,0,0,0-3.44-3.9,10.34,10.34,0,0,0-6-.81,7.84,7.84,0,0,0-7.09,7,11.25,11.25,0,0,0,.63,5.83,7.5,7.5,0,0,0,4.08,4,10.79,10.79,0,0,0,5.66.47,7.78,7.78,0,0,0,4.93-2.88,9.23,9.23,0,0,0,1.82-5.72A10.49,10.49,0,0,0,161.08,18.84Zm-3.62,5.69a5.19,5.19,0,0,1-1,2.46,3.75,3.75,0,0,1-2.34,1.26,5.31,5.31,0,0,1-2.87-.31,4.08,4.08,0,0,1-2.12-2.22,8,8,0,0,1-.48-3.65,5.83,5.83,0,0,1,1.22-3.34,4.09,4.09,0,0,1,2.93-1.41,4.41,4.41,0,0,1,3.22.95,4.68,4.68,0,0,1,1.45,2.67A10.07,10.07,0,0,1,157.46,24.53Z"/><path class="cls-4" d="M0,20.46q9.29,0,18.56,0V39H0V20.46Z"/><path class="cls-5" d="M20.46,20.46H39V39H20.46V20.46Z"/></g></g></svg>