<svg xmlns="http://www.w3.org/2000/svg" viewBox="0 0 93.16 38.77"><defs><style>.cls-1{fill:#6772de;}</style></defs><title>stripe</title><g id="Layer_2" data-name="Layer 2"><g id="Layer_1-2" data-name="Layer 1"><path class="cls-1" d="M6.55,15.19c0-1,.83-1.4,2.2-1.4a14.42,14.42,0,0,1,6.41,1.66V9.37A16.91,16.91,0,0,0,8.75,8.18C3.49,8.18,0,10.92,0,15.5c0,7.14,9.83,6,9.83,9.08,0,1.2-1,1.58-2.48,1.58A16.15,16.15,0,0,1,.28,24.09v6.16a17.88,17.88,0,0,0,7.07,1.48c5.38,0,9.08-2.67,9.08-7.3C16.41,16.72,6.55,18.09,6.55,15.19ZM24,3,17.73,4.35l0,20.73a6.5,6.5,0,0,0,6.7,6.65,9.89,9.89,0,0,0,4.53-.86V25.62C28.1,26,24,27.15,24,23.32V14.13h4.91V8.62H24ZM37,10.53l-.41-1.91H31V31.26h6.47V15.92a4.55,4.55,0,0,1,4.91-1.35v-6A4.39,4.39,0,0,0,37,10.53Zm7-1.91h6.5V31.26h-6.5Zm0-2,6.5-1.4V0l-6.5,1.37ZM64,8.18a7.33,7.33,0,0,0-5.08,2l-.33-1.61h-5.7V38.77l6.47-1.38,0-7.32a7.29,7.29,0,0,0,4.58,1.63c4.63,0,8.85-3.72,8.85-11.93C72.75,12.27,68.48,8.18,64,8.18ZM62.39,26a3.88,3.88,0,0,1-3-1.22l0-9.6a3.87,3.87,0,0,1,3.08-1.27c2.36,0,4,2.64,4,6S64.77,26,62.39,26Zm30.77-6c0-6.62-3.21-11.85-9.34-11.85S73.94,13.41,73.94,20c0,7.79,4.4,11.72,10.71,11.72A14.47,14.47,0,0,0,91.82,30V24.84a13.74,13.74,0,0,1-6.34,1.43c-2.51,0-4.74-.88-5-3.94H93.11C93.11,22,93.16,20.65,93.16,20ZM80.38,17.57c0-2.92,1.79-4.14,3.42-4.14s3.26,1.22,3.26,4.14Z"/></g></g></svg>