<svg xmlns="http://www.w3.org/2000/svg" xmlns:xlink="http://www.w3.org/1999/xlink" viewBox="0 0 146.81 36.6"><defs><style>.cls-1,.cls-5,.cls-8,.cls-9{fill:none;}.cls-2{clip-path:url(#clip-path);}.cls-3{fill:#1d1d1b;}.cls-4{fill:#a91a1e;}.cls-5,.cls-8,.cls-9{stroke:#1f1c16;}.cls-5{stroke-width:0.04px;}.cls-6{fill:#fff;}.cls-7{fill:#1f1c16;}.cls-8{stroke-width:0px;}.cls-9{stroke-width:0px;}</style><clipPath id="clip-path" transform="translate(-3.7 -1.9)"><rect class="cls-1" width="153.8" height="40.24"/></clipPath></defs><title>harvard</title><g id="Layer_2" data-name="Layer 2"><g id="Layer_1-2" data-name="Layer 1"><g class="cls-2"><g class="cls-2"><path class="cls-3" d="M62.92,27.25c0-.31-.2-.54-.62-.63v-.2l1.21,0,1.15,0v.2a.62.62,0,0,0-.58.63v3.94c0,1.25.68,1.95,2.12,1.95,1.23,0,2.19-.55,2.19-1.86V27.23c0-.29-.18-.52-.64-.61v-.2l1,0,1,0v.2c-.45.1-.65.3-.65.61v3.84c0,1.72-1,2.7-3.16,2.7s-3-.91-3-2.53Z" transform="translate(-3.7 -1.9)"/><path class="cls-3" d="M71.54,33.47c.47-.09.66-.33.66-.62V27.4a.75.75,0,0,0-.67-.78v-.2l.84,0c.18,0,.47,0,.66,0L77.76,32V27.23c0-.29-.18-.52-.65-.61v-.2l1,0,1,0v.2c-.45.1-.67.31-.67.61v6.54h-.28a2.44,2.44,0,0,1-1-.8L72.9,28.05v4.8c0,.29.17.52.63.62v.2l-1,0-1,0Z" transform="translate(-3.7 -1.9)"/><path class="cls-3" d="M108.84,32h.2a1.72,1.72,0,0,0,.66,1,2.45,2.45,0,0,0,1.31.35c.95,0,1.55-.47,1.55-1.21s-.77-1.18-1.7-1.64c-.68-.34-2-.91-2-2.22s.93-2,2.42-2c1,0,1.44.24,2.1.21V28h-.21a1.79,1.79,0,0,0-1.92-1.17c-1,0-1.33.55-1.33,1.12,0,.8.79,1.21,1.69,1.61s2.09,1,2.09,2.27-.93,2.05-2.63,2.05a11.32,11.32,0,0,1-2.16-.35Z" transform="translate(-3.7 -1.9)"/><path class="cls-3" d="M130.25,30.37v2.47a.69.69,0,0,0,.61.63v.2l-1.22,0-1.19,0v-.2a.71.71,0,0,0,.63-.63V30.48m.07.19-1.92-3.09c-.33-.54-.58-.83-1-1v-.2l1.18,0,1.23,0v.2c-.25,0-.36.16-.36.35a1.33,1.33,0,0,0,.22.56L130,29.88l1.37-2.35a1.57,1.57,0,0,0,.23-.63c0-.14-.1-.25-.33-.28v-.2l.87,0,.95,0v.18a2.64,2.64,0,0,0-1.18,1.22l-1.75,2.92" transform="translate(-3.7 -1.9)"/><path class="cls-3" d="M93.39,26.42H97.9a1.63,1.63,0,0,0,.53-.08h.2l0,1.47h-.2c-.17-.46-.35-.83-1.23-.83h-2v2.55h1.52a4.47,4.47,0,0,0,.6,0,.66.66,0,0,0,.55-.56h.21c0,.22,0,.73,0,.88s0,.68,0,.92h-.21a.74.74,0,0,0-.55-.59,3.09,3.09,0,0,0-.6-.06H95.21v3h2.14a1.3,1.3,0,0,0,1.43-.94l.2,0-.2,1.51c-.69-.06-1.11-.06-1.89-.06H94.63l-1.24,0v-.2c.41-.08.64-.28.64-.67V27.26c0-.35-.18-.56-.64-.64Z" transform="translate(-3.7 -1.9)"/><path class="cls-3" d="M81.87,27.29c0-.37-.23-.57-.66-.67v-.19l1.25,0,1.24,0v.19c-.43.1-.66.28-.66.67V32.8c0,.37.23.57.66.67v.2l-1.24,0-1.25,0v-.2c.44-.09.66-.28.66-.67Z" transform="translate(-3.7 -1.9)"/><path class="cls-3" d="M116.1,27.29c0-.37-.23-.57-.66-.67v-.19l1.25,0,1.25,0v.19c-.44.1-.66.28-.66.67V32.8c0,.37.22.57.66.67v.2l-1.25,0-1.25,0v-.2c.44-.09.66-.28.66-.67Z" transform="translate(-3.7 -1.9)"/><path class="cls-3" d="M122.37,26.45c-2.47,0-2.87-.05-3.37-.08v1.49h.2a1,1,0,0,1,1-.81h1.55V32.8c0,.39-.21.58-.65.67v.2l1.26,0,1.24,0v-.2c-.44-.1-.66-.3-.66-.67V27.05h1.54a1,1,0,0,1,1,.81h.2V26.37c-.5,0-.89.08-3.37.08" transform="translate(-3.7 -1.9)"/><path class="cls-3" d="M102.63,29.84a6,6,0,0,0,.91.05c1.35,0,1.78-.78,1.78-1.47,0-1-.65-1.58-1.84-1.58a6.22,6.22,0,0,0-.85.07Zm0,3c0,.37.24.57.67.67v.2l-1.25,0-1.21,0v-.2c.4-.08.64-.28.64-.67V27.24c0-.34-.19-.56-.64-.64v-.2l1.22,0c.35,0,1.36-.06,1.76-.06,1.73,0,2.7.72,2.7,1.95,0,1-.72,1.62-1.83,1.89a2.15,2.15,0,0,1,.51.44c.3.36,1.13,1.54,1.47,2s.78.88,1.25.9v.16a4.63,4.63,0,0,1-.86.09,1.85,1.85,0,0,1-1.52-.76c-.39-.48-1.06-1.48-1.46-2a1.69,1.69,0,0,0-1.12-.67l-.33,0Z" transform="translate(-3.7 -1.9)"/><path class="cls-3" d="M85.44,27.32a1.13,1.13,0,0,0-.81-.7v-.2l1.34,0,1.23,0v.19c-.24.05-.51.18-.51.42a2.68,2.68,0,0,0,.31.85l1.86,4.25,1.77-4.26a2.48,2.48,0,0,0,.24-.81c0-.23-.2-.38-.5-.45v-.19l1,0,1.1,0v.2a1.38,1.38,0,0,0-1,.94l-2.6,6.13h-.59Z" transform="translate(-3.7 -1.9)"/><path class="cls-3" d="M92.11,8a2.11,2.11,0,0,0-1.54-1.32V6.26c.49,0,2.1.06,2.47.06s1.91-.06,2.41-.06v.38c-.45.08-1,.33-1,.79A5.16,5.16,0,0,0,95.07,9l3.54,8L102,9a4.6,4.6,0,0,0,.46-1.54c0-.43-.4-.72-1-.83V6.26c.44,0,1.52.06,1.86.06s1.59-.06,2.08-.06v.37a2.6,2.6,0,0,0-1.81,1.79L98.67,20.05H97.56Z" transform="translate(-3.7 -1.9)"/><path class="cls-3" d="M44.4,19.61c.65-.15,1.1-.44,1.1-1.17V7.78c0-.7-.42-1-1.1-1.17V6.23l2.15.06c.41,0,1.93-.06,2.27-.06v.38c-.64.15-1.12.44-1.12,1.17v4.45h7.94V7.78c0-.73-.42-1-1.09-1.17V6.23c.33,0,1.83.06,2.24.06L59,6.23v.38c-.64.15-1.12.44-1.12,1.17V18.44c0,.7.45,1,1.12,1.17V20l-2.17,0-2.24,0v-.35c.64-.15,1.09-.44,1.09-1.17v-5H47.7v5c0,.73.45,1,1.12,1.17V20l-2.27,0L44.4,20Z" transform="translate(-3.7 -1.9)"/><path class="cls-3" d="M139.76,18.91a14.65,14.65,0,0,0,2.14.14c4.11,0,6.24-2.47,6.24-5.91a5.7,5.7,0,0,0-6.09-6.09,16.45,16.45,0,0,0-2.29.15Zm-3.48.7c.82-.15,1.28-.48,1.28-1.23V7.78c0-.73-.45-1-1.25-1.17V6.23c.46,0,2,.06,2.37.06.67,0,2.53-.15,4-.15,4.89,0,7.85,2.73,7.85,6.88s-3.08,7-8.12,7c-1.45,0-3.18-.11-3.85-.11-.41,0-1.8.06-2.26.06Z" transform="translate(-3.7 -1.9)"/><path class="cls-3" d="M81,12.75a14,14,0,0,0,1.72.09c2.57,0,3.37-1.48,3.37-2.79,0-1.85-1.23-3-3.48-3A9.74,9.74,0,0,0,81,7.2Zm0,5.59c0,.71.45,1.09,1.27,1.27V20c-.46,0-1.95-.06-2.38-.06S78,20,77.57,20v-.38c.77-.15,1.22-.53,1.22-1.27V7.82c0-.65-.35-1.06-1.22-1.21V6.23c.46,0,1.91.06,2.32.06.67,0,2.57-.11,3.33-.11,3.28,0,5.11,1.36,5.11,3.68,0,1.83-1.36,3.07-3.46,3.58a4,4,0,0,1,1,.83c.58.68,2.18,3,2.82,3.76s1.48,1.66,2.37,1.7V20a9.06,9.06,0,0,1-1.63.17,3.45,3.45,0,0,1-2.87-1.44c-.75-.91-2.06-2.84-2.8-3.8a3.15,3.15,0,0,0-2.11-1.26L81,13.63Z" transform="translate(-3.7 -1.9)"/><path class="cls-3" d="M124.28,12.75a14,14,0,0,0,1.72.09c2.57,0,3.37-1.48,3.37-2.79,0-1.85-1.23-3-3.48-3a9.74,9.74,0,0,0-1.61.15Zm0,5.59c0,.71.45,1.09,1.28,1.27V20c-.46,0-2-.06-2.39-.06s-1.83.06-2.29.06v-.38c.77-.15,1.22-.53,1.22-1.27V7.82c0-.65-.36-1.06-1.21-1.21V6.23c.46,0,1.9.06,2.31.06.67,0,2.58-.11,3.32-.11,3.3,0,5.12,1.36,5.12,3.68,0,1.83-1.36,3.07-3.46,3.58a3.88,3.88,0,0,1,.95.83c.59.68,2.19,3,2.83,3.76s1.48,1.66,2.37,1.7V20a9,9,0,0,1-1.62.17,3.45,3.45,0,0,1-2.88-1.44c-.75-.91-2.05-2.84-2.8-3.8a3.15,3.15,0,0,0-2.11-1.26l-.64-.08Z" transform="translate(-3.7 -1.9)"/><path class="cls-3" d="M69.81,14.47l-2.18-5.1-2,5.1Zm-8.76,5.14a2.35,2.35,0,0,0,1.67-1.52L67.12,7.5a13.09,13.09,0,0,0,.4-1.34h1.23a11.52,11.52,0,0,0,.41,1.35l4.65,10.61a2.25,2.25,0,0,0,1.61,1.49V20l-2.43,0-2.35,0v-.35c.68-.17.89-.51.89-.85a2.54,2.54,0,0,0-.25-.93l-1-2.28H65.15l-.91,2.29a2.94,2.94,0,0,0-.23.88c0,.38.2.68,1,.89V20l-1.94,0-2,0Z" transform="translate(-3.7 -1.9)"/><path class="cls-3" d="M113.39,14.47l-2.18-5.1-2,5.1Zm-8.75,5.14a2.36,2.36,0,0,0,1.66-1.52L110.7,7.5a11.57,11.57,0,0,0,.41-1.34h1.23a13,13,0,0,0,.4,1.35l4.65,10.61A2.25,2.25,0,0,0,119,19.61V20l-2.43,0-2.35,0v-.35c.69-.17.9-.51.9-.85a2.57,2.57,0,0,0-.26-.93l-1-2.28h-5.13l-.91,2.29a2.92,2.92,0,0,0-.22.88c0,.38.2.68,1,.89V20l-1.94,0-2,0Z" transform="translate(-3.7 -1.9)"/><path class="cls-4" d="M3.79,2H34.46V13.54c0,5.31-2,16.57-15.22,25,0,0-14.35-6-15.45-25Z" transform="translate(-3.7 -1.9)"/><path class="cls-5" d="M3.73,1.92h30.7v11.6c0,5.31-2,16.57-15.24,25,0,0-14.36-6-15.46-25Z" transform="translate(-3.7 -1.9)"/><path class="cls-6" d="M27,16.84s-.27.87-1.49,0l-4.17-.1a.46.46,0,0,1-.62-.4,9.49,9.49,0,0,0,.05-1.24s0-.32-.53-.32c0,0-.84.09-.87-.65,0,0-.14-.8,1-.77,0,0,.38.17.4-.3,0,0-.05-3.23,0-3.48,0,0,.1-.3-.48-.35,0,0-.82.18-.92-.37,0,0,0-.82.5-.87,0,0,.67,0,.8-.12,0,0,.15.09.12-.5l0-1s.07-.27.49-.25a3.71,3.71,0,0,0,.87,0,3.2,3.2,0,0,0,.23-.33s.4,0,.47.08.6.4,2.86.25c0,0,.35,0,.42.1s.42.32.67,0a8.82,8.82,0,0,1,1.49,0,2.51,2.51,0,0,0,2.06-.37l.28,0s.35.57.59.4c0,0,.75-.08.87.07a2.11,2.11,0,0,1,.13,1.34s-.15.43.57.43c0,0,.82-.15.72.62,0,0,.22.87-1.14.74a.75.75,0,0,0-.15.43s0,2.83,0,3.15c0,0,0,.45.57.42,0,0,.8,0,.82.67,0,0,.1,1-1,.77,0,0-.35,0-.4.28l0,1.24s0,.62-.67.47c-.1,0-3.88.08-4.2,0,0,0-.18,0-.23.07" transform="translate(-3.7 -1.9)"/><path class="cls-6" d="M19,21a.5.5,0,0,0,.22-.2,2.34,2.34,0,0,0,.6-.12l1.64.12a4.6,4.6,0,0,0,2.31-.38,1.18,1.18,0,0,1,.42.08s.35.08.45.22l.94,0s.55.17.5.52v.45s-.1.89.15.94h.72s.6.28.52.62a.58.58,0,0,1-.49.6,2.81,2.81,0,0,1-.7.12,1.05,1.05,0,0,0-.2.5L26,27.71s0,.34.47.3c0,0,.77-.08,1,.34,0,0,.2.72-.2.85l-.29.15-.65.1s-.27,0-.3.49v.87s0,.6-.45.6l-.69.05a.57.57,0,0,1-.52.05s-4.23.07-4.38,0l-.5.1s-.54.5-1,.13l-.35-.28a1.39,1.39,0,0,1-.35,0c-.1,0-4.67,0-4.67,0s-1,.1-1-.23A11.32,11.32,0,0,1,12,29.92s0-.37-.22-.4c0,0-1-.05-1-.15s-.53-.37-.38-.74a.88.88,0,0,1,.7-.55s.79.13.79-.1a1.38,1.38,0,0,0,0-.4s.05-2.95,0-3.15c0,0,.07-.38-.25-.38a.79.79,0,0,1-.57-.05s-.6,0-.72-.44a.73.73,0,0,1,.05-.55.9.9,0,0,1,1.07-.37s.44.12.49-.2l0-1.2s-.1-.32.52-.49c0,0,.8.22,1-.17,0,0,.28-.55.5-.18a2.5,2.5,0,0,0,1.77.4,17.08,17.08,0,0,1,2.28-.08,1.63,1.63,0,0,1,.7.25Z" transform="translate(-3.7 -1.9)"/><path class="cls-6" d="M12.22,16.84s-.27.87-1.49,0l-4.18-.1a.46.46,0,0,1-.62-.4A9.49,9.49,0,0,0,6,15.08s0-.33-.52-.33c0,0-.85.11-.87-.64,0,0-.15-.8,1-.77,0,0,.37.17.4-.3,0,0,0-3.23,0-3.48,0,0,.1-.3-.47-.35,0,0-.82.18-.92-.37,0,0,0-.82.5-.87,0,0,.67,0,.79-.12,0,0,.15.1.13-.5l0-1s.08-.27.5-.25a3.71,3.71,0,0,0,.87,0,3.62,3.62,0,0,0,.22-.33s.4,0,.47.08.6.4,2.86.25c0,0,.35,0,.42.1s.43.32.67,0a9,9,0,0,1,1.5,0,2.56,2.56,0,0,0,2.06-.37l.27,0s.35.57.6.4c0,0,.74-.08.87.07a2.07,2.07,0,0,1,.12,1.34S17.31,8,18,8c0,0,.82-.15.73.62,0,0,.22.87-1.15.74a.84.84,0,0,0-.15.43s0,2.83-.05,3.15c0,0,0,.45.57.42,0,0,.8,0,.82.68,0,0,.1.94-1,.76,0,0-.35.06-.4.28l-.05,1.24s0,.62-.67.47c-.1,0-3.87.08-4.2,0,0,0-.17,0-.22.07" transform="translate(-3.7 -1.9)"/><path class="cls-7" d="M27,16.84s-.27.87-1.49,0l-4.17-.1a.46.46,0,0,1-.62-.4,9.49,9.49,0,0,0,.05-1.24s0-.32-.53-.32c0,0-.84.09-.87-.65,0,0-.14-.8,1-.77,0,0,.38.17.4-.3,0,0-.05-3.23,0-3.48,0,0,.1-.3-.48-.35,0,0-.82.18-.92-.37,0,0,0-.82.5-.87,0,0,.67,0,.8-.12,0,0,.15.09.12-.5l0-1s.07-.27.49-.25a3.71,3.71,0,0,0,.87,0,3.2,3.2,0,0,0,.23-.33s.4,0,.47.08.6.4,2.86.25c0,0,.35,0,.42.1s.42.32.67,0a8.82,8.82,0,0,1,1.49,0,2.51,2.51,0,0,0,2.06-.37l.28,0s.35.57.59.4c0,0,.75-.08.87.07a2.11,2.11,0,0,1,.13,1.34s-.15.43.57.43c0,0,.82-.15.72.62,0,0,.22.87-1.14.74a.75.75,0,0,0-.15.43s0,2.83,0,3.15c0,0,0,.45.57.42,0,0,.8,0,.82.67,0,0,.1,1-1,.77,0,0-.35,0-.4.28l0,1.24s0,.62-.67.47c-.1,0-3.88.08-4.2,0,0,0-.18,0-.23.07" transform="translate(-3.7 -1.9)"/><path class="cls-8" d="M27,16.84s-.27.88-1.49,0l-4.17-.1a.46.46,0,0,1-.62-.4,9.49,9.49,0,0,0,.05-1.24s0-.32-.53-.32c0,0-.84.1-.87-.65,0,0-.14-.8,1-.77,0,0,.38.17.4-.3,0,0-.05-3.23,0-3.48,0,0,.1-.3-.48-.35,0,0-.82.18-.92-.37,0,0,0-.82.5-.87,0,0,.67,0,.8-.12,0,0,.15.09.12-.5l0-1s.07-.27.49-.25a3.71,3.71,0,0,0,.87,0,3.2,3.2,0,0,0,.23-.33s.4,0,.47.08.6.4,2.86.25c0,0,.35,0,.42.1s.42.32.67,0a8.82,8.82,0,0,1,1.49,0,2.56,2.56,0,0,0,2.06-.37l.28,0s.35.57.59.4c0,0,.75-.08.87.07a2.11,2.11,0,0,1,.13,1.34s-.15.43.57.43c0,0,.82-.15.72.62,0,0,.22.87-1.14.74a.75.75,0,0,0-.15.43s0,2.83,0,3.15c0,0,0,.45.57.43,0,0,.8-.06.82.66,0,0,.1,1-1,.77,0,0-.35.06-.4.28l0,1.24s0,.62-.67.47c-.1,0-3.88.08-4.2,0C27.23,16.77,27.05,16.75,27,16.84Z" transform="translate(-3.7 -1.9)"/><path class="cls-6" d="M22.31,6.6s.05.5.05.63-.08,7.18-.08,7.18a.85.85,0,0,1-.39.82s-.13,0-.15-.3l.05-7.45s.05-.93.52-.88" transform="translate(-3.7 -1.9)"/><path class="cls-9" d="M22.31,6.6s.05.5.05.63-.08,7.18-.08,7.18a.84.84,0,0,1-.39.82s-.13,0-.15-.3l.05-7.46S21.83,6.55,22.31,6.6Z" transform="translate(-3.7 -1.9)"/><path class="cls-6" d="M21.49,15.3s.05-7,0-7.13,0,.1,0,.1a3.79,3.79,0,0,1,.25-1.72s-.1-.42-.68.1l0,1s0,.57-.52.55a1.34,1.34,0,0,0-.87.25s-.15.54.42.45c0,0,.9,0,.95.37L21,13a.46.46,0,0,1-.5.62s-.85-.05-.82.47c0,0,.17.45.89.3a.61.61,0,0,1,.5.6V16s-.05.38.45.4h3.87s.2,0,.2-.22c0,0,0-.2-.32-.2l-3.23,0s-.52.17-.57-.6" transform="translate(-3.7 -1.9)"/><path class="cls-6" d="M22.23,15.29s-.1.35.28.28h2.56l.69.15s.72-.18,0-.58c0,0-2.28,0-2.48,0L22.7,15s-.24-.1-.47.32" transform="translate(-3.7 -1.9)"/><path class="cls-9" d="M22.23,15.29s-.1.35.28.28h2.56l.69.15s.72-.18,0-.58c0,0-2.28,0-2.48,0L22.7,15S22.46,14.87,22.23,15.29Z" transform="translate(-3.7 -1.9)"/><path class="cls-6" d="M26.48,15.64s-.47,0-.45.62a.53.53,0,0,0,.55.47.49.49,0,0,0,.4-.57s-.27-.62-.5-.52" transform="translate(-3.7 -1.9)"/><path class="cls-6" d="M26.83,15.39s.22-.25.37-.25,2.49.23,2.91-.07c0,0,.37-.08.47,0s.38.3.38.47c0,0,0,.23-.48.1l-2.95,0s-.78.17-.7-.28" transform="translate(-3.7 -1.9)"/><path class="cls-9" d="M26.83,15.39s.22-.25.37-.25,2.49.23,2.91-.07c0,0,.37-.08.47,0s.38.3.38.47c0,0,0,.23-.48.1l-2.95,0S26.75,15.84,26.83,15.39Z" transform="translate(-3.7 -1.9)"/><path class="cls-6" d="M27.15,16.2s0-.2.35-.2L31,16s.32.18.32-.42c0,0,.13-2.71.14-5.69,0-.89,0-1.82,0-2.68,0,0-.08-.38-.18-.45s0-.4.42-.25c0,0,.37,0,.27.6l0,.86s-.07.38.6.28c0,0,.67.1.69.35,0,0,.2.5-.59.44h-.58a.41.41,0,0,0-.17.45l-.08,3.61s-.05.62.55.59c0,0,.62,0,.75.18,0,0,.42.62-.5.57a1.88,1.88,0,0,0-.7.07,3.89,3.89,0,0,0-.17,1.3s.05.69-.47.62c0,0-3.46,0-3.78,0,0,0-.35.1-.4-.17" transform="translate(-3.7 -1.9)"/><path class="cls-6" d="M22.68,6.38l-.07,8s0,.37.59.44a3.31,3.31,0,0,0,.9,0s.47,0,1.69,0c0,0,.3.3.32-.08,0,0,.2-6.46.1-7.8,0,0,0-.57-.45-.6a9.42,9.42,0,0,1-2.06,0L23,6.16s-.3,0-.27.22" transform="translate(-3.7 -1.9)"/><path class="cls-6" d="M26.61,6.78s-.08,3.75-.05,3.87l0,3.16-.1,1.09s.15.23.27.08A4.16,4.16,0,0,1,28,14.86s1.6.14,1.92-.11c0,0,.25.13.32-.27,0,0,.1-7,.05-7.08a7.39,7.39,0,0,0,0-1.1s0-.22-.45,0c0,0,.05.2-2.31.12,0,0-.89,0-.94.38" transform="translate(-3.7 -1.9)"/><path class="cls-6" d="M30.56,6.68l0,7.85s.19.7.52.63a3.73,3.73,0,0,0,.07-.4l.1-7.49s-.25-1.19-.67-.59" transform="translate(-3.7 -1.9)"/><path class="cls-9" d="M30.56,6.68l0,7.85s.2.7.53.63a1.86,1.86,0,0,0,.07-.4l.1-7.49S31,6.08,30.56,6.68Z" transform="translate(-3.7 -1.9)"/><path class="cls-7" d="M27.51,9c-.08-.2.42-.22.42-.22l.25,0a.77.77,0,0,1,.35.06.29.29,0,0,1-.13.42l-.1.32c0,.28,0,2.64,0,2.64a1.84,1.84,0,0,0,.25.34c0,.23-.27.18-.27.18l-.72,0c-.23,0-.15-.27-.15-.27.25-.13.32-.57.32-.57V9.53Z" transform="translate(-3.7 -1.9)"/><path class="cls-7" d="M24.18,9.38c0,.54,0,1.29,0,1.29a.47.47,0,0,0,.75-.15c.62-.6,0-1.14-.1-1.29s-.6,0-.6,0Zm0,2,0,.77.23.37c.15.2-.1.35-.1.35l-.8-.07c-.15-.08,0-.33,0-.33a.64.64,0,0,0,.23-.44l0-1.45,0-1c0-.12-.2-.35-.2-.35-.18,0-.13-.24-.13-.24s.47-.06.47-.06h1.05c1,.33.84,1.05.84,1.05a1.06,1.06,0,0,1-.69,1l-.05.4.72,1.14a.22.22,0,0,1,.1.2c-.1.27-.5,0-.5,0l-.89-1.39c-.08-.1-.23.07-.23.07" transform="translate(-3.7 -1.9)"/><path class="cls-7" d="M19,21a.5.5,0,0,0,.22-.2,2.34,2.34,0,0,0,.6-.12l1.64.12a4.6,4.6,0,0,0,2.31-.38,1.18,1.18,0,0,1,.42.08s.35.08.45.22l.94,0s.55.17.5.52v.45s-.1.89.15.94h.72s.6.28.52.62a.58.58,0,0,1-.49.6,2.81,2.81,0,0,1-.7.12,1.05,1.05,0,0,0-.2.5L26,27.71s0,.34.47.3c0,0,.77-.08,1,.34,0,0,.2.72-.2.85l-.29.15-.65.1s-.27,0-.3.49v.87s0,.6-.45.6l-.69.05a.57.57,0,0,1-.52.05s-4.23.07-4.38,0l-.5.1s-.54.5-1,.13l-.35-.28a1.39,1.39,0,0,1-.35,0c-.1,0-4.67,0-4.67,0s-1,.1-1-.23A11.32,11.32,0,0,1,12,29.92s0-.37-.22-.4c0,0-1-.05-1-.15s-.53-.37-.38-.74a.88.88,0,0,1,.7-.55s.79.13.79-.1a1.38,1.38,0,0,0,0-.4s.05-2.95,0-3.15c0,0,.07-.38-.25-.38a.79.79,0,0,1-.57-.05s-.6,0-.72-.44a.73.73,0,0,1,.05-.55.9.9,0,0,1,1.07-.37s.44.12.49-.2l0-1.2s-.1-.32.52-.49c0,0,.8.22,1-.17,0,0,.28-.55.5-.18a2.5,2.5,0,0,0,1.77.4,17.08,17.08,0,0,1,2.28-.08,1.63,1.63,0,0,1,.7.25Z" transform="translate(-3.7 -1.9)"/><path class="cls-8" d="M19,21a.5.5,0,0,0,.22-.2,2,2,0,0,0,.6-.13l1.64.13a4.6,4.6,0,0,0,2.31-.38,1.18,1.18,0,0,1,.42.08s.35.07.45.22l.94,0s.55.17.5.52v.45s-.1.89.15.94h.72s.6.28.52.62a.58.58,0,0,1-.49.6,2.81,2.81,0,0,1-.7.12,1.17,1.17,0,0,0-.2.5L26,27.68s0,.34.47.3c0,0,.77-.08,1,.34,0,0,.2.72-.2.85l-.29.15-.65.1s-.27,0-.3.49v.87s0,.6-.45.6l-.69.05a.57.57,0,0,1-.52.05s-4.23.08-4.38,0l-.5.1s-.54.5-1,.13l-.35-.28a1.39,1.39,0,0,1-.35,0c-.1,0-4.67.05-4.67.05s-1,.1-1-.22A11.5,11.5,0,0,1,12,29.89s0-.37-.22-.4c0,0-1,0-1-.15s-.52-.37-.37-.74a.88.88,0,0,1,.7-.55s.79.13.79-.1a1.38,1.38,0,0,0,0-.4S12,24.6,12,24.4c0,0,.07-.38-.25-.38a.79.79,0,0,1-.57-.05s-.6,0-.72-.44a.73.73,0,0,1,.05-.55.9.9,0,0,1,1.07-.37s.44.12.49-.2l0-1.2s-.1-.32.52-.49c0,0,.79.22,1-.18,0,0,.28-.54.5-.17a2.48,2.48,0,0,0,1.76.4,17.23,17.23,0,0,1,2.29-.08,1.63,1.63,0,0,1,.7.25Z" transform="translate(-3.7 -1.9)"/><path class="cls-6" d="M19.62,30.76a.93.93,0,0,1,.5-.1c.2.05,3.11,0,3.11,0s1.26.1,1.46-.08l.3-.1a.57.57,0,0,0,.12-.34c0-.2,0-.87,0-.87l.08-.25s0-.25,0-6.89a1.05,1.05,0,0,0-.23-.84s0-.2.1-.17.05,0,.05,0,.45-.12.52.05a1.54,1.54,0,0,1,0,.94s-.05.73.32.73a.47.47,0,0,0,.45.07s.64.08.64.27a.37.37,0,0,1-.44.38l-.6.05a.46.46,0,0,0-.35.54c.05.47,0,3.86,0,3.86s0,.39.62.37c0,0,.77,0,.77.2a.36.36,0,0,1-.35.52s-1,0-1,.27a7,7,0,0,1-.12.82s.1.57,0,.67-.07.33-.74.28c0,0-4.28,0-4.95,0,0,0-.4-.05-.3-.4" transform="translate(-3.7 -1.9)"/><path class="cls-6" d="M18.85,30.29s.43.08.43.47,0,.62-.23.67a.45.45,0,0,1-.59-.34.62.62,0,0,1,.39-.8" transform="translate(-3.7 -1.9)"/><path class="cls-6" d="M19.35,30.09s.45-.3.62-.24a22.71,22.71,0,0,0,3,0c.69-.12.27,0,.27,0s.6,0,.77-.23a.25.25,0,0,1,.28.13l.37.4s0,.24-.4.22c0,0-4,0-4.17,0s-.77.12-.7-.3" transform="translate(-3.7 -1.9)"/><path class="cls-9" d="M19.35,30.09s.45-.3.62-.25a22.29,22.29,0,0,0,3,0c.7-.12.27,0,.27,0s.6,0,.77-.22a.25.25,0,0,1,.28.13l.37.4s0,.24-.4.22c0,0-4,0-4.18,0S19.27,30.51,19.35,30.09Z" transform="translate(-3.7 -1.9)"/><path class="cls-6" d="M13.46,21.27s.17,0,.15.3l0,7.5a.93.93,0,0,1-.35.82s-.22.28-.22-.14l.1-7.66a1.18,1.18,0,0,1,.37-.82" transform="translate(-3.7 -1.9)"/><path class="cls-9" d="M13.46,21.27s.17,0,.15.3l0,7.5a1,1,0,0,1-.35.83s-.23.27-.23-.15l.11-7.66A1.18,1.18,0,0,1,13.46,21.27Z" transform="translate(-3.7 -1.9)"/><path class="cls-6" d="M13.06,21.32a2.38,2.38,0,0,0-.27.67l0,1.67s0,1.07,0,1.19,0,3.26,0,3.26a6.69,6.69,0,0,0,0,.79v1.34s-.05.6.4.45c0,0,4.37-.1,4.64,0,0,0,.4.07.25.27,0,0,0,.17-.27.12a34.18,34.18,0,0,1-3.93.13s-1.24.07-1.32-.08c0,0-.19,0-.19-.74a5.05,5.05,0,0,0-.05-.8s.05-.35-.57-.42c0,0-.87.15-.9-.37,0,0,.12-.38,1-.33,0,0,.62.1.5-.4l.07-3.67s.08-.65-.35-.68a2.06,2.06,0,0,0-.52,0s-.72,0-.67-.42a.91.91,0,0,1,1-.35.48.48,0,0,0,.57-.52s0-1.27.27-1.32c0,0,.63,0,.45.2" transform="translate(-3.7 -1.9)"/><path class="cls-6" d="M13.81,29.55a1.28,1.28,0,0,0,.92.35l3.37,0s.38,0,.36.23c0,0-.06.29-.5.2l-4.08-.05-.45,0s-.3-.05.18-.62Z" transform="translate(-3.7 -1.9)"/><path class="cls-9" d="M13.81,29.55a1.23,1.23,0,0,0,.92.34l3.38.05s.37,0,.35.23c0,0-.05.3-.5.2l-4.08-.05-.45,0s-.3-.05.18-.62Z" transform="translate(-3.7 -1.9)"/><path class="cls-6" d="M24.25,29.22a2.55,2.55,0,0,0,.44.65s.28.32.2-.25l.05-7.16a1.56,1.56,0,0,1,0-.64l-.3-.55s-.32-.25-.32.15l-.05,7.63Z" transform="translate(-3.7 -1.9)"/><path class="cls-9" d="M24.24,29.22a2.64,2.64,0,0,0,.45.65s.28.32.2-.25l.05-7.16a1.56,1.56,0,0,1,0-.64l-.3-.55s-.32-.25-.32.15l-.05,7.63Z" transform="translate(-3.7 -1.9)"/><path class="cls-6" d="M18.73,25.82A8.56,8.56,0,0,1,18.68,27a24.34,24.34,0,0,1,0,2.51s0,.25-.54,0c0,0-3.18.07-3.28,0s-.87,0-.95-.42c0,0,.13-3.4,0-3.53s0-1.86,0-2c0,0,.08-1.71,0-1.91a2.14,2.14,0,0,0-.05-.6s0-.24.42-.1c0,0,.15.28,1,.16a5,5,0,0,0,1.17,0,8.24,8.24,0,0,1,1.59,0,.55.55,0,0,1,.64.45l0,1.54.15.5.17-.13.07-.37,0-1.64a.58.58,0,0,1,.5-.35,2.74,2.74,0,0,1,.72,0,8.59,8.59,0,0,0,1.81,0,2.21,2.21,0,0,0,1.57-.32s.3,0,.3.22a20.73,20.73,0,0,0,0,2.51s0,3.88-.08,4.15l0,1.25s.05.54-.82.59c0,0,.55.08-2.88,0a2.61,2.61,0,0,0-1.14.25s-.13,0-.13-.35a15.37,15.37,0,0,0,0-2.31L19,25.79Z" transform="translate(-3.7 -1.9)"/><path class="cls-7" d="M16.49,24.05a18.07,18.07,0,0,1,0,2.09l0,.4a.91.91,0,0,0,.25.37s.12.35-.18.33a7.51,7.51,0,0,0-.77,0s-.35,0,0-.45a1,1,0,0,0,.1-.62s0-2.09.05-2.21.05-.27-.12-.35l-.3,0-.37.34s-.08.38-.25,0v-.2l.22-.6.15,0a1.59,1.59,0,0,0,.42.2h1.17l.42-.2s.18,0,.13.25c0,0,.07.57-.25.64a.56.56,0,0,1-.3-.34s-.32-.18-.35.39" transform="translate(-3.7 -1.9)"/><path class="cls-7" d="M22,23.38a.89.89,0,0,0-1,.95s-.11.69.94,1.14c0,0,.77.37.72.85,0,0-.1.84-.92.42,0,0-.4-.2-.37-.42,0,0-.13-.28-.28-.23,0,0-.17.05-.09.87,0,0,0,.33.37,0l.2.05a.87.87,0,0,0,1.24-.12A1,1,0,0,0,23,25.62a2.25,2.25,0,0,0-.89-.74,1.32,1.32,0,0,1-.67-.68.53.53,0,0,1,.84-.35,1.49,1.49,0,0,0,.4.35s.2,0,.15-.45l0-.37s-.05-.27-.4,0c0,0-.32.13-.4,0" transform="translate(-3.7 -1.9)"/><path class="cls-7" d="M18.56,24.5l-.2.82.14.25.55,0c.15,0,.18-.12.18-.24a6.93,6.93,0,0,0-.28-.87l-.12-.15ZM19,22.86a.56.56,0,0,1,.2.37,28.35,28.35,0,0,1,.92,3.24,1.68,1.68,0,0,0,.35.44c.42.15,0,.27,0,.27a2.16,2.16,0,0,1-.75,0c-.3-.05-.17-.15-.17-.15s0-.62,0-.62a1.58,1.58,0,0,0-.24-.52c-.1-.05-.28.17-.28.17s-.27.1-.3,0-.2-.19-.2-.19c-.29,0-.42.74-.42.74.18.62,0,.52,0,.52-.15.2-.62.05-.62.05-.22-.05-.07-.22-.07-.22a.48.48,0,0,0,.34-.35c.13-.18.92-3.41.92-3.41s.13-.44.3-.32" transform="translate(-3.7 -1.9)"/><path class="cls-7" d="M12.22,16.84s-.27.87-1.49,0l-4.18-.1a.46.46,0,0,1-.62-.4A9.49,9.49,0,0,0,6,15.08s0-.33-.52-.33c0,0-.85.11-.87-.64,0,0-.15-.8,1-.77,0,0,.37.17.4-.3,0,0,0-3.23,0-3.48,0,0,.1-.3-.47-.35,0,0-.82.18-.92-.37,0,0,0-.82.5-.87,0,0,.67,0,.79-.12,0,0,.15.1.13-.5l0-1s.08-.27.5-.25a3.71,3.71,0,0,0,.87,0,3.62,3.62,0,0,0,.22-.33s.4,0,.47.08.6.4,2.86.25c0,0,.35,0,.42.1s.43.32.67,0a9,9,0,0,1,1.5,0,2.56,2.56,0,0,0,2.06-.37l.27,0s.35.57.6.4c0,0,.74-.08.87.07a2.07,2.07,0,0,1,.12,1.34S17.31,8,18,8c0,0,.82-.15.73.62,0,0,.22.87-1.15.74a.84.84,0,0,0-.15.43s0,2.83-.05,3.15c0,0,0,.45.57.42,0,0,.8,0,.82.68,0,0,.1.94-1,.76,0,0-.35.06-.4.28l-.05,1.24s0,.62-.67.47c-.1,0-3.87.08-4.2,0,0,0-.17,0-.22.07" transform="translate(-3.7 -1.9)"/><path class="cls-8" d="M12.22,16.84s-.27.88-1.49,0l-4.18-.1a.46.46,0,0,1-.62-.4A9.49,9.49,0,0,0,6,15.08s0-.32-.52-.32c0,0-.85.1-.87-.65,0,0-.15-.8,1-.77,0,0,.37.17.39-.3,0,0,0-3.23,0-3.48,0,0,.1-.3-.47-.35,0,0-.82.18-.92-.37,0,0,0-.82.5-.87,0,0,.67,0,.79-.12,0,0,.15.1.12-.5l0-1s.07-.27.5-.25a3.71,3.71,0,0,0,.87,0,3.62,3.62,0,0,0,.22-.33s.4,0,.47.08.6.4,2.86.25c0,0,.35,0,.42.1s.43.32.67,0a9,9,0,0,1,1.5,0,2.56,2.56,0,0,0,2.06-.37l.27,0s.35.57.6.4c0,0,.74-.08.87.07a2.07,2.07,0,0,1,.12,1.34S17.31,8,18,8c0,0,.83-.15.73.62,0,0,.22.87-1.15.74a.84.84,0,0,0-.15.43s0,2.83-.05,3.15c0,0,0,.45.57.43,0,0,.8-.06.83.67,0,0,.09.94-1,.76,0,0-.35.06-.4.28l-.05,1.24s0,.62-.67.47c-.1,0-3.87.08-4.2,0C12.44,16.77,12.27,16.75,12.22,16.84Z" transform="translate(-3.7 -1.9)"/><path class="cls-6" d="M7.52,6.6s.05.5.05.62-.07,7.19-.07,7.19a.86.86,0,0,1-.4.82s-.12,0-.15-.3L7,7.47s0-.92.52-.87" transform="translate(-3.7 -1.9)"/><path class="cls-9" d="M7.52,6.6s.05.5.05.62-.07,7.19-.07,7.19a.86.86,0,0,1-.4.82s-.12,0-.15-.3L7,7.47S7.05,6.55,7.52,6.6Z" transform="translate(-3.7 -1.9)"/><path class="cls-6" d="M6.7,15.3s0-7,0-7.13,0,.1,0,.1A3.94,3.94,0,0,1,7,6.55s-.1-.42-.67.1l0,1s0,.57-.53.55a1.35,1.35,0,0,0-.87.25s-.15.54.42.45c0,0,.9,0,1,.37l0,3.75a.45.45,0,0,1-.5.62s-.84-.05-.82.48c0,0,.18.44.9.29a.61.61,0,0,1,.5.6V16s-.06.38.44.4h3.88s.2,0,.2-.22c0,0,0-.2-.33-.2l-3.22,0s-.53.17-.58-.6" transform="translate(-3.7 -1.9)"/><path class="cls-6" d="M7.37,15.35s-.1.35.28.28h2.56l.69.14s.72-.17,0-.57c0,0-2.29,0-2.48,0L7.84,15s-.24-.1-.47.32" transform="translate(-3.7 -1.9)"/><path class="cls-9" d="M7.37,15.35s-.1.35.27.27h2.57l.69.15s.73-.17,0-.57c0,0-2.29,0-2.48,0L7.84,15S7.59,14.93,7.37,15.35Z" transform="translate(-3.7 -1.9)"/><path class="cls-6" d="M11.62,15.7s-.47,0-.45.62a.54.54,0,0,0,.55.47.49.49,0,0,0,.4-.57s-.27-.62-.5-.52" transform="translate(-3.7 -1.9)"/><path class="cls-6" d="M12,15.45s.22-.25.37-.25c0,0,2.49.23,2.91-.07,0,0,.37-.08.47,0s.38.3.38.47c0,0,0,.23-.48.1l-2.95,0s-.77.17-.7-.28" transform="translate(-3.7 -1.9)"/><path class="cls-9" d="M12,15.45s.22-.25.37-.25c0,0,2.49.23,2.91-.07,0,0,.38-.08.47,0s.38.3.38.47c0,0,0,.23-.47.1l-3,0S11.89,15.9,12,15.45Z" transform="translate(-3.7 -1.9)"/><path class="cls-6" d="M12.37,16.2s0-.2.34-.2l3.49,0s.32.18.32-.42c0,0,.13-2.71.14-5.69,0-.89,0-1.82,0-2.68,0,0-.08-.38-.18-.45s0-.4.43-.25c0,0,.37,0,.27.6l0,.87s-.07.37.6.27c0,0,.67.1.69.35,0,0,.21.5-.59.44h-.57a.42.42,0,0,0-.18.45l-.07,3.61s-.05.62.55.59c0,0,.62,0,.74.18,0,0,.43.62-.5.57,0,0-.57,0-.69.07A3.84,3.84,0,0,0,17,15.77s0,.7-.48.63c0,0-3.45,0-3.77,0,0,0-.35.1-.4-.17" transform="translate(-3.7 -1.9)"/><path class="cls-6" d="M7.89,6.38l-.07,8s0,.37.6.44a3.25,3.25,0,0,0,.89,0s.47,0,1.69,0c0,0,.3.3.32-.08,0,0,.2-6.46.1-7.8,0,0,0-.57-.44-.6a9.51,9.51,0,0,1-2.07,0l-.74-.2s-.3,0-.28.23" transform="translate(-3.7 -1.9)"/><path class="cls-6" d="M15.77,6.68l0,7.85s.2.7.52.63a1.88,1.88,0,0,0,.07-.41l.11-7.48s-.25-1.19-.68-.59" transform="translate(-3.7 -1.9)"/><path class="cls-9" d="M15.77,6.68l0,7.85s.2.7.52.63a1.88,1.88,0,0,0,.07-.41l.11-7.48s-.25-1.19-.68-.59" transform="translate(-3.7 -1.9)"/><path class="cls-9" d="M15.77,6.68l0,7.85s.2.7.52.63a1.88,1.88,0,0,0,.07-.41l.11-7.48S16.2,6.08,15.77,6.68Z" transform="translate(-3.7 -1.9)"/><path class="cls-6" d="M11.82,6.74s-.07,3.76-.05,3.88l0,3.16-.1,1.09s.15.23.28.08a4.33,4.33,0,0,1,1.29-.13s1.59.15,1.91-.1c0,0,.25.13.33-.27,0,0,.09-7,0-7.08a7.39,7.39,0,0,0,0-1.1s0-.22-.44,0c0,0,.05.2-2.31.12,0,0-.9,0-.95.37" transform="translate(-3.7 -1.9)"/><path class="cls-7" d="M11.05,9l-.22.48a19.66,19.66,0,0,1-.84,2.9s-.05.5-.47.1c0,0-1-3-1-3.15l-.33-.23s-.19-.27.15-.29l.92,0s.3.25-.1.52a12.77,12.77,0,0,0,.57,1.91s.15.58.33.15l.49-1.76-.15-.52s-.15-.25.08-.28c0,0,.52,0,.59.15" transform="translate(-3.7 -1.9)"/><path class="cls-7" d="M12.5,9.44l0,2.64-.07.19s-.25.33-.08.35c0,0-.22.15,1.59.18,0,0,.7.12.53-.78,0,0-.08-.32-.33.15,0,0-.07.4-1,.28a.61.61,0,0,1-.2-.37V11s0-.27.4-.24c0,0,.47.29.55.17a.8.8,0,0,0,0-.65s-.23,0-.25.08-.15.29-.57.12A1.05,1.05,0,0,1,13,9.74s-.05-.62.38-.57c0,0,.49.1.54.25,0,0,.13.3.25-.05L14,8.94s-.08-.17-.2-.12-.85.12-.95,0l-.67.08a.28.28,0,0,0,.2.37.19.19,0,0,1,.08.15" transform="translate(-3.7 -1.9)"/></g></g></g></g></svg>