<svg xmlns="http://www.w3.org/2000/svg" viewBox="0 0 117.82 38.53"><defs><style>.cls-1{fill:#231f20;}.cls-2{fill:#be2a42;}</style></defs><title>northeastern</title><g id="Layer_2" data-name="Layer 2"><g id="Layer_1-2" data-name="Layer 1"><path class="cls-1" d="M43.28,28.26v3.67c0,2.38,1.23,4,4.35,4S52,34.31,52,32V29c0-1.43.41-1.8,1.11-2v-.38h-3V27c.7.2,1.1.57,1.1,2V32c0,2.07-1.09,3-3.14,3s-3.15-1-3.15-3V28.26c0-.93.27-1.09,1-1.2v-.41H42.26v.41c.77.11,1,.27,1,1.2m13.34,7.2c-.7-.1-.81-.27-.81-.94V31.69a2.57,2.57,0,0,1,1.56-.82c.6,0,.77.3.77.85v2.8c0,.67-.11.84-.81.94v.38h3.15v-.38c-.7-.1-.81-.27-.81-.94V31.59A1.47,1.47,0,0,0,58,29.91,3.71,3.71,0,0,0,55.78,31V29.83h-.57L53.44,31v.27h.84v3.26c0,.67-.11.84-.8.94v.38h3.14v-.38Zm6.19-6.55a.94.94,0,0,0,.93-.95.83.83,0,0,0-.84-.84.92.92,0,0,0-.94.93.83.83,0,0,0,.85.86m1.73,6.55c-.76-.11-.87-.27-.87-.94V29.83h-.6L61.27,31v.27h.87v3.25c0,.67-.12.83-.87.94v.38h3.27v-.38Zm5.6-3.74c.45-1,.6-1.22,1.08-1.34V30H68.8v.35c.8.17.89.57.52,1.43L68.39,34l-1.15-2.61c-.25-.58-.21-.91.63-1V30H64.65v.38c.38.1.54.26.86.95L67.6,35.9h.64l1.9-4.18Zm6.41,3-.33-.26a1.86,1.86,0,0,1-1.4.64c-1.13,0-1.77-.86-2-2l3.67-1.22a2.07,2.07,0,0,0-2.24-2,3,3,0,0,0-3,3.08,2.8,2.8,0,0,0,3,3,2.42,2.42,0,0,0,2.27-1.22m-3.83-2.61c0-1,.42-1.58,1.23-1.58.56,0,.92.4,1.06,1.2l-2.28.78c0-.13,0-.27,0-.4m7.67,3.33c-.8-.12-.91-.3-.91-1.05V31.88a4,4,0,0,1,.72-1,.74.74,0,0,0,.75.79.86.86,0,0,0,.82-1,.79.79,0,0,0-.84-.87c-.6,0-1.07.5-1.51,1.21V29.83h-.54L77.11,31v.27H78v3.26c0,.67-.11.84-.81.94v.38h3.25v-.38ZM86.77,34c0-1.14-1-1.5-1.83-1.78s-1.47-.46-1.47-1.1a.68.68,0,0,1,.76-.66,2.56,2.56,0,0,1,1.84,1.13l.32-.15L85.92,30h-.2l-.22.18a3,3,0,0,0-1.15-.23,1.91,1.91,0,0,0-2.14,1.88c0,1.13.94,1.46,1.83,1.76s1.46.46,1.46,1.11c0,.41-.3.71-.89.71-.82,0-1.44-.54-2.19-1.49l-.33.12.48,1.91h.2l.36-.26a3,3,0,0,0,1.36.31A2,2,0,0,0,86.77,34m2.14-5.13a.94.94,0,0,0,.93-.95.83.83,0,0,0-.83-.84.93.93,0,0,0-1,.93.84.84,0,0,0,.85.86m1.74,6.55c-.76-.11-.87-.27-.87-.94V29.83h-.6L87.38,31v.27h.87v3.25c0,.67-.13.83-.87.94v.38h3.27v-.38Zm4.65-.17-.18-.39a2.36,2.36,0,0,1-.89.22c-.57,0-.72-.3-.72-.7V30.73h1.56V30H93.51V28.9h-.22l-2.2,1.44v.39H92v4c0,.79.45,1.22,1.35,1.22a3.28,3.28,0,0,0,2-.67m3.27,1.54,2.31-5.11c.46-1,.6-1.22,1.08-1.34V30H99.55v.35c.79.17.88.57.51,1.43L99.13,34,98,31.42c-.24-.58-.21-.91.64-1V30H95.4v.38c.38.1.52.26.85.95l2,4.4L98,36.5a2.81,2.81,0,0,1-.59.93c-.15-.5-.43-.77-.87-.77a.8.8,0,0,0-.82.87,1,1,0,0,0,1,1c.78,0,1.27-.39,1.87-1.7" transform="translate(0 0)"/><path class="cls-1" d="M52,15.77c0-1.44.41-1.8,1.1-2v-.38h-3v.38c.7.2,1.1.56,1.1,2v4.31L45,13.77c-.34-.34-.48-.38-.7-.38H42v.38a2.13,2.13,0,0,1,1.37.8.94.94,0,0,1,.35.72V20.2c0,1.43-.4,1.8-1.1,2v.38h3v-.38c-.69-.19-1.1-.56-1.1-2V15.57l7,7.06H52V15.77Zm8,3.83a2.84,2.84,0,0,0-3-3,3,3,0,0,0-3.17,3.1,2.84,2.84,0,0,0,3.05,2.95A3,3,0,0,0,60,19.6m-4.69-.55c0-1.1.47-1.8,1.48-1.8,1.3,0,1.68,1.59,1.68,3.05,0,1.1-.48,1.8-1.49,1.8-1.29,0-1.67-1.6-1.67-3.05m8.84,3.14c-.8-.12-.91-.29-.91-1.05V18.62a4,4,0,0,1,.72-1,.73.73,0,0,0,.75.78.86.86,0,0,0,.82-1,.79.79,0,0,0-.84-.87c-.6,0-1.07.5-1.51,1.21V16.56h-.54l-1.77,1.16V18h.84v3.26c0,.67-.11.85-.81.94v.38h3.25v-.38Zm6-.17-.19-.39a2.14,2.14,0,0,1-.88.22c-.57,0-.72-.29-.72-.7V17.47h1.55v-.7H68.34V15.63h-.22l-2.21,1.45v.39h.9v4c0,.8.45,1.23,1.35,1.23a3.31,3.31,0,0,0,2-.68m3.51.17c-.7-.09-.81-.27-.81-.94V18.41a2.35,2.35,0,0,1,1.56-.81c.6,0,.77.31.77.86v2.79c0,.67-.11.85-.81.94v.38H77.5v-.38c-.7-.09-.81-.27-.81-.94V18.32A1.47,1.47,0,0,0,75,16.65a3.63,3.63,0,0,0-2.21,1.05V12.85h-.45l-2,1.29v.27h.89v6.84c0,.67-.11.85-.81.94v.38h3.15v-.38Zm9.75-.72-.33-.26a1.88,1.88,0,0,1-1.41.64c-1.13,0-1.76-.86-2-2l3.68-1.22a2.08,2.08,0,0,0-2.25-2,3,3,0,0,0-3,3.07,2.81,2.81,0,0,0,3,3,2.46,2.46,0,0,0,2.28-1.23m-3.84-2.61c0-1,.42-1.58,1.23-1.58.56,0,.92.41,1.06,1.2l-2.27.79a2.82,2.82,0,0,1,0-.41m8.69,3.79a2.72,2.72,0,0,0,1.45-.51l-.11-.34c-.6.11-.82,0-.82-.38V18.15c0-1-.43-1.5-1.81-1.5-1.56,0-2.69.83-2.69,1.61A.66.66,0,0,0,85,19a.79.79,0,0,0,.82-.66.83.83,0,0,0-.23-.82,2.08,2.08,0,0,1,.93-.22c.53,0,.79.18.79.66v1.22c-2.2.54-3.2,1-3.2,2.18a1.31,1.31,0,0,0,1.48,1.38,3,3,0,0,0,1.8-.69.8.8,0,0,0,.9.64M85.54,21c0-.63.28-.92,1.72-1.31v1.77a1.55,1.55,0,0,1-1,.39c-.48,0-.76-.25-.76-.85M95,20.77c0-1.14-.94-1.49-1.82-1.77s-1.47-.47-1.47-1.1a.67.67,0,0,1,.75-.66,2.54,2.54,0,0,1,1.84,1.12l.32-.15-.46-1.51h-.2l-.22.18a2.88,2.88,0,0,0-1.15-.23,1.9,1.9,0,0,0-2.15,1.87c0,1.14,1,1.47,1.83,1.76s1.47.47,1.47,1.12c0,.4-.31.71-.9.71-.82,0-1.44-.54-2.19-1.5l-.33.13.48,1.91H91l.35-.26a3.06,3.06,0,0,0,1.36.31A2.05,2.05,0,0,0,95,20.77M99.6,22l-.19-.39a2.14,2.14,0,0,1-.88.22c-.57,0-.72-.29-.72-.7V17.47h1.56v-.7H97.81V15.63h-.22l-2.2,1.45v.39h.89v4c0,.8.45,1.23,1.35,1.23a3.31,3.31,0,0,0,2-.68m5.65-.55-.33-.26a1.86,1.86,0,0,1-1.4.64c-1.13,0-1.77-.86-2-2l3.67-1.22a2.07,2.07,0,0,0-2.24-2,3,3,0,0,0-3,3.07,2.81,2.81,0,0,0,3,3,2.43,2.43,0,0,0,2.27-1.23m-3.83-2.61c0-1,.42-1.58,1.23-1.58.56,0,.91.41,1.06,1.2l-2.28.79c0-.14,0-.27,0-.41m7.67,3.33c-.8-.12-.91-.29-.91-1.05V18.62a4,4,0,0,1,.72-1,.73.73,0,0,0,.75.78.86.86,0,0,0,.82-1,.79.79,0,0,0-.84-.87c-.6,0-1.07.5-1.51,1.21V16.56h-.54l-1.78,1.16V18h.85v3.26c0,.67-.11.85-.81.94v.38h3.25v-.38Zm4.87,0c-.7-.09-.81-.27-.81-.94V18.42a2.54,2.54,0,0,1,1.56-.82c.6,0,.77.31.77.86v2.79c0,.67-.11.85-.81.94v.38h3.15v-.38c-.7-.09-.81-.27-.81-.94V18.32a1.47,1.47,0,0,0-1.65-1.67,3.71,3.71,0,0,0-2.25,1.09V16.56h-.56l-1.77,1.16V18h.84v3.26c0,.67-.11.85-.81.94v.38H114v-.38Z" transform="translate(0 0)"/><path class="cls-2" d="M31.32,31.32A18.06,18.06,0,1,1,5.77,5.78,18.06,18.06,0,1,1,31.32,31.32M18.55,0A18.55,18.55,0,1,0,37.09,18.55,18.55,18.55,0,0,0,18.55,0" transform="translate(0 0)"/><path class="cls-2" d="M30.73,30.73A17.23,17.23,0,0,1,1.32,18.55,17.23,17.23,0,0,1,30.73,6.37a17.24,17.24,0,0,1,0,24.36M18.55,1.13A17.42,17.42,0,1,0,36,18.55,17.42,17.42,0,0,0,18.55,1.13" transform="translate(0 0)"/><path class="cls-2" d="M18.55,31.65a13.11,13.11,0,1,1,13.1-13.1,13.1,13.1,0,0,1-13.1,13.1m0-26.4a13.3,13.3,0,1,0,13.29,13.3A13.31,13.31,0,0,0,18.55,5.25" transform="translate(0 0)"/><path class="cls-2" d="M22,10.17l6.83,2.2a13.74,13.74,0,0,1,.78,1.53l-7.38-3s0,0,0,0,0,0,0,0l5.54,3.25a4.22,4.22,0,0,1-.14,1.08l0,.16L22,11.79a0,0,0,0,0,0,0,0,0,0,0,0,0,0l4.63,4.36c0,.28-.05.57-.09.87l-.06.49L25.94,17c0-.15,0-.24,0-.28A1,1,0,0,0,25,16l-3.49-3.62h0a0,0,0,0,0,0,0L24,16.12a1,1,0,0,0-.32.22,1.18,1.18,0,0,0-.35.68l-2.19-3.58s0,0,0,0,0,0,0,0l1.43,3.72-.73-.1L21.3,17l-.7-2.32s0,0,0,0,0,0,0,0L20.75,17,20,16.87l.2-3.18a.35.35,0,0,0,.19-.17.68.68,0,0,0,.07-.36.33.33,0,0,0,.21-.31v0a.39.39,0,0,0-.08-.25l.07-.19h0a.21.21,0,0,0-.09-.23l.19-.59c.14,0,.24,0,.28-.2l.06-.26c.34,0,.39,0,.47-.08a.33.33,0,0,0,.16-.32.35.35,0,0,0-.16-.31c-.07,0-.16-.07-.6-.08a.78.78,0,0,0,.2-.63,1.79,1.79,0,0,0-.67-1.34h0l0,0a1.09,1.09,0,0,1-.07.5l0-.09a1.74,1.74,0,0,1-.21-1.31s0,0,0,0,0,0,0,0a2.94,2.94,0,0,0-.59.76,2.83,2.83,0,0,0-1.61-1.57l.72,0c.34,0,.69,0,1,0l-.17.58a0,0,0,0,0,0,0h0l.48-.58.85.13-.43.62a0,0,0,0,0,0,0h.05l.78-.57a7.92,7.92,0,0,1,.87.23l-1,.81s0,0,0,0l0,0h0l1.54-.67c.38.14.75.3,1.1.47l-2.27.91s0,0,0,0l0,0h0l3-.58h0a10.4,10.4,0,0,1,1.36.91l-3.94.25a0,0,0,0,0,0,0s0,0,0,0l4.7.32a11.86,11.86,0,0,1,1.28,1.37l-5.91-1s0,0,0,0,0,0,0,0m8.49,7.3-.53-.36c0-.13,0-.28,0-.43s0-.09,0-.1a.06.06,0,0,0-.08,0l-.23.24-.36-.24a2.11,2.11,0,0,0,0-.26,2.62,2.62,0,0,0-.44-1.47l1.41.83a11.54,11.54,0,0,1,.29,1.76m-.29,3.92-.63-.66a6.35,6.35,0,0,0,.37-1.44l.54.51a12,12,0,0,1-.28,1.59m-2.73,2.73-.21,0a2,2,0,0,0-.15-.49,5.89,5.89,0,0,0,1.33-1,0,0,0,0,0,0,0h0a5.09,5.09,0,0,1-1.37.85c-.06-.15-.14-.32-.22-.54a2,2,0,0,1,.62-.45,6.75,6.75,0,0,1,1.17-.43c.32-.09.7-.22,1-.33a3.46,3.46,0,0,1-2.14,2.39m1,1.22-.13-.22a5.25,5.25,0,0,0,.5-1.11.1.1,0,0,0,0-.1.09.09,0,0,0-.09,0,3.5,3.5,0,0,1-.56.13,3.47,3.47,0,0,0,.84-.72l.36.52a12.09,12.09,0,0,1-.89,1.52m-1.81.85a6.83,6.83,0,0,0-.79,0c.09-.11.18-.23.26-.35a4.16,4.16,0,0,0,1.7-1.12s0,0,0,0a0,0,0,0,0,0,0,4.61,4.61,0,0,1-.7.49,1.22,1.22,0,0,0,.25-.83v0l.51-.08c.26,0,.56-.12.81-.18a3,3,0,0,1-2,2.12m-3.3,2-.45-.06A9.69,9.69,0,0,1,25.63,27s0,0,0,0a0,0,0,0,0,0,0,7.38,7.38,0,0,0-2.4.77,3.56,3.56,0,0,0,.32-.5,5.06,5.06,0,0,1,3.3-.84,3.67,3.67,0,0,1-3.54,1.84m1.55.56-.16-.5a3.73,3.73,0,0,0,1.66-1l.11.29a11,11,0,0,1-1.61,1.2m-4.49.85A5.5,5.5,0,0,1,22.77,29a0,0,0,0,0,0,0,.05.05,0,0,0,0,0,5.06,5.06,0,0,0-2.13.28,2.7,2.7,0,0,0,.87-.8,3.58,3.58,0,0,1,1.78,0,8.48,8.48,0,0,0,.88.06c-.76.86-2.19,2-3.82,1.17m.11.83c0,.1-.15.13-.4.06l-.76-.24a.88.88,0,0,0,0-.16.69.69,0,0,0-.08-.32l1,.4c.19.08.22.15.18.26m-1.92.25a.58.58,0,0,1-.62-.65.63.63,0,0,1,.09-.33,4.58,4.58,0,0,1,1.05,0,.69.69,0,0,1,.09.34.57.57,0,0,1-.61.65m-.77-.43-.76.24c-.25.07-.37,0-.4-.06s0-.18.18-.26l1-.4a.68.68,0,0,0-.07.32.86.86,0,0,0,0,.16m-2.72-.32A2.83,2.83,0,0,1,13.2,28.3a3.87,3.87,0,0,0,1.2.15,3.24,3.24,0,0,1,2.56.92h0A5.17,5.17,0,0,1,14.58,29s0,0,0,0a0,0,0,0,0,0,0,3.36,3.36,0,0,0,2.11.56h.21a2.56,2.56,0,0,1-1.8.28m-2.29-.86A12.67,12.67,0,0,1,11.15,28l.19-.54a3.09,3.09,0,0,0,1.57.39l.15.14-.29,1.09ZM10.3,26.29l.55-.06.62-.05a2.6,2.6,0,0,0,.4,0h.05a3.51,3.51,0,0,0,.41,0l.46.07c.1.15.2.31.33.47l-.6,0a8.62,8.62,0,0,0-.88-.09s0,0,0,0a0,0,0,0,0,0,0h0l.56.13a0,0,0,0,0,0,0,3.3,3.3,0,0,0,.51.75,3.19,3.19,0,0,1-2.44-1.35M9.09,24.84a7.07,7.07,0,0,0,.82.1A1.73,1.73,0,0,0,11,26.07l-.12,0-.49,0a3.13,3.13,0,0,1-1.33-1.29m-.16.85A11.68,11.68,0,0,1,7.9,24l.43-.65.07.13a7,7,0,0,0,.37.61,3.11,3.11,0,0,0,.54.59L9,24.66a.11.11,0,0,0-.11,0s0,.07,0,.1a2.27,2.27,0,0,0,.27.48l-.25.43ZM7,21.57A11.45,11.45,0,0,1,6.66,20l.49-.47a3.26,3.26,0,0,0,.23,1.59L7,21.57Zm-.08-5.71,1.06-.66a4.55,4.55,0,0,0-.23,1.71l-1.1.78a12,12,0,0,1,.27-1.83M8.39,12.2,15.12,10a0,0,0,0,0,0-.07L9.19,11.07a13,13,0,0,1,1.18-1.28l5-.63a0,0,0,0,0,0,0s0,0,0,0l-3.84-.22A13.17,13.17,0,0,1,12.86,8l2.81.38h0a0,0,0,0,0,0,0s0,0,0,0l-1.85-.78a10.41,10.41,0,0,1,1.32-.48l1.07.68h0a.06.06,0,0,0,0,0l-.58-.78a11.82,11.82,0,0,1,1.7-.28,1.29,1.29,0,0,1,.45.91,2.19,2.19,0,0,1-.05.47,1.78,1.78,0,0,0-1.05-.74l0,0a0,0,0,0,0,0,0,1,1,0,0,1,.37.95,2.36,2.36,0,0,1-.23.68.93.93,0,0,0-.05.1,1,1,0,0,1,0-.88s0,0,0,0h0A2.15,2.15,0,0,0,16,9.76a.66.66,0,0,0,.18.53c-.42,0-.5,0-.57.08a.35.35,0,0,0-.16.31.33.33,0,0,0,.16.32c.08.05.13.07.47.08l.07.27a.27.27,0,0,0,.27.19l.19.59a.21.21,0,0,0-.09.23h0l.08.2h0a.38.38,0,0,0-.09.24v0a.3.3,0,0,0,.21.31.74.74,0,0,0,.07.37.37.37,0,0,0,.19.16l.2,3.17-.69.09.15-2s0,0,0,0,0,0,0,0L16,17l-.39.06-.73.11,1.25-3.65a0,0,0,0,0-.06,0l-2.13,3.66v0a1.36,1.36,0,0,0-.7-1l2.51-3.74a0,0,0,0,0,0,0h-.05L12.3,15.92a1.19,1.19,0,0,0-1.09.75,1.49,1.49,0,0,0-.05.45l-.43.46a8,8,0,0,0-.43-1.13l4.88-4.76a0,0,0,0,0,0,0s0,0,0,0l-6,4.22c-.08-.23-.17-.45-.25-.66s-.13-.34-.19-.5l6.16-3.8s0,0,0,0,0,0,0,0L7.5,13.92a12.17,12.17,0,0,1,.89-1.72M19.17,8.76,18.9,8.4c-.12-.15-.25-.31-.37-.49,0,0,0,0,0,0s0,0,0,0a2,2,0,0,1-.18.87,2.33,2.33,0,0,0-.18.78c0,.05,0,.09,0,.14v0a.17.17,0,0,0,0,.07,1.55,1.55,0,0,0,0,.15.61.61,0,0,0,.07.14.86.86,0,0,1-.32-.14.72.72,0,0,1-.24-.42h0s0-.06,0-.09h0a.28.28,0,0,1,0-.09v-.1a2,2,0,0,1,.16-.69,2.72,2.72,0,0,0,.21-1,1.38,1.38,0,0,0-.4-1,2.66,2.66,0,0,1,1.65,1.84,2.33,2.33,0,0,0-.11.28m.17.89s0,.08,0,.12,0,0,0,0a.15.15,0,0,1,0,.07v0s0,0,0,.05l0,0a.42.42,0,0,1-.43.21.43.43,0,0,1-.42-.22l0-.08v0s0-.05,0-.08a.43.43,0,0,1,0-.05s0,0,0-.07,0-.09,0-.14a2.88,2.88,0,0,1,.17-.78,3.36,3.36,0,0,0,.12-.48l.17.23a2.17,2.17,0,0,1,.56,1.12M17.11,7.58a1.69,1.69,0,0,1,.62.65l-.12.29a2.75,2.75,0,0,0-.21.79v.2c0,.06,0,.11,0,.17h0a1.08,1.08,0,0,0,.13.29l.08.12h0a.77.77,0,0,1-.27,0,.5.5,0,0,1-.5-.46.41.41,0,0,1,0-.11A1,1,0,0,1,17,9.06V9a1.42,1.42,0,0,0,.1-1.46m-.42,1.74a1.14,1.14,0,0,0-.05.33s0,.08,0,.12v0s0,.06,0,.09l0,.07a.82.82,0,0,0,.12.2.41.41,0,0,1-.23.06.36.36,0,0,1-.19,0l-.09-.06h0l0,0h0l0-.05h0l0-.06v0a.14.14,0,0,1,0-.06v0s0-.05,0-.07v0a.49.49,0,0,1,0-.12,1.78,1.78,0,0,1,.43-1.08,1.34,1.34,0,0,0,.11.78m4,1.6H16.39c-.66,0-.68,0-.75-.06s-.07-.06-.07-.18a.19.19,0,0,1,.08-.18,3.4,3.4,0,0,1,1.09-.06h3.61a3.4,3.4,0,0,1,1.09.06.19.19,0,0,1,.08.18c0,.12,0,.16-.07.18s-.09.06-.75.06m-.17.69-.15.46-.05,0c-.12,0-.15-.13-.13-.31l0-.14a1.1,1.1,0,0,1,.3,0m-.36-.22a.08.08,0,0,0-.08.06L20,11.7a.42.42,0,0,0,.22.49l.18.07s0,0,0,.06l-.05.14H16.68l-.05-.14c0-.05,0-.05,0-.06l.18-.07a.42.42,0,0,0,.22-.5L17,11.46a.07.07,0,0,0-.07-.06l-.48,0c-.15,0-.17,0-.19-.07l0-.16h4.66l0,.15s0,.08-.15.08Zm-3.61.22a1,1,0,0,1,.3,0l0,.12c0,.18,0,.27-.12.32l-.06,0-.15-.46ZM16.79,13a.15.15,0,0,1-.17-.17v0a.19.19,0,0,1,.17-.19h3.53c.1,0,.15.07.15.19v0a.16.16,0,0,1-.17.17Zm3.17.55H17.13c-.16,0-.2-.06-.24-.12a.61.61,0,0,1-.06-.22h3.43a.57.57,0,0,1-.06.21c0,.07-.08.1-.24.13m-.41,3.27.13-2.41c0-.2,0-.32-.27-.32s-.29.1-.3.32l-.05,2.38h-.25l0-2.38a.34.34,0,0,0-.08-.25.29.29,0,0,0-.23-.07.33.33,0,0,0-.23.07.34.34,0,0,0-.08.25l.05,2.37H18L18,14.43c0-.22-.08-.31-.28-.31a.31.31,0,0,0-.22.07.29.29,0,0,0-.07.24l.13,2.39-.25,0-.19-3H20l-.19,3.05h-.25m-.36,0,.07-2.32c0-.1,0-.16.14-.16s.14.08.13.17l-.11,2.32h-.23m-.81-2.27c0-.17.06-.21.17-.21s.17.07.16.21l0,2.25h-.27l0-2.24Zm-.82,0a.13.13,0,0,1,.14-.16c.08,0,.13.05.14.15l.06,2.3h-.23l-.11-2.3ZM15.83,26.32l.09-.74c.43,0,.89-.1,1.37-.13l-.08,2.13A4,4,0,0,0,16,26.41l-.13-.09M12.38,25.1a3,3,0,0,1,2.7,1.42,5.18,5.18,0,0,0,.11.72L15,27.11c-.84-1-1.31-1.34-1.74-1.46,0,0,0,0,0,0s0,0,0,.05a4.7,4.7,0,0,1,1.35,1.22,3.73,3.73,0,0,0-1.21-.22,5.32,5.32,0,0,1-.72-1.16c-.09-.17-.17-.32-.25-.45m-2.13-1.61a14,14,0,0,0,.86-3,15.64,15.64,0,0,0,.25-3.11,3.19,3.19,0,0,1,0-.65,1.1,1.1,0,0,1,1.28-.61,1.19,1.19,0,0,1,1,1,1.79,1.79,0,0,1-.08.57c-.09.39-.24,1.19-.4,2.48a14,14,0,0,0-.08,3.17,4.64,4.64,0,0,1,0,1.09,1,1,0,0,1-.28.56,5.36,5.36,0,0,0-.69-.06.08.08,0,0,0-.1,0,.13.13,0,0,0,0,.12l.1.15-.25,0h0a1.47,1.47,0,0,1-1.1-.5.62.62,0,0,1-.08-.65,1.21,1.21,0,0,1,.27-.44,1,1,0,0,1,.62-.17,1.08,1.08,0,0,1,.84.32,4.28,4.28,0,0,1,0,.49s0,0,0,0,0,0,0,0a1.53,1.53,0,0,0-.89-.33h0a.7.7,0,0,0-.47.16.28.28,0,0,0-.08.21c0,.19.13.41.63.41h0a1.59,1.59,0,0,0,1.06-.33,1.5,1.5,0,0,1,.23.15h0a1,1,0,0,0-.14-.88,1.28,1.28,0,0,0-1.1-.47h0a1.67,1.67,0,0,0-1.2.5,1.14,1.14,0,0,0,0,1.36h0a.6.6,0,0,1,.09-.15,1.6,1.6,0,0,0,1.33.58h0a1.88,1.88,0,0,0,.43-.05l.1.19q.07.13.15.3a5.46,5.46,0,0,1-.7.07A1.68,1.68,0,0,1,10,24.46a1.87,1.87,0,0,1,.23-1M8.16,20.21a3.61,3.61,0,0,1,1.35,1.27,3,3,0,0,0,.19.88h0a10,10,0,0,0-1.48-1.47H8.16a0,0,0,0,0,0,.05c.1.12.27.31.47.52s.7.76,1,1.12a5.36,5.36,0,0,0-.77-.18A2.48,2.48,0,0,1,8,21.75a3.09,3.09,0,0,1-.7-2.25,4.55,4.55,0,0,0,.88.71m1.38.68A8.34,8.34,0,0,0,8,18.73a0,0,0,0,0,0,0,0,0,0,0,0,0,.05A13.2,13.2,0,0,1,9.32,20.9a4.94,4.94,0,0,0-1.06-.84l-.48-.31A2.92,2.92,0,0,1,7.3,18c1.62.49,2.34,1.43,2.24,2.93m-.37-3a2.79,2.79,0,0,0-.15.73,7.17,7.17,0,0,1-.55-2.46l0,0,0,0a5.16,5.16,0,0,0,.34,2.28,3.27,3.27,0,0,0-.41-.28c-.91-1.34-.24-3.15.15-3.93.08.29.19.75.31,1.05a5.86,5.86,0,0,1,.53,2.24c-.05.13-.1.23-.15.37m1.37,1a4.94,4.94,0,0,0-.67,1h0A9.26,9.26,0,0,0,10,17.59a0,0,0,0,0,0,0s0,0,0,0a9.21,9.21,0,0,1-.28,2.23.83.83,0,0,1-.08-.12A2.43,2.43,0,0,0,9.24,19a1.75,1.75,0,0,1,.11-1c.07-.23.15-.33.25-.65s.26-.91.34-1.34a1.17,1.17,0,0,1,.05.11,4.07,4.07,0,0,1,.55,2.84m0,1.49s0,0,0,0a5.71,5.71,0,0,0-.34,2.35,3.16,3.16,0,0,1,.75-3.95c0,.27.1.55.17.85s-.07.47-.12.72a15.6,15.6,0,0,1-.61,2.37,7,7,0,0,1,.21-2.33s0,0,0,0m-1.31,2.8a3.43,3.43,0,0,1,.69.69,1.6,1.6,0,0,0-.06.55c0,.1,0,.2,0,.3H9.7A2.17,2.17,0,0,1,8.92,24a6.59,6.59,0,0,1-.36-.59,6.34,6.34,0,0,0-.64-1,3,3,0,0,0,.43.06,3.56,3.56,0,0,1,1.84.6c0,.12-.09.22-.12.31s-.1.23-.14.34a2.45,2.45,0,0,0-.7-.58s0,0,0,0a0,0,0,0,0,0,0m4.52,4.2a3.73,3.73,0,0,0,1.29.86l-.6,0c-.21,0-.42,0-.62,0a3.05,3.05,0,0,1-1.35-1.31,3.81,3.81,0,0,1,2.84.57,3.09,3.09,0,0,0,.42.83,6.17,6.17,0,0,1-1.93-.95s0,0,0,0a0,0,0,0,0,0,0m2.35-.06c.18.28.69,1.16,1,1.86h0a3,3,0,0,0-1-.68A3.47,3.47,0,0,1,15.24,26c.19.18.41.34.61.5.81.61,1.64,1.16,1.48,2.7-.06-.12-.13-.24-.23-.42l-.2-.33a4.75,4.75,0,0,0-.8-1.15h0a0,0,0,0,0,0,0M18.17,29h.75c.27,0,.32,0,.36.06s.09.07.09.17,0,.14-.09.18-.09.05-.33.05h-.8c-.25,0-.31,0-.34-.05s-.09-.08-.09-.18,0-.14.09-.17.09-.06.36-.06m0-3.64h.27l0,2.94a0,0,0,1,0,.06,0l0-2.94h.27l-.07,2.07a0,0,0,0,0,0,0h0l0,0L19,25.4h.26L19,28.89h-1l-.22-3.47h.25l.12,2.13a0,0,0,0,0,0,0h0a0,0,0,0,0,0,0L18.2,25.4Zm6.74.57a4.27,4.27,0,0,0,.92-.12,4.08,4.08,0,0,1-.31.39,5,5,0,0,0-1.34.35,6.74,6.74,0,0,0,.73-.62m-1,0c.23,0,.46,0,.71,0h0a10.55,10.55,0,0,1-.94.68,4.91,4.91,0,0,0,.2-.71m-4.16-.51c.49,0,.93.09,1.37.16l.09.73a3.74,3.74,0,0,0-1.38,1.27l-.08-2.16Zm1.2,2s0,0,0,0a5,5,0,0,1-1.2,1.69c-.09-1.6.77-2.13,1.7-2.75L22,26a3.16,3.16,0,0,1-2.06,3.27A5.39,5.39,0,0,0,21,27.49s0,0,0,0m2.29-1.22a0,0,0,0,0,0,0,18.94,18.94,0,0,0-1.43,1.63,4.35,4.35,0,0,0,.32-1.21,4.3,4.3,0,0,1,1.77-1.18,4.16,4.16,0,0,1-1.32,2.62,3.08,3.08,0,0,0-.74,0c.24-.32.49-.63.74-.94s.51-.64.71-.91a0,0,0,0,0,0,0m4-5.27a2.89,2.89,0,0,1-.59,1.73l-.14-.48a6.86,6.86,0,0,0,0-1.92s0,0,0,0a0,0,0,0,0,0,0c0,.56,0,1,0,1.38a13.31,13.31,0,0,1-.24-1.4c0-.24-.07-.47-.09-.7a2.94,2.94,0,0,0,.12-.81A3,3,0,0,1,27.29,21m.28-.5h0l-.07.08a8.48,8.48,0,0,0-.33-2.66s0,0,0,0,0,0,0,0A11.59,11.59,0,0,1,27.28,20a3.61,3.61,0,0,0-.65-1.06,7,7,0,0,1,.07-1.83c0-.33.09-.66.1-1,.66.78,1.89,2.68.77,4.34m1.54-1c-.21.15-.44.29-.66.42l-.12.07-.14.06a9.56,9.56,0,0,1,.91-1.77s0,0,0,0a0,0,0,0,0,0,0,5.23,5.23,0,0,0-1,1.69v0a2.83,2.83,0,0,0,.12-1.43,3.15,3.15,0,0,1,1-1,7,7,0,0,0,.62-.6,2.92,2.92,0,0,1-.69,2.66m-.33,1.09s0,0,0,0a7.14,7.14,0,0,0-1.59,1.76A3,3,0,0,0,27.47,21s0-.06,0-.09a1.49,1.49,0,0,1,.23-.27,4.7,4.7,0,0,1,.85-.58,7.16,7.16,0,0,0,1.21-.83,5.07,5.07,0,0,1-1.12,2.69l-.09,0a10.26,10.26,0,0,0-1.15.39,10.8,10.8,0,0,1,1.39-1.71,0,0,0,0,0,0,0m-.91-6.43A2.93,2.93,0,0,1,29,16.35a2.27,2.27,0,0,1-.4,1.26,3.84,3.84,0,0,0-.29.27,6.82,6.82,0,0,0,0-2.43s0,0,0,0a.05.05,0,0,0,0,0,6.75,6.75,0,0,1-.2,2.62,4.32,4.32,0,0,0-.44-1,4.16,4.16,0,0,1,.12-1.67,4.29,4.29,0,0,0,.11-1.27M25.24,25.39A1.54,1.54,0,0,0,26.32,25a1,1,0,0,0,.31-.62.55.55,0,0,1,.14.09h0a.87.87,0,0,0-.2-.84,1.53,1.53,0,0,0-1.21-.51h0a1.25,1.25,0,0,0-1.1.51,1,1,0,0,0-.11.91,0,0,0,0,0,0,0,0,0,0,0,0,0,0,.74.74,0,0,1,.19-.16,1.71,1.71,0,0,0,1.3.27.59.59,0,0,0,.44-.23.33.33,0,0,0,0-.28c-.06-.21-.42-.28-.65-.25a1.3,1.3,0,0,0-.73.45h0s0,0,0,0a3.45,3.45,0,0,1,0-.56,1,1,0,0,1,.74-.33h0a.94.94,0,0,1,.6.15,1.4,1.4,0,0,1,.26.45.63.63,0,0,1-.08.67,1.3,1.3,0,0,1-1,.43,1.75,1.75,0,0,1-1.13-.34h0c-.2-.24-.22-.46-.11-1.33a15.15,15.15,0,0,0,0-3.29,21.45,21.45,0,0,0-.39-2.5c-.05-.24-.1-.43-.1-.48a1,1,0,0,1,.3-.7,1.19,1.19,0,0,1,.88-.31c.6,0,1,.21,1.07.58,0,.05,0,.28,0,.54a27.46,27.46,0,0,0,.23,3,10.66,10.66,0,0,0,.84,3.25,2,2,0,0,1,.23.8,1,1,0,0,1-.28.8,2.94,2.94,0,0,1-2.12.62l-.67,0,.06-.35s0-.09,0-.11-.07,0-.1,0a5.65,5.65,0,0,0-.82.38c-.49-.06-.94-.13-1.38-.2a17.54,17.54,0,0,0-2.92-.28,25.33,25.33,0,0,0-4.31.4A3,3,0,0,0,13.18,25a1.24,1.24,0,0,0,.23-.55,5.58,5.58,0,0,0-.05-1.16,14,14,0,0,1,0-3.15c.14-1.29.29-2.09.37-2.49a1.8,1.8,0,0,0,.05-.19c.63-.07,1.22-.16,1.79-.24A18.78,18.78,0,0,1,18.22,17a24.4,24.4,0,0,1,3.52.29c.59.09,1.1.16,1.6.19a1.58,1.58,0,0,0,.06.23,14.62,14.62,0,0,1,.37,2.48,15.52,15.52,0,0,1-.06,3.25c-.15,1.08-.09,1.23.19,1.53a1.78,1.78,0,0,0,1.24.46ZM20.44,9.1a1.76,1.76,0,0,0,.09-.47,1.3,1.3,0,0,1,.41.9c0,.05,0,.1,0,.14s0,0,0,0a.3.3,0,0,1,0,.1v0s0,0,0,.06l0,.05,0,0a.18.18,0,0,1-.06.09h0a.5.5,0,0,1-.35.13h-.07a.62.62,0,0,0,.12-.19.53.53,0,0,0,.05-.15s0,0,0-.05a.13.13,0,0,1,0-.06s0-.1,0-.15a1.46,1.46,0,0,0-.1-.52m-.32-.29a1.81,1.81,0,0,1,.23.78.61.61,0,0,1,0,.14v0s0,.05,0,.07a.5.5,0,0,1-.11.19h0a.5.5,0,0,1-.39.15.61.61,0,0,1-.35-.09l0-.08s0,0,0-.06v0a.43.43,0,0,0,0-.05s0,0,0-.06v0a.49.49,0,0,0,0-.12A1.49,1.49,0,0,0,19.31,9a3.34,3.34,0,0,1,.58-1.18,1.86,1.86,0,0,0,.23,1M18.55,6.09A12.46,12.46,0,1,0,31,18.55,12.47,12.47,0,0,0,18.55,6.09" transform="translate(0 0)"/><path class="cls-2" d="M17.16,19.22l.39,0c.05,0,.08,0,.08.08v.09c0,.06,0,.09-.08.09l-.59,0c-.06,0-.09,0-.09-.08v-1c0-.06,0-.09.08-.09h.12a.07.07,0,0,1,.08.08c0,.34,0,.51,0,.85" transform="translate(0 0)"/><path class="cls-2" d="M18.4,19.45h-.11c-.06,0-.09,0-.11-.08-.16-.41-.23-.62-.38-1a.05.05,0,0,1,.05-.08H18a.09.09,0,0,1,.11.08c.1.3.16.45.26.74.11-.3.16-.44.26-.74a.1.1,0,0,1,.11-.08h.11c.05,0,.07,0,.06.08-.15.41-.22.62-.38,1a.1.1,0,0,1-.11.08" transform="translate(0 0)"/><path class="cls-2" d="M19.35,19.46h-.16a0,0,0,0,1,0-.07l.35-.54-.3-.51s0-.08,0-.07h.16a.11.11,0,0,1,.12.07l.17.31.17-.29a.12.12,0,0,1,.13-.07h.15s.05,0,0,.08l-.3.48c.13.23.2.34.34.57a0,0,0,0,1,0,.07H20a.14.14,0,0,1-.13-.08c-.08-.15-.12-.22-.21-.36-.08.14-.12.2-.21.34a.11.11,0,0,1-.12.07" transform="translate(0 0)"/><path class="cls-2" d="M15,21.84h-.12a.09.09,0,0,1-.12-.06c-.18-.39-.27-.59-.43-1a.07.07,0,0,1,.05-.09l.14,0c.07,0,.09,0,.12.07.11.28.17.42.3.69.1-.3.14-.46.24-.77a.12.12,0,0,1,.11-.09l.12,0c.05,0,.08,0,.06.07-.14.44-.21.66-.36,1.09a.12.12,0,0,1-.11.1" transform="translate(0 0)"/><path class="cls-2" d="M16,21.71c-.06,0-.09,0-.09-.08,0-.4,0-.61,0-1a.09.09,0,0,1,.08-.1l.68-.05c.05,0,.08,0,.08.07a.28.28,0,0,0,0,.09.08.08,0,0,1-.09.09l-.46,0V21l.32,0c.06,0,.09,0,.09.08v.07c0,.06,0,.09-.08.09l-.33,0a1.77,1.77,0,0,1,0,.23l.48,0c.05,0,.08,0,.08.08a.22.22,0,0,1,0,.08.09.09,0,0,1-.09.1l-.69.05" transform="translate(0 0)"/><path class="cls-2" d="M17.67,20.65h-.18v.27h.18a.13.13,0,0,0,.13-.13c0-.09-.06-.14-.13-.14m-.27,1h-.12c-.06,0-.09,0-.09-.08,0-.41,0-.62,0-1,0-.06,0-.09.08-.09l.39,0a.37.37,0,0,1,.42.36.35.35,0,0,1-.19.32l.24.43s0,.07-.05.07h-.15a.12.12,0,0,1-.13-.07c-.07-.15-.11-.22-.19-.37h-.13v.37c0,.06,0,.08-.09.09" transform="translate(0 0)"/><path class="cls-2" d="M18.65,21.6c-.06,0-.09,0-.09-.09,0-.41,0-.61,0-1,0-.06,0-.09.08-.09h.12a.08.08,0,0,1,.09.09v1a.08.08,0,0,1-.09.09h-.12" transform="translate(0 0)"/><path class="cls-2" d="M19.68,21.62c-.05,0-.08,0-.08-.09,0-.34,0-.5,0-.84l-.27,0a.07.07,0,0,1-.08-.08v-.1s0-.08.09-.08l.82,0s.08,0,.08.09v.09c0,.06,0,.09-.08.08H19.9v.84a.08.08,0,0,1-.09.09h-.13" transform="translate(0 0)"/><path class="cls-2" d="M21.13,21.26l-.13-.4-.15.37.28,0m-.55.41h-.13a.07.07,0,0,1-.05-.09c.18-.4.27-.6.44-1,0-.06.05-.07.11-.07h.12a.13.13,0,0,1,.12.09c.15.43.23.65.39,1.08,0,0,0,.08-.06.07h-.14a.11.11,0,0,1-.12-.09l-.05-.15-.45,0a.59.59,0,0,0-.06.14c0,.06-.06.08-.12.07" transform="translate(0 0)"/><path class="cls-2" d="M15.55,23.9h-.12c-.07,0-.1,0-.12-.07-.19-.4-.28-.59-.45-1,0,0,0-.08.06-.09h.14c.07,0,.1,0,.12.07.12.28.18.42.31.7l.25-.76c0-.07,0-.09.11-.09l.13,0c.05,0,.08,0,.06.08-.14.43-.22.65-.37,1.08,0,.06-.05.08-.12.09" transform="translate(0 0)"/><path class="cls-2" d="M16.6,23.81c-.06,0-.09,0-.09-.08,0-.41,0-.62,0-1a.09.09,0,0,1,.08-.09h.13c.06,0,.09,0,.09.08,0,.4,0,.61,0,1,0,.05,0,.08-.08.09H16.6" transform="translate(0 0)"/><path class="cls-2" d="M17.82,22.8h-.19v.27h.19a.13.13,0,0,0,.13-.14.13.13,0,0,0-.13-.13m-.27,1h-.13c-.06,0-.09,0-.09-.08v-1a.08.08,0,0,1,.09-.09h.4a.38.38,0,0,1,.44.36.35.35,0,0,1-.2.32l.24.43s0,.07-.05.07H18.1a.12.12,0,0,1-.13-.08l-.2-.36h-.14v.36c0,.06,0,.09-.08.09" transform="translate(0 0)"/><path class="cls-2" d="M19,23.75a.08.08,0,0,1-.09-.09v-.84h-.27c-.06,0-.09,0-.09-.08v-.1c0-.05,0-.08.09-.08h.85c.06,0,.09,0,.09.09v.1c0,.05,0,.08-.09.08h-.28v.85a.07.07,0,0,1-.08.08H19" transform="translate(0 0)"/><path class="cls-2" d="M20.49,23.82h-.11a.1.1,0,0,1-.12-.09c-.16-.42-.24-.64-.39-1.06,0-.05,0-.08.06-.08h.14a.1.1,0,0,1,.12.09c.1.3.15.45.26.75l.3-.72c0-.06.05-.07.11-.07H21a.05.05,0,0,1,.05.08c-.16.41-.25.61-.42,1,0,.06-.06.07-.13.07" transform="translate(0 0)"/><path class="cls-2" d="M22.31,21.64c.08,0,.13,0,.13-.07a.13.13,0,0,0-.07-.11l-.23-.17A.4.4,0,0,1,22,21a.35.35,0,0,1,.41-.32.54.54,0,0,1,.3.13.07.07,0,0,1,0,.12l-.05.06a.08.08,0,0,1-.12,0,.26.26,0,0,0-.14-.07c-.07,0-.11,0-.11.08s0,.07.07.1.18.13.23.17a.4.4,0,0,1,.18.32c0,.22-.19.34-.43.32a.59.59,0,0,1-.37-.18.08.08,0,0,1,0-.12.34.34,0,0,1,.06-.06s.07,0,.12,0a.37.37,0,0,0,.2.11" transform="translate(0 0)"/><path class="cls-2" d="M21.7,23.69c.08,0,.13,0,.13-.08s0-.07-.07-.1l-.22-.17a.38.38,0,0,1-.18-.32.36.36,0,0,1,.41-.32.48.48,0,0,1,.3.13.08.08,0,0,1,0,.12L22,23c0,.05-.07.05-.12,0a.22.22,0,0,0-.13-.06.1.1,0,0,0-.12.07.12.12,0,0,0,.07.11l.23.17a.38.38,0,0,1,.18.32.36.36,0,0,1-.43.32.61.61,0,0,1-.37-.17.09.09,0,0,1,0-.13l.06-.06a.08.08,0,0,1,.12,0,.4.4,0,0,0,.2.11" transform="translate(0 0)"/><path class="cls-2" d="M2.88,20.28a.08.08,0,0,1-.09.09H2.65a.08.08,0,0,1-.09-.09v-.9l-.14,0a.07.07,0,0,1-.09-.08v-.1a.1.1,0,0,1,.09-.12l.11,0a.86.86,0,0,1,.17,0h.09c.06,0,.09,0,.09.1v1.13Z" transform="translate(0 0)"/><path class="cls-2" d="M3.65,19.43c0,.07.06.14.18.14A.15.15,0,0,0,4,19.43c0-.08-.06-.14-.17-.14s-.18.06-.18.14m.18.4c-.13,0-.21.07-.21.15s.08.16.21.16S4,20.07,4,20s-.07-.15-.2-.15m0,.57c-.33,0-.52-.19-.52-.39a.34.34,0,0,1,.21-.32.33.33,0,0,1-.19-.29c0-.2.19-.37.5-.37s.49.17.49.37a.33.33,0,0,1-.19.29.34.34,0,0,1,.21.32c0,.2-.19.39-.51.39" transform="translate(0 0)"/><path class="cls-2" d="M32.88,19.49a.2.2,0,1,0,.2-.19.19.19,0,0,0-.2.19m0,.88,0-.1c0-.05,0-.09,0-.12a.83.83,0,0,0,.37-.3.34.34,0,0,1-.22.07.4.4,0,0,1-.43-.43A.47.47,0,0,1,33.1,19a.48.48,0,0,1,.5.51.93.93,0,0,1-.61.88.09.09,0,0,1-.13-.05" transform="translate(0 0)"/><path class="cls-2" d="M34.24,19.43c0,.07.06.14.18.14s.18-.07.18-.14-.06-.14-.18-.14-.18.06-.18.14m.18.4c-.13,0-.2.07-.2.15s.07.16.2.16.2-.07.2-.16-.07-.15-.2-.15m0,.57c-.33,0-.51-.19-.51-.39a.34.34,0,0,1,.21-.32.33.33,0,0,1-.19-.29c0-.2.18-.37.49-.37s.49.17.49.37a.32.32,0,0,1-.18.29.36.36,0,0,1,.21.32c0,.2-.19.39-.52.39" transform="translate(0 0)"/><path class="cls-2" d="M18.18,11.84c0,.14-.11.21-.28.21a.28.28,0,0,1-.3-.21,1.33,1.33,0,0,1,0-.21.88.88,0,0,1,.64,0c0,.08,0,.17,0,.24m.12-.47-.83,0-.06,0a.14.14,0,0,0,0,.06,2.77,2.77,0,0,0,.06.41.42.42,0,0,0,.45.33.4.4,0,0,0,.44-.35c0-.16.05-.39.05-.4a.11.11,0,0,0,0-.06.09.09,0,0,0-.07,0" transform="translate(0 0)"/><path class="cls-2" d="M19.49,11.83a.28.28,0,0,1-.31.22c-.16,0-.26-.07-.28-.21s0-.15,0-.24a.9.9,0,0,1,.65,0c0,.07,0,.15,0,.21m.13-.45h-.84s-.05,0-.06,0a.09.09,0,0,0,0,.06v.07c0,.17,0,.17,0,.34a.39.39,0,0,0,.43.34h0a.43.43,0,0,0,.46-.33,2,2,0,0,0,.06-.42.14.14,0,0,0,0-.06.07.07,0,0,0-.06,0" transform="translate(0 0)"/><path class="cls-2" d="M9.47,29.44l.07-.09c-.17-.14-.36-.3-.53-.46L8.93,29c.08.13.07.3-.21.58l-.5.53a.71.71,0,0,1-1.1,0,.68.68,0,0,1,.08-1.06l.63-.6c.25-.24.31-.23.45-.13l.08-.08c-.22-.22-.43-.47-.63-.71l-.09.08c.09.15.09.21-.17.45l-.66.61a1,1,0,0,0,0,1.55,1,1,0,0,0,1.55,0l.52-.55c.27-.28.42-.32.57-.26" transform="translate(0 0)"/><path class="cls-2" d="M12,31.12l0-.1-.62-.35-.06.09c.11.12.13.28-.07.61l-.44.74-.42-1.93c0-.16-.06-.2-.1-.23l-.49-.37-.07.09c.07.06.08.14.11.39a.25.25,0,0,1,0,.23l-.67,1c-.23.33-.36.37-.52.32l-.07.09.59.43L9.21,32c-.1-.13-.11-.26.13-.6l.59-.87.51,2.38.14.07.88-1.49c.2-.34.34-.41.5-.37" transform="translate(0 0)"/><path class="cls-2" d="M12.49,31.38c.15.1.17.16,0,.47L12,33.07c-.14.32-.18.35-.37.31l0,.11c.3.13.59.26.9.38l0-.1c-.15-.11-.15-.15,0-.47L13,32.07c.13-.33.18-.35.36-.31l0-.11-.87-.37,0,.1Z" transform="translate(0 0)"/><path class="cls-2" d="M15.57,32.42c.18.09.22.21.07.4l-.93,1.11-.28-1.45c0-.18,0-.3.19-.3l0-.11c-.3-.08-.62-.19-1-.31l0,.11c.12.09.14.19.21.5l.46,2.18.15,0,1.4-1.67c.21-.24.34-.34.48-.36l0-.11-.77-.14,0,.11Z" transform="translate(0 0)"/><path class="cls-2" d="M18.41,34.69a1.51,1.51,0,0,1-.81.09c-.31,0-.33,0-.35-.05s0-.06,0-.13c0-.23,0-.56.07-.87a1.81,1.81,0,0,1,.64.09.24.24,0,0,1,.16.21h.12l0-.7h-.12a.27.27,0,0,1-.17.19,1.87,1.87,0,0,1-.63,0c0-.25,0-.46.05-.53s0-.12.05-.14.07,0,.34,0a1.2,1.2,0,0,1,.91.3l.09-.06-.16-.44-.91,0c-.38,0-.74-.06-1-.1l0,.12c.17,0,.2.1.17.45l-.12,1.32c0,.34-.08.38-.26.4v.12l1.12.1c.34,0,.91,0,1.15,0l.15-.62-.1,0a1.25,1.25,0,0,1-.33.32" transform="translate(0 0)"/><path class="cls-2" d="M20.6,33.69a3.65,3.65,0,0,1-.42.05l-.12-1,.33-.05c.43-.06.64.11.69.42s-.11.49-.48.55m1.32.82c-.25,0-.48-.31-.87-.73a.7.7,0,0,0,.57-.75c-.06-.42-.41-.67-1.14-.55-.42.07-.9.1-1.17.12v.11c.18,0,.22.06.26.41l.13,1.33c0,.34,0,.38-.18.44l0,.11c.22,0,.64,0,1-.09V34.8c-.18,0-.22,0-.26-.4L20.2,34l.25,0c.59.64.85.92,1.33.85a.5.5,0,0,0,.4-.31l-.09-.06a.26.26,0,0,1-.17.09" transform="translate(0 0)"/><path class="cls-2" d="M23.44,32.75c-.51.06-.8.11-.9-.18s0-.37.37-.48a1.12,1.12,0,0,1,1,.2l.09-.07-.35-.52h-.07a.23.23,0,0,1-.09.07,3.42,3.42,0,0,0-.65.11.83.83,0,0,0-.65,1c.18.53.7.48,1.17.42s.78-.11.88.18-.06.4-.39.51a1.35,1.35,0,0,1-1.29-.22l-.09.07.35.6h.06a.38.38,0,0,1,.14-.09,5.16,5.16,0,0,0,.89-.14.86.86,0,0,0,.67-1c-.17-.51-.68-.47-1.15-.42" transform="translate(0 0)"/><path class="cls-2" d="M25.83,32.72l-.6-1.19c-.15-.31-.14-.36,0-.47l-.05-.1c-.28.15-.56.29-.85.42l.05.1c.18-.05.22,0,.37.29l.58,1.2c.15.31.15.36,0,.48l.05.1.88-.43-.05-.1c-.18,0-.22,0-.38-.3" transform="translate(0 0)"/><path class="cls-2" d="M27.81,31.52,27,30.33c-.1-.15-.09-.19,0-.27a1,1,0,0,1,.84-.07l.06-.1-.53-.38c-.24.19-.49.39-.84.63s-.62.41-.89.57l.17.62.11,0a1,1,0,0,1,.37-.75c.11-.08.15-.07.25.07l.82,1.21c.19.28.19.33.07.47l.06.09c.27-.18.54-.36.81-.56l-.07-.09c-.17.07-.21.05-.41-.23" transform="translate(0 0)"/><path class="cls-2" d="M30.08,29.55l-.4-.39-.12-1a1.5,1.5,0,0,1,0-.66l-.09-.07c-.16.19-.35.42-.53.62l.08.07c.16-.11.29,0,.31.21l.1.78L28.61,29c-.21,0-.29-.12-.19-.24l-.08-.08c-.23.22-.51.48-.78.7l.07.09a1,1,0,0,1,.45,0l1.26.16.35.35c.24.25.25.3.15.45l.09.08c.23-.22.46-.45.68-.69l-.08-.08c-.15.1-.2.09-.45-.15" transform="translate(0 0)"/><path class="cls-2" d="M4,11.55a.27.27,0,0,1,.23,0l1,.54c.35.18.42.32.39.48l.11.05c.1-.22.2-.43.32-.64L6,11.94c-.11.11-.27.14-.62,0l-.94-.5,2.35-.57.08-.13L5.4,9.78c-.33-.21-.39-.34-.34-.5L5,9.21c-.14.2-.28.41-.4.61l.09.06c.12-.1.25-.12.6.1l.79.48-2,.46c-.15,0-.18.08-.21.12s-.23.46-.31.63l.11.05c0-.07.11-.11.35-.17" transform="translate(0 0)"/><path class="cls-2" d="M6.38,7.65c.3-.33.8-.31,1.32.16s.56.92.26,1.26-.8.3-1.32-.16S6.08,8,6.38,7.65M6.3,9.33a1.25,1.25,0,0,0,1.82-.12,1.27,1.27,0,1,0-1.89-1.7A1.25,1.25,0,0,0,6.3,9.33" transform="translate(0 0)"/><path class="cls-2" d="M8.82,5.53c.35-.26.63-.22.82,0s.14.48-.16.72a3.53,3.53,0,0,1-.34.24l-.59-.78a3.2,3.2,0,0,1,.27-.22m-.52.82.83,1c.21.27.21.33.1.47L9.3,8c.21-.18.47-.39.73-.59L10,7.26c-.16.09-.22.08-.43-.2l-.26-.34.19-.15c.84.27,1.2.42,1.61.14a.56.56,0,0,0,.24-.47l-.12,0a.23.23,0,0,1-.11.16c-.22.16-.62-.06-1.16-.24a.68.68,0,0,0,.14-.91c-.24-.32-.65-.43-1.35.09-.28.21-.72.57-.93.74l.07.09c.16-.08.22-.07.44.2" transform="translate(0 0)"/><path class="cls-2" d="M10.53,4.9A1,1,0,0,1,11,4.18c.13-.08.18-.07.26.09.23.44.62,1.23.69,1.4s.06.3-.07.39l.05.1c.28-.14.62-.31.91-.44l0-.1c-.16,0-.24,0-.35-.19s-.48-.95-.69-1.4c-.08-.17-.06-.21.08-.26a1,1,0,0,1,.84.11l.07-.08-.42-.49c-.33.14-.67.29-1,.46s-.66.34-1,.52l.13.62Z" transform="translate(0 0)"/><path class="cls-2" d="M13.28,3.52l.4,1.26c.1.34.08.39-.07.48l0,.11.9-.3,0-.11c-.17,0-.23,0-.32-.34L14,4a8.53,8.53,0,0,1,1.13-.3l.15.63c.08.34.05.38-.11.46l0,.11c.3-.08.63-.14.93-.19l0-.12c-.17,0-.22,0-.3-.37l-.29-1.3c-.08-.34,0-.39.11-.46l0-.11c-.3,0-.66.13-1,.2l0,.11c.18,0,.22,0,.3.37l.11.43q-.57.17-1.14.3l-.12-.42c-.1-.33-.08-.38.08-.47l0-.11c-.3.09-.65.2-.93.31l0,.1c.18,0,.23,0,.33.35" transform="translate(0 0)"/><path class="cls-2" d="M16.73,2.73l.12,1.33c0,.34,0,.39-.18.44l0,.12c.29,0,.64-.07,1-.09s.64,0,1,0l.22-.61-.11,0a1.17,1.17,0,0,1-.36.31,1.29,1.29,0,0,1-.67.14c-.27,0-.31,0-.34,0a.26.26,0,0,1-.05-.15c0-.1,0-.46-.08-.85a2.12,2.12,0,0,1,.64,0,.25.25,0,0,1,.17.19h.12l0-.7h-.11A.28.28,0,0,1,18,3a2.21,2.21,0,0,1-.66.09c0-.21,0-.4,0-.56a.21.21,0,0,1,0-.13s0,0,.29,0a1.4,1.4,0,0,1,1.1.25l.08-.06-.21-.43c-.3,0-.63,0-1,0l-1.11.1v.11c.18,0,.22.07.25.41" transform="translate(0 0)"/><path class="cls-2" d="M20.53,2.82l.27.84-.39,0L20,3.56l.49-.74Zm-.7,1.63c-.18-.07-.25-.18-.11-.39l.19-.29c.15,0,.31,0,.46.06l.5.07.12.36c.06.17,0,.3-.15.32l0,.11c.3,0,.64.12,1,.2l0-.11c-.12-.08-.16-.18-.26-.48l-.64-1.89c0-.13-.07-.16-.14-.17l-.62-.07v.11a.32.32,0,0,1,.19.1c.09.09.09.13,0,.19L19.47,4c-.17.26-.3.37-.43.41v.11l.78,0V4.45Z" transform="translate(0 0)"/><path class="cls-2" d="M22.37,5c.23.07.31.24.75.39a.87.87,0,0,0,1.16-.43c.17-.52-.27-.8-.69-1s-.7-.38-.6-.67.25-.26.58-.15a1.11,1.11,0,0,1,.71.76h.12l0-.62-.05,0h-.11a4.62,4.62,0,0,0-.6-.3.84.84,0,0,0-1.13.41c-.17.52.26.79.68,1s.71.38.61.67-.28.29-.61.18a1.3,1.3,0,0,1-.87-.92h-.11l-.07.68.05,0a.3.3,0,0,1,.16,0" transform="translate(0 0)"/><path class="cls-2" d="M25.59,6.28c-.13-.11-.16-.19-.06-.4s.49-.94.74-1.38c.08-.16.13-.17.26-.08a1,1,0,0,1,.4.74H27l.14-.62c-.31-.19-.63-.38-1-.55s-.66-.34-1-.49L24.8,4l.07.08A1.07,1.07,0,0,1,25.71,4c.14.06.15.1.07.26-.22.45-.63,1.23-.73,1.39s-.2.22-.36.17l-.05.1.89.47.06-.09Z" transform="translate(0 0)"/><path class="cls-2" d="M26.82,6.55c-.2.28-.26.3-.42.22l-.07.1c.25.16.53.37.84.61s.5.4.76.64l.57-.32-.05-.1a1.61,1.61,0,0,1-.49,0,1.43,1.43,0,0,1-.59-.34c-.22-.17-.24-.2-.24-.24s0-.09.06-.15.27-.38.5-.69a1.79,1.79,0,0,1,.48.43.23.23,0,0,1,0,.25l.09.08.46-.54-.1-.08a.24.24,0,0,1-.25.06,2.22,2.22,0,0,1-.55-.37l.33-.44c.05-.06.08-.08.11-.08s.06,0,.25.15a1.39,1.39,0,0,1,.66.92h.11l.12-.47c-.22-.2-.48-.4-.74-.61s-.66-.49-.91-.66L27.69,5c.12.13.12.19-.08.47l-.79,1.07Z" transform="translate(0 0)"/><path class="cls-2" d="M30.52,7.63l.24.25c.29.33.27.61,0,.82s-.48.18-.73-.1a3.76,3.76,0,0,1-.28-.32l.74-.65Zm-2.05.84-.09.08c.2.2.43.43.65.68l.09-.07C29,9,29,9,29.29,8.72l.32-.28.17.17c-.23.84-.35,1.21,0,1.59a.52.52,0,0,0,.48.19v-.12a.22.22,0,0,1-.16-.09c-.17-.2,0-.6.17-1.15a.68.68,0,0,0,.92.08c.3-.26.38-.69-.19-1.34-.23-.26-.62-.68-.81-.87L30.07,7c.09.15.09.21-.17.44l-1,.91c-.26.24-.32.24-.46.14" transform="translate(0 0)"/><path class="cls-2" d="M30.26,10.63l-.09.06c.13.2.26.4.38.61l.1-.06c0-.15,0-.3.35-.5l.91-.55-.72,2.3.07.14,1.55-.79c.35-.18.49-.15.6,0l.11-.05c-.1-.22-.21-.44-.32-.66l-.1.05c0,.16,0,.28-.4.47l-.81.42.62-1.92c0-.15,0-.19,0-.24s-.27-.44-.38-.59L32,9.35c0,.08,0,.16,0,.39a.28.28,0,0,1-.14.19l-1,.61c-.34.2-.49.19-.61.09" transform="translate(0 0)"/></g></g></svg>