<svg xmlns="http://www.w3.org/2000/svg" xmlns:xlink="http://www.w3.org/1999/xlink" viewBox="0 0 154.67 32.41"><defs><style>.cls-1{fill:none;}.cls-2{clip-path:url(#clip-path);}.cls-3{fill:#8c191c;}</style><clipPath id="clip-path" transform="translate(0 0)"><rect class="cls-1" width="154.67" height="32.41"/></clipPath></defs><title>stanford</title><g id="Layer_2" data-name="Layer 2"><g id="Layer_1-2" data-name="Layer 1"><g class="cls-2"><path class="cls-3" d="M84.57,3.37A7.19,7.19,0,0,1,90.79,0C93-.12,95.55.26,97.11,2c-.79,1-1.55,2.12-2.35,3.17-.88-1-1.61-2.45-3.05-2.74a2.81,2.81,0,0,0-3.55,1.81c-.59,2.4-.23,4.9-.32,7.35h4.58v2.73H87.83V26.68a16.93,16.93,0,0,0,.39,3.47,8.35,8.35,0,0,0,3.34.75c0,.29,0,.86,0,1.15A75.31,75.31,0,0,0,80.3,32c0-.24,0-.72,0-1,1.18-.21,2.65-.76,2.7-2.18.46-4.84.15-9.71.24-14.56H80.51c0-.42,0-.83,0-1.24.93-.43,1.84-.91,2.73-1.39,0-2.81-.17-5.84,1.32-8.34Z" transform="translate(0 0)"/><path class="cls-3" d="M143.25,13.68a7.18,7.18,0,0,1,4.1,1.25c0,4.56,0,9.11,0,13.67-2.54,1.16-6,1.08-8-1.08-1.71-1.82-2-4.5-1.84-6.88.17-2.17.62-4.65,2.52-6a5.68,5.68,0,0,1,3.18-1ZM152.13,0a40.79,40.79,0,0,1-7.37,1.14c0,.23-.07.69-.09.91.92.28,2.43.21,2.5,1.5a69.7,69.7,0,0,1,.18,7.92c-3.56-.61-7.55-.57-10.59,1.65-3.32,2.33-4.46,6.67-4.13,10.54A9.17,9.17,0,0,0,137,31.23a10.19,10.19,0,0,0,10.42-.64c0,.61,0,1.21,0,1.82a37.86,37.86,0,0,1,7.17-1.07V30.29c-3.42-.58-2.48-2.17-2.72-4.86,0-8.47-.12-16.94.18-25.41Z" transform="translate(0 0)"/><path class="cls-3" d="M8,2.81a42.79,42.79,0,0,1,8.61.41,38.82,38.82,0,0,0,0,6.1h-1.1c-.22-1.27-.44-2.8-1.79-3.37a9.82,9.82,0,0,0-6.42-.32c-2.71.8-3.16,4.79-1.14,6.54,2.53,2.21,5.62,3.65,8.2,5.8,4.05,3.22,3.53,10.73-1.28,13-4,1.87-8.79,1.39-13,.22,0-2-.05-4-.14-6l1.21,0c.22,1.26.42,2.81,1.7,3.46a8.53,8.53,0,0,0,7.61.28c3-1.63,2.42-6.37-.35-8C7.76,19.06,5,17.69,2.77,15.6A7.72,7.72,0,0,1,1.59,6.44,8,8,0,0,1,8,2.81Z" transform="translate(0 0)"/><path class="cls-3" d="M25.11,7.1l.91.05v4.57h7v2.62H26c0,3.67-.06,7.34,0,11,.09,1.39.13,3.14,1.44,4,1.65,1,3.62.37,5.26-.27.51,1.24-.78,1.93-1.67,2.45a8.7,8.7,0,0,1-6.84.28c-1.86-.7-2.75-2.73-2.85-4.59-.22-4.29,0-8.59,0-12.88H18.71c0-.29,0-.57,0-.86,3-1.11,5-3.67,6.42-6.38Z" transform="translate(0 0)"/><path class="cls-3" d="M45.67,21.6c0,2.28,0,4.56,0,6.85-1.47.65-3.21,1.25-4.75.51-1.89-1-1.81-4-.25-5.28a19.45,19.45,0,0,1,5-2.08ZM43.82,11c-3.15,0-6.33,1.53-7.34,4.69l1.11.62a4.77,4.77,0,0,1,6.27-2c1.74.8,1.89,2.93,1.86,4.61a57.59,57.59,0,0,0-8.19,2.87c-3.11,1.64-3.51,6.3-1.28,8.82,2.62,2.41,7,2,9.6-.26a3.66,3.66,0,0,0,4.29,1.7c1.42-.27,2.36-1.45,3.29-2.46l-.65-.74c-.59.15-1.25.61-1.82.16-.74-.51-.65-1.53-.7-2.32.05-3.39.24-6.79.06-10.19a5.45,5.45,0,0,0-2.43-4.47,8.51,8.51,0,0,0-4.07-1Z" transform="translate(0 0)"/><path class="cls-3" d="M104.05,13.56a4.26,4.26,0,0,1,3.26,1.51,10.62,10.62,0,0,1,1.92,6.34c0,2.41-.28,5-1.8,7a4.45,4.45,0,0,1-6.42.41,8.2,8.2,0,0,1-2.1-4.74,15.29,15.29,0,0,1,.48-6.79,5.19,5.19,0,0,1,3-3.44,4.42,4.42,0,0,1,1.65-.26Zm0-2.45a10.25,10.25,0,0,0-6.48,2.1,11.2,11.2,0,0,0-3.72,9.11A10.15,10.15,0,0,0,97,30.18c2.68,2.34,6.57,2.57,9.91,1.87a9.45,9.45,0,0,0,6.9-7.3c.81-3.58.47-7.75-2-10.64a9.85,9.85,0,0,0-7.77-3Z" transform="translate(0 0)"/></g><path class="cls-3" d="M55.07,12.5a18.09,18.09,0,0,0,7.17-1.3c.08.58.14,1.16.19,1.75a10.31,10.31,0,0,1,8.9-1.31,5.85,5.85,0,0,1,3.8,5c.44,4.19-.2,8.43.36,12.61.06,1.32,1.48,1.62,2.51,1.83v1c-3.46-.28-10.41,0-10.41,0v-1s2.5-.7,2.66-1.42a50,50,0,0,0,.41-9.48c-.12-1.89-.07-4.25-1.87-5.4s-4.31-.6-6.29.12c0,4.09,0,8.18,0,12.27.06,1.1,0,2.34.69,3.25a6.54,6.54,0,0,0,2,.68c0,.25,0,.74,0,1a60.73,60.73,0,0,0-10.27,0c0-.24,0-.73,0-1,1-.24,2.41-.56,2.61-1.82.47-3,.11-6.1.22-9.14a33.4,33.4,0,0,0-.16-5.2c-.24-1.17-1.67-1.1-2.57-1.34V12.5Z" transform="translate(0 0)"/><path class="cls-3" d="M116.11,12.41a23.86,23.86,0,0,0,7.22-1.15l.07,1.8c2.35-1.89,5.89-2.37,8.39-.5l-2.61,4a4.38,4.38,0,0,0-5.64-1.38s0,8.27,0,12.4c.1.92,0,2.12.82,2.72a7.54,7.54,0,0,0,2.78.61v1.15a77.08,77.08,0,0,0-11.27,0V30.9c1.21-.2,2.47-.62,2.65-1.34.52-1.78.27-3.66.32-5.49,0-2.92.11-5.83-.07-8.74,0-1.42-1.61-1.55-2.65-1.75,0-.4,0-.81,0-1.17Z" transform="translate(0 0)"/></g></g></svg>