<svg xmlns="http://www.w3.org/2000/svg" viewBox="0 0 211.71 68.9"><defs><style>.cls-1{fill:#991c1f;}.cls-2{fill:#0e1111;}.cls-3{fill:#991d20;}.cls-4{fill:#fdfdfd;}.cls-5{fill:#fcfcfc;}.cls-6{fill:#fbfbfb;}.cls-7{fill:#f6f6f6;}.cls-8{fill:#f7f7f7;}.cls-9{fill:#fafafa;}.cls-10{fill:#f9f9f9;}.cls-11{fill:#f8f8f8;}.cls-12{fill:#f5f5f5;}.cls-13{fill:#f3f3f3;}.cls-14{fill:#121515;}.cls-15{fill:#111414;}.cls-16{fill:#eee;}.cls-17{fill:#e1e2e2;}.cls-18{fill:#eceded;}.cls-19{fill:#696b6b;}.cls-20{fill:#f1f1f1;}.cls-21{fill:#bcbdbd;}.cls-22{fill:#e6e7e7;}.cls-23{fill:#262828;}.cls-24{fill:#0b0e0e;}</style></defs><title>usc</title><g id="Layer_2" data-name="Layer 2"><g id="Layer_1-2" data-name="Layer 1"><path class="cls-1" d="M211.71,50.6a37.74,37.74,0,0,1-7.28,7.76A26.86,26.86,0,0,1,186.38,64a31.5,31.5,0,0,1-11.52-2.29,25.78,25.78,0,0,1-15.19-17.62c-2.71-9.92-1.46-19.24,4.54-27.71A25.8,25.8,0,0,1,182.54,5.52a34.73,34.73,0,0,1,20.25,3.21l1.29.65c.43.22.68.06.81-.37.2-.66.4-1.32.61-2,.31-.94,1.1-.51,1.7-.55s.69.39.74.87c.63,5.55,1.25,11.1,1.91,16.64.09.77-.06,1.24-.88,1.35a2.47,2.47,0,0,0-.36.11c-1.06.34-1.16.3-1.54-.78a28.33,28.33,0,0,0-5.94-10c-5.5-6-14.42-7.87-21.45-4.58a16.67,16.67,0,0,0-8.23,9,30.82,30.82,0,0,0-2.25,15.18A32.43,32.43,0,0,0,173.31,48a20.67,20.67,0,0,0,10.61,9.47,19.34,19.34,0,0,0,10,.67,21.68,21.68,0,0,0,15.27-9.08c.38-.51.73-.66,1.24-.14A13.06,13.06,0,0,0,211.71,50Z"/><path class="cls-2" d="M26.66,68.9c-1.64-1.16-3.34-2.25-4.92-3.49A53,53,0,0,1,7.45,47.48,68.11,68.11,0,0,1,.57,25.73,56.59,56.59,0,0,1,1.26,5.8l.08-.27C10.67,7.73,19.2,6.26,26.76,0a26.41,26.41,0,0,0,12,5.89,31.23,31.23,0,0,0,13.49-.41c.24,1.33.54,2.62.7,3.93,2.17,17.73-2.45,33.64-13,47.89A44,44,0,0,1,27.57,68.49a2.88,2.88,0,0,0-.45.41ZM1.73,27a68.63,68.63,0,0,0,9.93,25.75A48.07,48.07,0,0,0,26.23,67.4a1,1,0,0,0,1.23,0,46.47,46.47,0,0,0,7.26-5.77,56,56,0,0,0,12-17.6,72.5,72.5,0,0,0,5-16.21,1,1,0,0,0-.77-1.35,10.93,10.93,0,0,0-7-.12c-1.73.45-3.44,1-5.2,1.3a16,16,0,0,1-8.07-1,11,11,0,0,0-7.85,0,15.73,15.73,0,0,1-8.23,1c-1.73-.31-3.41-.86-5.12-1.29C6.84,25.7,4.26,25.55,1.73,27ZM17,22.79a16.89,16.89,0,0,0,5.61-1.07,11.35,11.35,0,0,1,8.46,0,16.58,16.58,0,0,0,5.46,1c-.16-4.14-4.61-8.26-9.09-8.46A9.88,9.88,0,0,0,17,22.79ZM35.05,17c.83,1.26.83,1.25,2.13.89l11.5-3.21,3.76-1.09L52,9.21ZM1.36,23.84c.06,0,.12,0,.16,0a12.35,12.35,0,0,1,9.42-.07,16.93,16.93,0,0,0,11.86-.12,11.09,11.09,0,0,1,7.94,0,16.55,16.55,0,0,0,11.42.19c3.32-1.14,6.67-1.56,10,0,.33-.66.18-1.06-.5-1.24s-1.41-.48-2.13-.62a12.42,12.42,0,0,0-6.64.68,17.65,17.65,0,0,1-12.32-.08,10.54,10.54,0,0,0-7.56,0,16.24,16.24,0,0,1-8.21,1,50.59,50.59,0,0,1-5.13-1.28,11.66,11.66,0,0,0-7.75.33C1.33,22.94,1.12,23.25,1.36,23.84Zm50.6,2c.28-.68,0-1-.6-1.22-.45-.12-.87-.33-1.31-.45a12.07,12.07,0,0,0-7.3.56,17.46,17.46,0,0,1-12,0,11.12,11.12,0,0,0-7.93,0,15.65,15.65,0,0,1-8.07,1c-1.75-.29-3.47-.83-5.2-1.29a10.89,10.89,0,0,0-7.36.3c-.6.26-.88.57-.49,1.24,3-1.5,6.08-1.09,9.17-.18a27.22,27.22,0,0,0,4.24,1,17,17,0,0,0,7.54-1A21,21,0,0,1,26,24.93a11.1,11.1,0,0,1,4.95.82,16.15,16.15,0,0,0,8.23.84,27.11,27.11,0,0,0,3-.78C45.5,24.78,48.74,24.33,52,25.81ZM18.49,17.09,1.59,9.26,1.11,13.6l15.2,4.25C17.63,18.22,17.63,18.21,18.49,17.09Zm15.18-1.34L44.9,7.53c-1.81-.16-3.51-.33-5.21-.44a1.28,1.28,0,0,0-.89.35c-1.22,1.31-2.4,2.65-3.6,4l-3,3.33ZM8.63,7.6,19.8,15.78l1.37-.95c0-.05,0-.09,0-.1Q17.86,11,14.55,7.27a.65.65,0,0,0-.46-.18ZM23.5,13.77l2.21-.47L24.33,3.15,19.7,5.52Zm6.49,0,3.78-8.23-4.6-2.36L27.81,13.31ZM16.6,20.12,1,18.94l.15,2.95a2.21,2.21,0,0,0,.37-.09A11,11,0,0,1,8,21.06c1.81.35,3.57.89,5.36,1.31.85.2,1.73.32,2.56.47Zm20.35,0,.74,2.8c1.69-.42,3.38-.76,5-1.26a13.43,13.43,0,0,1,9.7.18V19ZM51.41,6.72c-.74.12-1.46.28-2.19.35A5.41,5.41,0,0,0,46.61,8c-2.73,1.81-5.49,3.57-8.24,5.35L34.16,16.1c.24.49.48.51.88.29q8-4.32,16.09-8.6C51.66,7.51,51.66,7.19,51.41,6.72ZM2.1,6.77c-.16.42-.33.74.25,1.05,5.37,2.84,10.72,5.72,16.07,8.59.4.22.7.26.86-.26a.58.58,0,0,0-.1-.12L6,7.51a1.88,1.88,0,0,0-.69-.27C4.26,7.07,3.22,6.93,2.1,6.77Zm-1,10.62,15.86,2.12.35-.73L1.07,15.23Zm51.42-2.12L36.33,18.8c.08.6.32.75.89.67,3.65-.52,7.3-1,11-1.48l4.32-.58Zm-25.92-14c-.25.39-.78.83-.76,1.26.13,3.52.36,7,.56,10.56a1.38,1.38,0,0,0,.1.24l.69-.05c.19-3.41.35-6.78.6-10.14A1.62,1.62,0,0,0,26.57,1.28ZM37.35,6.64,35.24,6l-4.56,8,.88.35Zm-21.21,0,5.8,7.75L22.8,14,18.23,6Z"/><path class="cls-3" d="M81.6,28.9c0,4.12,0,8.25,0,12.37a37.91,37.91,0,0,0,1,9.37,11.37,11.37,0,0,0,8.6,8.52,16.32,16.32,0,0,0,13.58-2.33,12.36,12.36,0,0,0,5-7.92,29.68,29.68,0,0,0,.78-6.3c.1-5.82.13-11.64,0-17.45-.1-4.17-.5-8.33-.86-12.49-.19-2.2-1.54-3.29-3.75-3.29-.75,0-1.49,0-2.23,0-.52,0-.76-.23-.76-.74s0-1,0-1.54c0-.73.25-1,1-1,3.07.11,6.14.22,9.21.22,2.69,0,5.38-.13,8.06-.2,1,0,1.1,0,1.1,1.07,0,2.16,0,2.16-2.14,2.16h-.93c-2.36,0-3.54,1.08-3.67,3.47-.08,1.58-.09,3.17-.1,4.76,0,5.23,0,10.46-.13,15.68-.1,4.17-.2,8.36-.61,12.5-.62,6.29-3.28,11.53-8.75,15a20.83,20.83,0,0,1-9.7,3.11,33.45,33.45,0,0,1-12-1.09C77.85,61,74.08,56.54,72.51,50.1a41.9,41.9,0,0,1-1-9.61c-.07-9.15-.09-18.3-.14-27.45,0-.2,0-.41,0-.61-.18-1.95-.69-3.2-3.21-3.06-1,.05-2,0-3,0-.57,0-.81-.22-.79-.76,0-.36,0-.72,0-1.08,0-1.44,0-1.42,1.47-1.4,4.86.09,9.73.2,14.59.22,2.72,0,5.43-.15,8.14-.21,1,0,1,0,1,1,0,.48,0,1,0,1.46s-.21.74-.74.73c-1.13,0-2.25,0-3.38,0a3.57,3.57,0,0,0-3.82,3.68c0,5.28-.15,10.56-.24,15.83Z"/><path class="cls-1" d="M139.44,64.09c-3.77-.1-7.46-.58-10.81-2.46-1.07-.6-2.06-1.33-3.11-2s-1.27-.49-1.86.45c-.21.32-.39.66-.62,1a1.26,1.26,0,0,1-1.55.53c-.62-.23-.65-.81-.61-1.36.19-2.06.39-4.13.59-6.19l.72-7.65a1.79,1.79,0,0,1,0-.23c.13-1.34.16-1.37,1.49-1.22a3.07,3.07,0,0,0,.53.07c.66-.06.82.31.85.88a18.35,18.35,0,0,0,3.1,9c3.71,5.77,11.92,7.35,17.27,3.31a8.68,8.68,0,0,0,3.48-7.49c0-4.31-1.73-7.62-5.6-9.68-.79-.42-1.58-.86-2.4-1.21-2.9-1.26-5.88-2.38-8.72-3.78a43.18,43.18,0,0,1-5.45-3.42,11.27,11.27,0,0,1-4.45-6.44c-.94-3.41-1.33-6.89-.17-10.28,1.88-5.5,5.94-8.85,11.46-10.21A23.61,23.61,0,0,1,148.15,7a1.8,1.8,0,0,0,2.37-.52,4.12,4.12,0,0,1,1.09-1c.72-.42,1.24-.15,1.31.64q.65,6.62,1.25,13.23c0,.32,0,.86-.24.94a5.54,5.54,0,0,1-1.89.48c-.16,0-.43-.52-.55-.84a23.1,23.1,0,0,0-4.85-8.1c-3.59-3.82-10.23-4.47-14.07-1.31-2.68,2.2-3.33,5.11-2.95,8.43.41,3.55,2.58,5.63,5.56,7.17a80.71,80.71,0,0,0,8.7,3.39,34.65,34.65,0,0,1,5.87,2.78,14.2,14.2,0,0,1,7,10.83,20.29,20.29,0,0,1-1.93,12.24c-2.81,5.3-7.29,8.07-13.22,8.59C140.88,64.05,140.16,64.05,139.44,64.09Z"/><path class="cls-4" d="M1.73,27c2.53-1.47,5.11-1.32,7.73-.65,1.71.43,3.39,1,5.12,1.29a15.73,15.73,0,0,0,8.23-1,11,11,0,0,1,7.85,0,16,16,0,0,0,8.07,1c1.76-.29,3.47-.85,5.2-1.3a10.93,10.93,0,0,1,7,.12,1,1,0,0,1,.77,1.35,72.5,72.5,0,0,1-5,16.21,56,56,0,0,1-12,17.6,46.47,46.47,0,0,1-7.26,5.77,1,1,0,0,1-1.23,0A48.07,48.07,0,0,1,11.66,52.77,68.63,68.63,0,0,1,1.73,27ZM28.5,53.35c0-.29,0-.57,0-.85.15-3.25.41-6.5.4-9.74a5,5,0,0,1,1.24-3.17c1.05-1.39,1.12-1.79,0-3.08A2.55,2.55,0,0,0,31,33.78a6,6,0,0,1,0-3.89l-.14-.18-2,1c-1.4-1.86-2.31-2.68-3.38-3,.28.93.72,1.84.11,2.83a4.1,4.1,0,0,0-2.75-1.06,2.78,2.78,0,0,1-.1,3.05c-.77,1.48-1,2.92.42,4.16-.74,1.05-.75,1.9-.07,2.61a4.11,4.11,0,0,1,1.54,3.4,13.3,13.3,0,0,0,.08,2c.13,2.88.27,5.76.4,8.65A1.6,1.6,0,0,0,23.82,55c0,.88.62,1.34,1.61,1.59,0,1.59,0,3.17,0,4.76a1.31,1.31,0,0,0,1.33,1.46c.79,0,1.28-.54,1.32-1.46.06-1.31.14-2.61.18-3.91A1.1,1.1,0,0,1,29,56.2a2,2,0,0,0,.74-1.37C29.82,54,29.21,53.61,28.5,53.35ZM18.18,35.84a9.82,9.82,0,0,0,.39-2c0-1-.18-2.08-.3-3.22l-1.34.57c-1.08-1.34-1.61-1.78-2.38-2l.15,1.81-2.11-.76-.16.16c.64.82.32,1.56-.06,2.32a2.34,2.34,0,0,0,.3,2.95,1.49,1.49,0,0,0,.21,2.09A3.29,3.29,0,0,1,13.8,40c0,2.4.24,4.8.34,7.2a1,1,0,0,1-.34.64A1.25,1.25,0,0,0,13.91,50a1.06,1.06,0,0,1,.4.69c.09.94.13,1.89.16,2.83,0,.68.31,1.09,1,1.08s.93-.43,1-1.05c0-.92,0-1.85.12-2.76A1.1,1.1,0,0,1,17,50a1.25,1.25,0,0,0,.09-2.2.83.83,0,0,1-.33-.58c.09-2.55.2-5.11.36-7.66a2,2,0,0,1,.49-1.1C18.68,37.15,18.78,36.7,18.18,35.84ZM35,35.77a1.48,1.48,0,0,0,.15,2,3.44,3.44,0,0,1,.88,1.5c.21,2.58.3,5.16.4,7.74a1.09,1.09,0,0,1-.37.78A1.26,1.26,0,0,0,36.16,50a1.07,1.07,0,0,1,.42.68c.09,1,.09,2,.17,3a.91.91,0,0,0,1,1,.88.88,0,0,0,1-1c.05-1,.13-1.94.14-2.91a.79.79,0,0,1,.48-.82,1.16,1.16,0,0,0,.1-2A.78.78,0,0,1,39,47c.12-2.53.23-5.06.38-7.59a1.54,1.54,0,0,1,.4-.9c1.17-1.27,1.29-1.79.66-2.76a7.49,7.49,0,0,0,.43-1.8c0-1.09-.19-2.17-.31-3.34l-1.23.55L37,29.07l-.14.15L37,31.1l-2.11-.76-.12.18a2.06,2.06,0,0,1-.1,2.26A2.33,2.33,0,0,0,35,35.77Z"/><path class="cls-5" d="M17,22.79A9.88,9.88,0,0,1,27.43,14.3c4.48.2,8.93,4.32,9.09,8.46a16.58,16.58,0,0,1-5.46-1,11.35,11.35,0,0,0-8.46,0A16.89,16.89,0,0,1,17,22.79Z"/><path class="cls-6" d="M35.05,17,52,9.21l.49,4.42-3.76,1.09-11.5,3.21C35.88,18.29,35.88,18.3,35.05,17Z"/><path class="cls-7" d="M1.36,23.84c-.24-.59,0-.9.55-1.14a11.66,11.66,0,0,1,7.75-.33,50.59,50.59,0,0,0,5.13,1.28,16.24,16.24,0,0,0,8.21-1,10.54,10.54,0,0,1,7.56,0,17.65,17.65,0,0,0,12.32.08A12.42,12.42,0,0,1,49.52,22c.72.14,1.42.42,2.13.62s.83.58.5,1.24c-3.32-1.57-6.67-1.15-10,0a16.55,16.55,0,0,1-11.42-.19,11.09,11.09,0,0,0-7.94,0,16.93,16.93,0,0,1-11.86.12,12.35,12.35,0,0,0-9.42.07S1.42,23.84,1.36,23.84Z"/><path class="cls-8" d="M52,25.81c-3.22-1.48-6.46-1-9.7,0a27.11,27.11,0,0,1-3,.78A16.15,16.15,0,0,1,31,25.75,11.1,11.1,0,0,0,26,24.93a21,21,0,0,0-3.42.81,17,17,0,0,1-7.54,1,27.22,27.22,0,0,1-4.24-1c-3.09-.91-6.15-1.32-9.17.18-.39-.67-.11-1,.49-1.24a10.89,10.89,0,0,1,7.36-.3c1.73.46,3.45,1,5.2,1.29a15.65,15.65,0,0,0,8.07-1,11.12,11.12,0,0,1,7.93,0,17.46,17.46,0,0,0,12,0,12.07,12.07,0,0,1,7.3-.56c.44.12.86.33,1.31.45C52,24.77,52.24,25.13,52,25.81Z"/><path class="cls-6" d="M18.49,17.09c-.86,1.12-.86,1.13-2.18.76L1.11,13.6l.48-4.34Z"/><path class="cls-9" d="M33.67,15.75l-1.43-1,3-3.33c1.2-1.34,2.38-2.68,3.6-4a1.28,1.28,0,0,1,.89-.35c1.7.11,3.4.28,5.21.44Z"/><path class="cls-6" d="M8.63,7.6l5.46-.51a.65.65,0,0,1,.46.18q3.32,3.72,6.61,7.46s0,0,0,.1l-1.37.95Z"/><path class="cls-6" d="M23.5,13.77,19.7,5.52l4.63-2.37L25.71,13.3Z"/><path class="cls-6" d="M30,13.75l-2.18-.44L29.17,3.16l4.6,2.36Z"/><path class="cls-9" d="M16.6,20.12l-.7,2.72c-.83-.15-1.71-.27-2.56-.47-1.79-.42-3.55-1-5.36-1.31a11,11,0,0,0-6.46.74,2.21,2.21,0,0,1-.37.09L1,18.94Z"/><path class="cls-9" d="M37,20.13,52.42,19v2.88a13.43,13.43,0,0,0-9.7-.18c-1.65.5-3.34.84-5,1.26Z"/><path class="cls-10" d="M51.41,6.72c.25.47.25.79-.28,1.07Q43.08,12.07,35,16.39c-.4.22-.64.2-.88-.29l4.21-2.73c2.75-1.78,5.51-3.54,8.24-5.35a5.41,5.41,0,0,1,2.61-.95C50,7,50.67,6.84,51.41,6.72Z"/><path class="cls-11" d="M2.1,6.77c1.12.16,2.16.3,3.19.47A1.88,1.88,0,0,1,6,7.51L19.18,16a.58.58,0,0,1,.1.12c-.16.52-.46.48-.86.26-5.35-2.87-10.7-5.75-16.07-8.59C1.77,7.51,1.94,7.19,2.1,6.77Z"/><path class="cls-12" d="M1.07,17.39V15.23l16.21,3.55-.35.73Z"/><path class="cls-7" d="M52.49,15.27v2.14L48.17,18c-3.65.49-7.3,1-11,1.48-.57.08-.81-.07-.89-.67Z"/><path class="cls-13" d="M26.57,1.28a1.62,1.62,0,0,1,1.19,1.87c-.25,3.36-.41,6.73-.6,10.14l-.69.05a1.38,1.38,0,0,1-.1-.24c-.2-3.52-.43-7-.56-10.56C25.79,2.11,26.32,1.67,26.57,1.28Z"/><path class="cls-7" d="M37.35,6.64l-5.79,7.74L30.68,14l4.56-8Z"/><path class="cls-7" d="M16.14,6.66,18.23,6l4.57,8-.86.39Z"/><path class="cls-14" d="M28.5,53.35c.71.26,1.32.69,1.23,1.48A2,2,0,0,1,29,56.2a1.1,1.1,0,0,0-.73,1.21c0,1.3-.12,2.6-.18,3.91,0,.92-.53,1.46-1.32,1.46a1.31,1.31,0,0,1-1.33-1.46c0-1.59,0-3.17,0-4.76-1-.25-1.58-.71-1.61-1.59a1.6,1.6,0,0,1,1.25-1.6c-.13-2.89-.27-5.77-.4-8.65a13.3,13.3,0,0,1-.08-2,4.11,4.11,0,0,0-1.54-3.4c-.68-.71-.67-1.56.07-2.61-1.39-1.24-1.19-2.68-.42-4.16a2.78,2.78,0,0,0,.1-3.05,4.1,4.1,0,0,1,2.75,1.06c.61-1,.17-1.9-.11-2.83,1.07.29,2,1.11,3.38,3l2-1,.14.18a6,6,0,0,0,0,3.89,2.55,2.55,0,0,1-.77,2.73c1.08,1.29,1,1.69,0,3.08a5,5,0,0,0-1.24,3.17c0,3.24-.25,6.49-.4,9.74C28.49,52.78,28.5,53.06,28.5,53.35Zm-3.38,2.34h0c1.17,0,2.34.1,3.5,0,.19,0,.53-.62.48-.89a1.15,1.15,0,0,0-.73-.81,16.57,16.57,0,0,0-3.15,0c-.28,0-.62.54-.74.9S24.63,55.56,25.12,55.69Zm1.45,4.45h-.2l-.16-3.75a2.36,2.36,0,0,0-.34.14c.07,1.73.13,3.47.26,5.19,0,.17.46.41.7.41a.76.76,0,0,0,.58-.47c.14-1.72.21-3.45.31-5.16H26.57Zm1.28-6.8.55-12.23H26.45V53.34ZM26.64,29.2a16,16,0,0,1-.79,2.05,8.7,8.7,0,0,1-1.09,1.28,2.77,2.77,0,0,0-.28,3.41,2.34,2.34,0,0,0,.58.42c-.69-2.11-.32-3.31,1.47-4.42a11.15,11.15,0,0,1-.78,1.34,2.35,2.35,0,0,0,0,2.67c.1.18.34.28.52.41-.43-1.71-.32-2.58.52-3.22-.4,1.94-.37,2.3.32,3.12C29.4,34,29.16,31,26.64,29.2Zm.09,10c.82,0,1.64,0,2.46,0a1.13,1.13,0,0,0,1.16-1.09A1.11,1.11,0,0,0,29.27,37c-1.66,0-3.32,0-5,0a1.14,1.14,0,0,0-1.13,1.13,1.16,1.16,0,0,0,1.2,1.13C25.15,39.23,25.94,39.22,26.73,39.21Zm-1.06,14.1.27.09a2.07,2.07,0,0,0,.16-.52c-.05-1.43-.12-2.86-.18-4.29-.1-2.35-.2-4.7-.32-7,0-.17-.17-.33-.27-.5l-.22.11Zm2.31-17c1.76.08,2.67-.68,2.47-2s-.38-2.32-.57-3.47a1.1,1.1,0,0,0-.64,1.38A5.31,5.31,0,0,1,28,36.29ZM25.2,31.06,24,30.32c-.23.81-.42,1.54-.65,2.25s-.49,1.12-.62,1.71a1.64,1.64,0,0,0,1.12,2C23.09,34,23.17,33.72,25.2,31.06Zm-.9,8.81c.71.9,4.4.85,4.87,0Z"/><path class="cls-15" d="M18.18,35.84c.6.86.5,1.31-.61,2.62a2,2,0,0,0-.49,1.1c-.16,2.55-.27,5.11-.36,7.66a.83.83,0,0,0,.33.58A1.25,1.25,0,0,1,17,50a1.1,1.1,0,0,0-.4.78c-.08.91-.08,1.84-.12,2.76,0,.62-.3,1.05-1,1.05s-1-.4-1-1.08c0-.94-.07-1.89-.16-2.83a1.06,1.06,0,0,0-.4-.69,1.25,1.25,0,0,1-.11-2.17,1,1,0,0,0,.34-.64c-.1-2.4-.33-4.8-.34-7.2a3.29,3.29,0,0,0-.92-2.13,1.49,1.49,0,0,1-.21-2.09,2.34,2.34,0,0,1-.3-2.95c.38-.76.7-1.5.06-2.32l.16-.16,2.11.76-.15-1.81c.77.18,1.3.62,2.38,2l1.34-.57c.12,1.14.28,2.18.3,3.22A9.82,9.82,0,0,1,18.18,35.84Zm-3,3.21v8.6h.92l.39-8.6Zm.3-3.51c1.7-2,1.54-4.05,0-5-.32.58-.63,1.17-1,1.74-.19.32-.51.57-.71.9a1.59,1.59,0,0,0,.43,2.19c-.45-1.62-.25-2.22,1.09-3.16a14.87,14.87,0,0,0-.83,1.64,1.17,1.17,0,0,0,.68,1.53c-.21-.67-.44-1.33,0-1.94Zm-.14,2h1.77a.71.71,0,0,0,.78-.76.69.69,0,0,0-.77-.75c-1.13,0-2.26,0-3.38,0-.52,0-.83.24-.82.79s.33.72.81.72Zm0,10.7v.07a2.87,2.87,0,0,0-.83,0,2.94,2.94,0,0,0-.71.52c.21.24.4.65.63.68a7.89,7.89,0,0,0,2.06,0,.81.81,0,0,0,.53-.6c0-.2-.31-.51-.55-.58A4.22,4.22,0,0,0,15.37,48.2Zm.5,1.9h-.53c-.07,1.15-.15,2.28-.2,3.41,0,.16.19.33.29.49.15-.14.41-.28.42-.43C15.88,52.43,15.87,51.29,15.87,50.1Zm.71-14.75A1.19,1.19,0,0,0,18,33.87l-.4-2.23c-.63.53-.11,1.25-.31,1.81S16.83,34.68,16.58,35.35Zm-3-4.07c-.28.75-.54,1.43-.81,2.11a1.43,1.43,0,0,0,.61,2c-.79-1.53-.2-2.65.83-3.69ZM17,38.08H13.85A3.61,3.61,0,0,0,17,38.08Zm-2.51,5.2c.28-2.08.19-3.91-.21-4.31Z"/><path class="cls-14" d="M35,35.77a2.33,2.33,0,0,1-.3-3,2.06,2.06,0,0,0,.1-2.26l.12-.18L37,31.1l-.18-1.88.14-.15,2.37,2.13,1.23-.55c.12,1.17.29,2.25.31,3.34a7.49,7.49,0,0,1-.43,1.8c.63,1,.51,1.49-.66,2.76a1.54,1.54,0,0,0-.4.9C39.23,42,39.12,44.51,39,47a.78.78,0,0,0,.41.85,1.16,1.16,0,0,1-.1,2,.79.79,0,0,0-.48.82c0,1-.09,1.94-.14,2.91a.88.88,0,0,1-1,1,.91.91,0,0,1-1-1c-.08-1-.08-2-.17-3a1.07,1.07,0,0,0-.42-.68A1.26,1.26,0,0,1,36,47.84a1.09,1.09,0,0,0,.37-.78c-.1-2.58-.19-5.16-.4-7.74a3.44,3.44,0,0,0-.88-1.5A1.48,1.48,0,0,1,35,35.77Zm2.11,7.9L36.92,39l-.31,0,.22,4.62V47h.25Zm.47,7.09V54c.49.17.6-.19.62-.6,0-.89,0-1.79.12-2.68,0-.49-.14-.7-.62-.67l-.67,0Zm-.36-18.29.13.17c-.16.27-.33.52-.46.79a1.4,1.4,0,0,0,.55,1.94A2.11,2.11,0,0,1,37.76,33c-.19.86-.42,1.63.17,2.33,1.55-1.63,1.44-3.51-.17-4.83-.31.56-.61,1.15-.95,1.72-.19.3-.49.52-.68.82a1.74,1.74,0,0,0,.51,2.43A2.13,2.13,0,0,1,37.19,32.47Zm1.22,15.18.38-8.57H37.47v8.57ZM37.7,36c-.56,0-1.12,0-1.68,0a.72.72,0,0,0-.81.73c0,.52.31.78.83.78H39.4a.76.76,0,1,0,0-1.52Zm0,13.51h0a2.75,2.75,0,0,0,.91,0,3,3,0,0,0,.73-.61c-.24-.21-.46-.59-.71-.62a8.75,8.75,0,0,0-2,0c-.21,0-.55.38-.54.58a.9.9,0,0,0,.54.61A3.67,3.67,0,0,0,37.71,49.5Zm2.16-17.9c-.13.21-.36.41-.33.56a4.16,4.16,0,0,1-.79,3.18c1.12.1,1.7-.52,1.51-1.49C40.12,33.14,40,32.42,39.87,31.6Zm-4-.32-.81,2.11c-.36.92-.2,1.5.6,1.93-.84-1.47-.15-2.57.82-3.62Zm3.34,6.84h-3v.23A5.33,5.33,0,0,0,39.21,38.12ZM37.34,51.48l-.23,0,.1.56.2,0Z"/><path class="cls-6" d="M27.85,53.34h-1.4V41.11H28.4Z"/><path class="cls-13" d="M26.64,29.2c2.52,1.79,2.76,4.77.47,7.06-.69-.82-.72-1.18-.32-3.12-.84.64-.95,1.51-.52,3.22-.18-.13-.42-.23-.52-.41a2.35,2.35,0,0,1,0-2.67,11.15,11.15,0,0,0,.78-1.34c-1.79,1.11-2.16,2.31-1.47,4.42a2.34,2.34,0,0,1-.58-.42,2.77,2.77,0,0,1,.28-3.41,8.7,8.7,0,0,0,1.09-1.28A16,16,0,0,0,26.64,29.2Z"/><path class="cls-12" d="M26.73,39.21c-.79,0-1.58,0-2.38,0a1.16,1.16,0,0,1-1.2-1.13A1.14,1.14,0,0,1,24.28,37c1.67,0,3.33,0,5,0a1.11,1.11,0,0,1,1.08,1.17,1.13,1.13,0,0,1-1.16,1.09C28.37,39.23,27.55,39.21,26.73,39.21Zm3.1-.59-.06-.17H25.12c-1,0-1.05,0-1.25-1.05a1.51,1.51,0,0,0-.23,1,1,1,0,0,0,.73.52c1.61,0,3.22,0,4.84,0A1.89,1.89,0,0,0,29.83,38.62Z"/><path class="cls-16" d="M26.57,60.14V56.49h1.15c-.1,1.71-.17,3.44-.31,5.16a.76.76,0,0,1-.58.47c-.24,0-.68-.24-.7-.41-.13-1.72-.19-3.46-.26-5.19a2.36,2.36,0,0,1,.34-.14l.16,3.75.05,1.59.28,0Z"/><path class="cls-17" d="M25.67,53.31l-.56-12.15.22-.11c.1.17.27.33.27.5.12,2.34.22,4.69.32,7,.06,1.43.13,2.86.18,4.29a2.07,2.07,0,0,1-.16.52Z"/><path class="cls-12" d="M28,36.29a5.31,5.31,0,0,0,1.26-4.07,1.1,1.1,0,0,1,.64-1.38c.19,1.15.39,2.3.57,3.47S29.74,36.37,28,36.29Z"/><path class="cls-8" d="M25.12,55.69c-.49-.13-.78-.37-.65-.75s.46-.87.74-.9a16.57,16.57,0,0,1,3.15,0,1.15,1.15,0,0,1,.73.81c.05.27-.29.88-.48.89-1.16.05-2.33,0-3.5,0,1.15-.26,2.37.2,3.49-.37a18.47,18.47,0,0,0-2.57-.1c-.55,0-1.05,0-.88-.93C24.49,54.91,24.91,55.29,25.12,55.69Z"/><path class="cls-18" d="M25.2,31.06c-2,2.66-2.11,3-1.33,5.21a1.64,1.64,0,0,1-1.12-2c.13-.59.43-1.13.62-1.71s.42-1.44.65-2.25Z"/><path class="cls-6" d="M24.3,39.87h4.87C28.7,40.72,25,40.77,24.3,39.87Z"/><path class="cls-19" d="M26.57,60.14l.13,1.55-.28,0-.05-1.59Z"/><path class="cls-20" d="M15.2,39.05h1.31l-.39,8.6H15.2Z"/><path class="cls-18" d="M15.5,35.54l-.3-2.13c-.49.61-.26,1.27,0,1.94a1.17,1.17,0,0,1-.68-1.53,14.87,14.87,0,0,1,.83-1.64c-1.34.94-1.54,1.54-1.09,3.16a1.59,1.59,0,0,1-.43-2.19c.2-.33.52-.58.71-.9.35-.57.66-1.16,1-1.74C17,31.49,17.2,33.58,15.5,35.54Z"/><path class="cls-18" d="M15.36,37.5H13.75c-.48,0-.79-.21-.81-.72s.3-.79.82-.79c1.12,0,2.25,0,3.38,0a.69.69,0,0,1,.77.75.71.71,0,0,1-.78.76Zm1.91-.41,0-.2c-.91,0-1.83,0-2.74,0a3.73,3.73,0,0,1-1-.39c-.18.41-.1.74.58.73h2.68A2.44,2.44,0,0,0,17.27,37.09Z"/><path class="cls-18" d="M15.37,48.2a4.22,4.22,0,0,1,1.13.08c.24.07.55.38.55.58a.81.81,0,0,1-.53.6,7.89,7.89,0,0,1-2.06,0c-.23,0-.42-.44-.63-.68a2.94,2.94,0,0,1,.71-.52,2.87,2.87,0,0,1,.83,0Zm1.11.78-2.18-.21C14.48,49.28,15.65,49.45,16.48,49Z"/><path class="cls-17" d="M15.87,50.1c0,1.19,0,2.33,0,3.47,0,.15-.27.29-.42.43-.1-.16-.29-.33-.29-.49,0-1.13.13-2.26.2-3.41Z"/><path class="cls-18" d="M16.58,35.35c.25-.67.48-1.28.7-1.9s-.32-1.28.31-1.81l.4,2.23A1.19,1.19,0,0,1,16.58,35.35Z"/><path class="cls-17" d="M13.58,31.28l.63.43c-1,1-1.62,2.16-.83,3.69a1.43,1.43,0,0,1-.61-2C13,32.71,13.3,32,13.58,31.28Z"/><path class="cls-21" d="M17,38.08a3.61,3.61,0,0,1-3.19,0Z"/><path class="cls-22" d="M14.53,43.28,14.32,39C14.72,39.37,14.81,41.2,14.53,43.28Z"/><path class="cls-20" d="M38.41,47.65h-.94V39.08h1.32Z"/><path class="cls-18" d="M37.19,32.47a2.13,2.13,0,0,0-.55,3,1.74,1.74,0,0,1-.51-2.43c.19-.3.49-.52.68-.82.34-.57.64-1.16.95-1.72,1.61,1.32,1.72,3.2.17,4.83-.59-.7-.36-1.47-.17-2.33a2.11,2.11,0,0,0-.35,2.36,1.4,1.4,0,0,1-.55-1.94c.13-.27.3-.52.46-.79l.21-.27v-.24l-.11.14Z"/><path class="cls-18" d="M37.7,36h1.68a.76.76,0,1,1,0,1.52H36c-.52,0-.84-.26-.83-.78A.72.72,0,0,1,36,36C36.58,36,37.14,36,37.7,36Zm1.86,1.09,0-.19c-.87,0-1.75,0-2.62,0a4.91,4.91,0,0,1-1.14-.38c-.17.4-.09.73.59.73H39A1.89,1.89,0,0,0,39.56,37.08Z"/><path class="cls-16" d="M37.71,49.5a3.67,3.67,0,0,1-1.05,0,.9.9,0,0,1-.54-.61c0-.2.33-.55.54-.58a8.75,8.75,0,0,1,2,0c.25,0,.47.41.71.62a3,3,0,0,1-.73.61,2.75,2.75,0,0,1-.91,0Zm-1.15-.7c0,.07.13.35.24.36a3,3,0,0,0,1.87-.2Z"/><path class="cls-22" d="M39.87,31.6c.14.82.25,1.54.39,2.25.19,1-.39,1.59-1.51,1.49a4.16,4.16,0,0,0,.79-3.18C39.51,32,39.74,31.81,39.87,31.6Z"/><path class="cls-16" d="M37.67,50c.48,0,.65.18.62.67-.07.89-.08,1.79-.12,2.68,0,.41-.13.77-.62.6V50.76Z"/><path class="cls-17" d="M35.87,31.28l.61.42c-1,1.05-1.66,2.15-.82,3.62-.8-.43-1-1-.6-1.93Z"/><path class="cls-17" d="M36.83,43.67l-.22-4.62.31,0,.16,4.64Z"/><path class="cls-21" d="M39.21,38.12a5.33,5.33,0,0,1-3,.23v-.23Z"/><path class="cls-21" d="M36.83,43.67h.25V47h-.25Z"/><path class="cls-23" d="M37.67,50l-.12.74L37,50.05Z"/><path class="cls-23" d="M37.34,51.48l.07.57-.2,0-.1-.56Z"/><path class="cls-24" d="M29.83,38.62a1.89,1.89,0,0,1-.62.28c-1.62,0-3.23,0-4.84,0a1,1,0,0,1-.73-.52,1.51,1.51,0,0,1,.23-1c.2,1,.24,1.05,1.25,1.05h4.65Z"/><path class="cls-23" d="M25.12,55.69c-.21-.4-.63-.78,0-1.41-.17.93.33.94.88.93a18.47,18.47,0,0,1,2.57.1c-1.12.57-2.34.11-3.49.37Z"/><path class="cls-24" d="M17.27,37.09a2.44,2.44,0,0,1-.52.12H14.07c-.68,0-.76-.32-.58-.73a3.73,3.73,0,0,0,1,.39c.91.05,1.83,0,2.74,0Z"/><path class="cls-15" d="M16.48,49c-.83.47-2,.3-2.18-.21Z"/><path class="cls-14" d="M37.53,32.37l-.21.27-.13-.17.22-.2A.58.58,0,0,0,37.53,32.37Z"/><path class="cls-14" d="M37.41,32.27l.11-.14v.24A.58.58,0,0,1,37.41,32.27Z"/><path class="cls-24" d="M39.56,37.08a1.89,1.89,0,0,1-.52.13H36.37c-.68,0-.76-.33-.59-.73a4.91,4.91,0,0,0,1.14.38c.87.05,1.75,0,2.62,0Z"/><path class="cls-14" d="M36.56,48.8l2.11.16a3,3,0,0,1-1.87.2C36.69,49.15,36.6,48.87,36.56,48.8Z"/></g></g></svg>